STARTFONT 2.1
FONT -bitfnt-couriernew-bold-r-normal--16-160-75-75-p-16-iso10646-[1_2846]
SIZE 16 75 75
FONTBOUNDINGBOX 16 16 0 0
STARTPROPERTIES 2
FONT_ASCENT 12
FONT_DESCENT 4
ENDPROPERTIES
CHARS 2846
STARTCHAR u+20
ENCODING 32
SWIDTH 500 0
DWIDTH 8 0
BBX 3 1 -1 -4
BITMAP
00
ENDCHAR
STARTCHAR u+21
ENCODING 33
SWIDTH 500 0
DWIDTH 8 0
BBX 2 9 3 0
BITMAP
C0
C0
C0
C0
C0
C0
C0
00
C0
ENDCHAR
STARTCHAR u+22
ENCODING 34
SWIDTH 500 0
DWIDTH 8 0
BBX 3 4 2 4
BITMAP
A0
A0
A0
A0
ENDCHAR
STARTCHAR u+23
ENCODING 35
SWIDTH 500 0
DWIDTH 8 0
BBX 7 9 0 0
BITMAP
6C
6C
6C
FE
6C
FE
6C
6C
6C
ENDCHAR
STARTCHAR u+24
ENCODING 36
SWIDTH 500 0
DWIDTH 8 0
BBX 6 11 1 -2
BITMAP
10
7C
CC
C0
F8
3C
CC
CC
F8
10
10
ENDCHAR
STARTCHAR u+25
ENCODING 37
SWIDTH 500 0
DWIDTH 8 0
BBX 6 9 1 0
BITMAP
60
90
90
6C
30
D8
24
24
18
ENDCHAR
STARTCHAR u+26
ENCODING 38
SWIDTH 500 0
DWIDTH 8 0
BBX 7 8 0 0
BITMAP
3C
60
60
60
F6
DC
CC
7E
ENDCHAR
STARTCHAR u+27
ENCODING 39
SWIDTH 500 0
DWIDTH 8 0
BBX 1 4 3 4
BITMAP
80
80
80
80
ENDCHAR
STARTCHAR u+28
ENCODING 40
SWIDTH 500 0
DWIDTH 8 0
BBX 3 11 3 -2
BITMAP
20
60
40
C0
C0
C0
C0
C0
40
60
20
ENDCHAR
STARTCHAR u+29
ENCODING 41
SWIDTH 500 0
DWIDTH 8 0
BBX 3 11 2 -2
BITMAP
80
C0
40
60
60
60
60
60
40
C0
80
ENDCHAR
STARTCHAR u+2a
ENCODING 42
SWIDTH 500 0
DWIDTH 8 0
BBX 6 6 1 3
BITMAP
30
30
FC
78
78
48
ENDCHAR
STARTCHAR u+2b
ENCODING 43
SWIDTH 500 0
DWIDTH 8 0
BBX 7 7 1 0
BITMAP
10
10
10
FE
10
10
10
ENDCHAR
STARTCHAR u+2c
ENCODING 44
SWIDTH 500 0
DWIDTH 8 0
BBX 3 4 3 -2
BITMAP
60
40
C0
80
ENDCHAR
STARTCHAR u+2d
ENCODING 45
SWIDTH 500 0
DWIDTH 8 0
BBX 6 1 1 3
BITMAP
FC
ENDCHAR
STARTCHAR u+2e
ENCODING 46
SWIDTH 500 0
DWIDTH 8 0
BBX 2 2 3 0
BITMAP
C0
C0
ENDCHAR
STARTCHAR u+2f
ENCODING 47
SWIDTH 500 0
DWIDTH 8 0
BBX 6 12 1 -2
BITMAP
0C
0C
18
18
18
30
30
60
60
60
C0
C0
ENDCHAR
STARTCHAR u+30
ENCODING 48
SWIDTH 500 0
DWIDTH 8 0
BBX 6 9 1 0
BITMAP
78
CC
CC
CC
CC
CC
CC
CC
78
ENDCHAR
STARTCHAR u+31
ENCODING 49
SWIDTH 500 0
DWIDTH 8 0
BBX 6 9 1 0
BITMAP
30
F0
30
30
30
30
30
30
FC
ENDCHAR
STARTCHAR u+32
ENCODING 50
SWIDTH 500 0
DWIDTH 8 0
BBX 6 9 1 0
BITMAP
78
CC
CC
0C
18
30
60
C0
FC
ENDCHAR
STARTCHAR u+33
ENCODING 51
SWIDTH 500 0
DWIDTH 8 0
BBX 6 9 1 0
BITMAP
78
8C
0C
0C
38
0C
0C
8C
78
ENDCHAR
STARTCHAR u+34
ENCODING 52
SWIDTH 500 0
DWIDTH 8 0
BBX 7 9 0 0
BITMAP
1C
1C
3C
2C
6C
4C
FE
0C
3E
ENDCHAR
STARTCHAR u+35
ENCODING 53
SWIDTH 500 0
DWIDTH 8 0
BBX 6 9 1 0
BITMAP
7C
60
60
78
4C
0C
0C
8C
78
ENDCHAR
STARTCHAR u+36
ENCODING 54
SWIDTH 500 0
DWIDTH 8 0
BBX 6 9 1 0
BITMAP
3C
60
C0
D8
EC
CC
CC
CC
78
ENDCHAR
STARTCHAR u+37
ENCODING 55
SWIDTH 500 0
DWIDTH 8 0
BBX 6 9 1 0
BITMAP
FC
8C
1C
18
18
18
38
30
30
ENDCHAR
STARTCHAR u+38
ENCODING 56
SWIDTH 500 0
DWIDTH 8 0
BBX 6 9 1 0
BITMAP
78
CC
CC
CC
78
CC
CC
CC
78
ENDCHAR
STARTCHAR u+39
ENCODING 57
SWIDTH 500 0
DWIDTH 8 0
BBX 6 9 1 0
BITMAP
78
CC
CC
CC
DC
6C
0C
18
F0
ENDCHAR
STARTCHAR u+3a
ENCODING 58
SWIDTH 500 0
DWIDTH 8 0
BBX 2 6 3 0
BITMAP
C0
C0
00
00
C0
C0
ENDCHAR
STARTCHAR u+3b
ENCODING 59
SWIDTH 500 0
DWIDTH 8 0
BBX 3 8 3 -2
BITMAP
60
60
00
00
60
40
80
80
ENDCHAR
STARTCHAR u+3c
ENCODING 60
SWIDTH 500 0
DWIDTH 8 0
BBX 8 7 0 0
BITMAP
03
0C
30
C0
30
0C
03
ENDCHAR
STARTCHAR u+3d
ENCODING 61
SWIDTH 500 0
DWIDTH 8 0
BBX 7 3 0 2
BITMAP
FE
00
FE
ENDCHAR
STARTCHAR u+3e
ENCODING 62
SWIDTH 500 0
DWIDTH 8 0
BBX 8 7 0 0
BITMAP
C0
30
0C
03
0C
30
C0
ENDCHAR
STARTCHAR u+3f
ENCODING 63
SWIDTH 500 0
DWIDTH 8 0
BBX 5 8 1 0
BITMAP
70
D8
18
38
70
60
00
60
ENDCHAR
STARTCHAR u+40
ENCODING 64
SWIDTH 500 0
DWIDTH 8 0
BBX 6 10 1 -1
BITMAP
38
44
84
9C
A4
A4
9C
80
44
38
ENDCHAR
STARTCHAR u+41
ENCODING 65
SWIDTH 500 0
DWIDTH 8 0
BBX 9 8 0 0
BITMAP
7C00
1C00
3600
3600
3600
7F00
6300
F780
ENDCHAR
STARTCHAR u+42
ENCODING 66
SWIDTH 500 0
DWIDTH 8 0
BBX 7 8 0 0
BITMAP
FC
66
66
7C
66
66
66
FC
ENDCHAR
STARTCHAR u+43
ENCODING 67
SWIDTH 500 0
DWIDTH 8 0
BBX 6 8 1 0
BITMAP
3C
64
C4
C0
C0
C0
64
38
ENDCHAR
STARTCHAR u+44
ENCODING 68
SWIDTH 500 0
DWIDTH 8 0
BBX 7 8 0 0
BITMAP
F8
6C
66
66
66
66
6C
F8
ENDCHAR
STARTCHAR u+45
ENCODING 69
SWIDTH 500 0
DWIDTH 8 0
BBX 7 8 0 0
BITMAP
FE
62
6A
78
68
62
62
FE
ENDCHAR
STARTCHAR u+46
ENCODING 70
SWIDTH 500 0
DWIDTH 8 0
BBX 7 8 0 0
BITMAP
FE
62
6A
78
68
60
60
F8
ENDCHAR
STARTCHAR u+47
ENCODING 71
SWIDTH 500 0
DWIDTH 8 0
BBX 7 8 1 0
BITMAP
7C
C4
C4
C0
DE
CC
CC
78
ENDCHAR
STARTCHAR u+48
ENCODING 72
SWIDTH 500 0
DWIDTH 8 0
BBX 8 8 0 0
BITMAP
E7
66
66
7E
66
66
66
E7
ENDCHAR
STARTCHAR u+49
ENCODING 73
SWIDTH 500 0
DWIDTH 8 0
BBX 6 8 1 0
BITMAP
FC
30
30
30
30
30
30
FC
ENDCHAR
STARTCHAR u+4a
ENCODING 74
SWIDTH 500 0
DWIDTH 8 0
BBX 8 8 0 0
BITMAP
7F
0C
0C
0C
CC
CC
CC
F8
ENDCHAR
STARTCHAR u+4b
ENCODING 75
SWIDTH 500 0
DWIDTH 8 0
BBX 8 8 0 0
BITMAP
F7
66
6C
78
7C
66
66
F3
ENDCHAR
STARTCHAR u+4c
ENCODING 76
SWIDTH 500 0
DWIDTH 8 0
BBX 7 8 0 0
BITMAP
F0
60
60
60
60
62
62
FE
ENDCHAR
STARTCHAR u+4d
ENCODING 77
SWIDTH 500 0
DWIDTH 8 0
BBX 9 8 -1 0
BITMAP
E380
7700
7700
7700
6B00
6B00
6300
F780
ENDCHAR
STARTCHAR u+4e
ENCODING 78
SWIDTH 500 0
DWIDTH 8 0
BBX 8 8 0 0
BITMAP
EF
66
76
76
6E
6E
66
F6
ENDCHAR
STARTCHAR u+4f
ENCODING 79
SWIDTH 500 0
DWIDTH 8 0
BBX 6 8 1 0
BITMAP
78
CC
CC
CC
CC
CC
CC
78
ENDCHAR
STARTCHAR u+50
ENCODING 80
SWIDTH 500 0
DWIDTH 8 0
BBX 7 8 0 0
BITMAP
FC
66
66
66
7C
60
60
F8
ENDCHAR
STARTCHAR u+51
ENCODING 81
SWIDTH 500 0
DWIDTH 8 0
BBX 6 10 1 -2
BITMAP
78
CC
CC
CC
CC
CC
CC
78
34
38
ENDCHAR
STARTCHAR u+52
ENCODING 82
SWIDTH 500 0
DWIDTH 8 0
BBX 8 8 0 0
BITMAP
FC
66
66
66
7C
6C
66
F3
ENDCHAR
STARTCHAR u+53
ENCODING 83
SWIDTH 500 0
DWIDTH 8 0
BBX 6 8 1 0
BITMAP
7C
CC
C0
70
38
0C
CC
F8
ENDCHAR
STARTCHAR u+54
ENCODING 84
SWIDTH 500 0
DWIDTH 8 0
BBX 6 8 1 0
BITMAP
FC
B4
B4
30
30
30
30
78
ENDCHAR
STARTCHAR u+55
ENCODING 85
SWIDTH 500 0
DWIDTH 8 0
BBX 8 8 0 0
BITMAP
E7
66
66
66
66
66
66
3C
ENDCHAR
STARTCHAR u+56
ENCODING 86
SWIDTH 500 0
DWIDTH 8 0
BBX 9 8 0 0
BITMAP
F780
6300
6300
3600
3600
3600
1C00
1C00
ENDCHAR
STARTCHAR u+57
ENCODING 87
SWIDTH 500 0
DWIDTH 8 0
BBX 9 8 -1 0
BITMAP
F780
6300
6B00
7F00
7700
3600
3600
3600
ENDCHAR
STARTCHAR u+58
ENCODING 88
SWIDTH 500 0
DWIDTH 8 0
BBX 8 8 0 0
BITMAP
EF
66
3C
18
18
3C
66
F7
ENDCHAR
STARTCHAR u+59
ENCODING 89
SWIDTH 500 0
DWIDTH 8 0
BBX 8 8 0 0
BITMAP
EF
66
24
3C
18
18
18
7E
ENDCHAR
STARTCHAR u+5a
ENCODING 90
SWIDTH 500 0
DWIDTH 8 0
BBX 6 8 1 0
BITMAP
FC
8C
98
30
30
64
C4
FC
ENDCHAR
STARTCHAR u+5b
ENCODING 91
SWIDTH 500 0
DWIDTH 8 0
BBX 4 11 3 -2
BITMAP
F0
C0
C0
C0
C0
C0
C0
C0
C0
C0
F0
ENDCHAR
STARTCHAR u+5c
ENCODING 92
SWIDTH 500 0
DWIDTH 8 0
BBX 6 12 1 -2
BITMAP
C0
C0
60
60
60
30
30
18
18
18
0C
0C
ENDCHAR
STARTCHAR u+5d
ENCODING 93
SWIDTH 500 0
DWIDTH 8 0
BBX 4 11 1 -2
BITMAP
F0
30
30
30
30
30
30
30
30
30
F0
ENDCHAR
STARTCHAR u+5e
ENCODING 94
SWIDTH 500 0
DWIDTH 8 0
BBX 5 4 2 5
BITMAP
20
50
50
88
ENDCHAR
STARTCHAR u+5f
ENCODING 95
SWIDTH 500 0
DWIDTH 8 0
BBX 9 1 -1 -4
BITMAP
FF80
ENDCHAR
STARTCHAR u+60
ENCODING 96
SWIDTH 500 0
DWIDTH 8 0
BBX 2 2 3 7
BITMAP
80
40
ENDCHAR
STARTCHAR u+61
ENCODING 97
SWIDTH 500 0
DWIDTH 8 0
BBX 7 6 1 0
BITMAP
78
0C
7C
CC
CC
7E
ENDCHAR
STARTCHAR u+62
ENCODING 98
SWIDTH 500 0
DWIDTH 8 0
BBX 7 9 0 0
BITMAP
E0
60
60
6C
76
66
66
76
EC
ENDCHAR
STARTCHAR u+63
ENCODING 99
SWIDTH 500 0
DWIDTH 8 0
BBX 6 6 1 0
BITMAP
7C
C4
C4
C0
C4
78
ENDCHAR
STARTCHAR u+64
ENCODING 100
SWIDTH 500 0
DWIDTH 8 0
BBX 7 9 1 0
BITMAP
1C
0C
0C
6C
DC
CC
CC
DC
6E
ENDCHAR
STARTCHAR u+65
ENCODING 101
SWIDTH 500 0
DWIDTH 8 0
BBX 6 6 1 0
BITMAP
78
CC
FC
C0
C4
78
ENDCHAR
STARTCHAR u+66
ENCODING 102
SWIDTH 500 0
DWIDTH 8 0
BBX 8 9 0 0
BITMAP
1F
30
30
FE
30
30
30
30
FE
ENDCHAR
STARTCHAR u+67
ENCODING 103
SWIDTH 500 0
DWIDTH 8 0
BBX 7 9 1 -3
BITMAP
6E
DC
CC
CC
DC
6C
0C
0C
78
ENDCHAR
STARTCHAR u+68
ENCODING 104
SWIDTH 500 0
DWIDTH 8 0
BBX 8 9 0 0
BITMAP
E0
60
60
7C
66
66
66
66
E7
ENDCHAR
STARTCHAR u+69
ENCODING 105
SWIDTH 500 0
DWIDTH 8 0
BBX 6 9 1 0
BITMAP
30
30
00
F0
30
30
30
30
FC
ENDCHAR
STARTCHAR u+6a
ENCODING 106
SWIDTH 500 0
DWIDTH 8 0
BBX 6 12 0 -3
BITMAP
18
18
00
FC
0C
0C
0C
0C
0C
0C
0C
F8
ENDCHAR
STARTCHAR u+6b
ENCODING 107
SWIDTH 500 0
DWIDTH 8 0
BBX 8 9 0 0
BITMAP
E0
60
60
6E
6C
78
7C
66
EF
ENDCHAR
STARTCHAR u+6c
ENCODING 108
SWIDTH 500 0
DWIDTH 8 0
BBX 8 9 0 0
BITMAP
78
18
18
18
18
18
18
18
FF
ENDCHAR
STARTCHAR u+6d
ENCODING 109
SWIDTH 500 0
DWIDTH 8 0
BBX 10 6 -1 0
BITMAP
FF00
6D80
6D80
6D80
6D80
EDC0
ENDCHAR
STARTCHAR u+6e
ENCODING 110
SWIDTH 500 0
DWIDTH 8 0
BBX 8 6 0 0
BITMAP
FC
66
66
66
66
E7
ENDCHAR
STARTCHAR u+6f
ENCODING 111
SWIDTH 500 0
DWIDTH 8 0
BBX 6 6 1 0
BITMAP
78
CC
CC
CC
CC
78
ENDCHAR
STARTCHAR u+70
ENCODING 112
SWIDTH 500 0
DWIDTH 8 0
BBX 7 9 0 -3
BITMAP
EC
76
66
66
76
6C
60
60
F8
ENDCHAR
STARTCHAR u+71
ENCODING 113
SWIDTH 500 0
DWIDTH 8 0
BBX 7 9 1 -3
BITMAP
6E
DC
CC
CC
DC
6C
0C
0C
3E
ENDCHAR
STARTCHAR u+72
ENCODING 114
SWIDTH 500 0
DWIDTH 8 0
BBX 7 6 0 0
BITMAP
F6
3A
30
30
30
FE
ENDCHAR
STARTCHAR u+73
ENCODING 115
SWIDTH 500 0
DWIDTH 8 0
BBX 6 6 1 0
BITMAP
7C
CC
F0
3C
CC
F8
ENDCHAR
STARTCHAR u+74
ENCODING 116
SWIDTH 500 0
DWIDTH 8 0
BBX 6 8 1 0
BITMAP
60
60
F8
60
60
60
64
38
ENDCHAR
STARTCHAR u+75
ENCODING 117
SWIDTH 500 0
DWIDTH 8 0
BBX 8 6 0 0
BITMAP
EE
66
66
66
66
3F
ENDCHAR
STARTCHAR u+76
ENCODING 118
SWIDTH 500 0
DWIDTH 8 0
BBX 7 6 0 0
BITMAP
EE
6C
6C
28
38
38
ENDCHAR
STARTCHAR u+77
ENCODING 119
SWIDTH 500 0
DWIDTH 8 0
BBX 9 6 -1 0
BITMAP
E380
6B00
7F00
3600
3600
2200
ENDCHAR
STARTCHAR u+78
ENCODING 120
SWIDTH 500 0
DWIDTH 8 0
BBX 8 6 0 0
BITMAP
E7
66
3C
3C
66
E7
ENDCHAR
STARTCHAR u+79
ENCODING 121
SWIDTH 500 0
DWIDTH 8 0
BBX 8 9 0 -3
BITMAP
F7
66
64
2C
38
18
30
30
F8
ENDCHAR
STARTCHAR u+7a
ENCODING 122
SWIDTH 500 0
DWIDTH 8 0
BBX 6 6 1 0
BITMAP
FC
98
30
60
C4
FC
ENDCHAR
STARTCHAR u+7b
ENCODING 123
SWIDTH 500 0
DWIDTH 8 0
BBX 4 11 2 -2
BITMAP
30
60
60
60
60
C0
60
60
60
60
30
ENDCHAR
STARTCHAR u+7c
ENCODING 124
SWIDTH 500 0
DWIDTH 8 0
BBX 2 11 3 -2
BITMAP
C0
C0
C0
C0
C0
C0
C0
C0
C0
C0
C0
ENDCHAR
STARTCHAR u+7d
ENCODING 125
SWIDTH 500 0
DWIDTH 8 0
BBX 4 11 1 -2
BITMAP
C0
60
60
60
60
30
60
60
60
60
C0
ENDCHAR
STARTCHAR u+7e
ENCODING 126
SWIDTH 500 0
DWIDTH 8 0
BBX 5 3 1 2
BITMAP
40
A8
10
ENDCHAR
STARTCHAR u+a0
ENCODING 160
SWIDTH 500 0
DWIDTH 8 0
BBX 3 1 -1 -4
BITMAP
00
ENDCHAR
STARTCHAR u+a1
ENCODING 161
SWIDTH 500 0
DWIDTH 8 0
BBX 2 9 3 -3
BITMAP
C0
00
C0
C0
C0
C0
C0
C0
C0
ENDCHAR
STARTCHAR u+a2
ENCODING 162
SWIDTH 500 0
DWIDTH 8 0
BBX 6 11 1 -1
BITMAP
10
10
3C
64
C4
C0
C0
64
38
10
10
ENDCHAR
STARTCHAR u+a3
ENCODING 163
SWIDTH 500 0
DWIDTH 8 0
BBX 7 8 0 0
BITMAP
38
64
60
F8
30
30
66
FE
ENDCHAR
STARTCHAR u+a4
ENCODING 164
SWIDTH 500 0
DWIDTH 8 0
BBX 8 7 0 0
BITMAP
C3
FF
66
66
66
FF
C3
ENDCHAR
STARTCHAR u+a5
ENCODING 165
SWIDTH 500 0
DWIDTH 8 0
BBX 8 8 0 0
BITMAP
F7
66
34
7E
18
7E
18
7E
ENDCHAR
STARTCHAR u+a6
ENCODING 166
SWIDTH 500 0
DWIDTH 8 0
BBX 2 11 3 -2
BITMAP
C0
C0
C0
C0
C0
00
C0
C0
C0
C0
C0
ENDCHAR
STARTCHAR u+a7
ENCODING 167
SWIDTH 500 0
DWIDTH 8 0
BBX 6 10 1 -1
BITMAP
38
48
C8
A0
98
64
14
4C
48
70
ENDCHAR
STARTCHAR u+a8
ENCODING 168
SWIDTH 500 0
DWIDTH 8 0
BBX 4 1 2 7
BITMAP
90
ENDCHAR
STARTCHAR u+a9
ENCODING 169
SWIDTH 500 0
DWIDTH 8 0
BBX 8 8 0 0
BITMAP
3C
42
9D
A5
A1
9D
42
3C
ENDCHAR
STARTCHAR u+aa
ENCODING 170
SWIDTH 500 0
DWIDTH 8 0
BBX 5 4 1 5
BITMAP
E0
70
90
78
ENDCHAR
STARTCHAR u+ab
ENCODING 171
SWIDTH 500 0
DWIDTH 8 0
BBX 7 6 1 0
BITMAP
22
44
88
88
44
22
ENDCHAR
STARTCHAR u+ac
ENCODING 172
SWIDTH 500 0
DWIDTH 8 0
BBX 7 4 0 0
BITMAP
FE
02
02
02
ENDCHAR
STARTCHAR u+ad
ENCODING 173
SWIDTH 500 0
DWIDTH 8 0
BBX 6 1 1 3
BITMAP
FC
ENDCHAR
STARTCHAR u+ae
ENCODING 174
SWIDTH 500 0
DWIDTH 8 0
BBX 8 8 0 0
BITMAP
3C
42
BD
95
99
B5
42
3C
ENDCHAR
STARTCHAR u+af
ENCODING 175
SWIDTH 500 0
DWIDTH 8 0
BBX 9 1 -1 9
BITMAP
FF80
ENDCHAR
STARTCHAR u+b0
ENCODING 176
SWIDTH 500 0
DWIDTH 8 0
BBX 4 4 2 5
BITMAP
60
90
90
60
ENDCHAR
STARTCHAR u+b1
ENCODING 177
SWIDTH 500 0
DWIDTH 8 0
BBX 7 9 1 0
BITMAP
10
10
10
FE
10
10
10
00
FE
ENDCHAR
STARTCHAR u+b2
ENCODING 178
SWIDTH 500 0
DWIDTH 8 0
BBX 3 5 2 4
BITMAP
E0
20
20
40
E0
ENDCHAR
STARTCHAR u+b3
ENCODING 179
SWIDTH 500 0
DWIDTH 8 0
BBX 4 5 2 4
BITMAP
F0
10
60
10
F0
ENDCHAR
STARTCHAR u+b4
ENCODING 180
SWIDTH 500 0
DWIDTH 8 0
BBX 2 2 3 7
BITMAP
40
80
ENDCHAR
STARTCHAR u+b5
ENCODING 181
SWIDTH 500 0
DWIDTH 8 0
BBX 8 9 0 -3
BITMAP
EE
66
66
66
66
7F
60
60
60
ENDCHAR
STARTCHAR u+b6
ENCODING 182
SWIDTH 500 0
DWIDTH 8 0
BBX 7 10 1 -1
BITMAP
7E
D4
D4
D4
74
14
14
14
14
7E
ENDCHAR
STARTCHAR u+b7
ENCODING 183
SWIDTH 500 0
DWIDTH 8 0
BBX 2 2 5 4
BITMAP
C0
C0
ENDCHAR
STARTCHAR u+b8
ENCODING 184
SWIDTH 500 0
DWIDTH 8 0
BBX 3 5 3 -4
BITMAP
40
40
60
20
E0
ENDCHAR
STARTCHAR u+b9
ENCODING 185
SWIDTH 500 0
DWIDTH 8 0
BBX 3 5 3 4
BITMAP
C0
40
40
40
E0
ENDCHAR
STARTCHAR u+ba
ENCODING 186
SWIDTH 500 0
DWIDTH 8 0
BBX 5 4 2 5
BITMAP
70
88
88
70
ENDCHAR
STARTCHAR u+bb
ENCODING 187
SWIDTH 500 0
DWIDTH 8 0
BBX 7 6 0 0
BITMAP
88
44
22
22
44
88
ENDCHAR
STARTCHAR u+bc
ENCODING 188
SWIDTH 500 0
DWIDTH 8 0
BBX 8 9 0 0
BITMAP
C0
42
44
48
EE
16
2F
02
07
ENDCHAR
STARTCHAR u+bd
ENCODING 189
SWIDTH 500 0
DWIDTH 8 0
BBX 8 9 0 0
BITMAP
C0
40
42
4C
FF
21
42
04
0F
ENDCHAR
STARTCHAR u+be
ENCODING 190
SWIDTH 500 0
DWIDTH 8 0
BBX 8 9 0 0
BITMAP
F0
10
62
1C
F6
26
4F
02
07
ENDCHAR
STARTCHAR u+bf
ENCODING 191
SWIDTH 500 0
DWIDTH 8 0
BBX 5 9 1 -3
BITMAP
60
00
60
60
E0
C0
C0
D8
70
ENDCHAR
STARTCHAR u+c0
ENCODING 192
SWIDTH 500 0
DWIDTH 8 0
BBX 9 11 0 0
BITMAP
1000
0800
0000
7C00
1C00
3600
3600
3600
7F00
6300
F780
ENDCHAR
STARTCHAR u+c1
ENCODING 193
SWIDTH 500 0
DWIDTH 8 0
BBX 9 11 0 0
BITMAP
0800
1000
0000
7C00
1C00
3600
3600
3600
7F00
6300
F780
ENDCHAR
STARTCHAR u+c2
ENCODING 194
SWIDTH 500 0
DWIDTH 8 0
BBX 9 11 0 0
BITMAP
1800
2400
0000
7C00
1C00
3600
3600
3600
7F00
6300
F780
ENDCHAR
STARTCHAR u+c3
ENCODING 195
SWIDTH 500 0
DWIDTH 8 0
BBX 9 11 0 0
BITMAP
3400
2C00
0000
7C00
1C00
3600
3600
3600
7F00
6300
F780
ENDCHAR
STARTCHAR u+c4
ENCODING 196
SWIDTH 500 0
DWIDTH 8 0
BBX 9 10 0 0
BITMAP
2400
0000
7C00
1C00
3600
3600
3600
7F00
6300
F780
ENDCHAR
STARTCHAR u+c5
ENCODING 197
SWIDTH 500 0
DWIDTH 8 0
BBX 9 12 0 0
BITMAP
1C00
1400
1C00
0000
7C00
1C00
3600
3600
3600
7F00
6300
F780
ENDCHAR
STARTCHAR u+c6
ENCODING 198
SWIDTH 500 0
DWIDTH 8 0
BBX 9 8 -1 0
BITMAP
3F80
1C80
2D00
2F00
2D00
7C00
4C80
FF80
ENDCHAR
STARTCHAR u+c7
ENCODING 199
SWIDTH 500 0
DWIDTH 8 0
BBX 6 12 1 -4
BITMAP
3C
64
C4
C0
C0
C0
64
38
10
18
08
38
ENDCHAR
STARTCHAR u+c8
ENCODING 200
SWIDTH 500 0
DWIDTH 8 0
BBX 7 11 0 0
BITMAP
10
08
00
FE
62
6A
78
68
62
62
FE
ENDCHAR
STARTCHAR u+c9
ENCODING 201
SWIDTH 500 0
DWIDTH 8 0
BBX 7 11 0 0
BITMAP
08
10
00
FE
62
6A
78
68
62
62
FE
ENDCHAR
STARTCHAR u+ca
ENCODING 202
SWIDTH 500 0
DWIDTH 8 0
BBX 7 11 0 0
BITMAP
18
24
00
FE
62
6A
78
68
62
62
FE
ENDCHAR
STARTCHAR u+cb
ENCODING 203
SWIDTH 500 0
DWIDTH 8 0
BBX 7 10 0 0
BITMAP
24
00
FE
62
6A
78
68
62
62
FE
ENDCHAR
STARTCHAR u+cc
ENCODING 204
SWIDTH 500 0
DWIDTH 8 0
BBX 6 11 1 0
BITMAP
20
10
00
FC
30
30
30
30
30
30
FC
ENDCHAR
STARTCHAR u+cd
ENCODING 205
SWIDTH 500 0
DWIDTH 8 0
BBX 6 11 1 0
BITMAP
10
20
00
FC
30
30
30
30
30
30
FC
ENDCHAR
STARTCHAR u+ce
ENCODING 206
SWIDTH 500 0
DWIDTH 8 0
BBX 6 11 1 0
BITMAP
30
48
00
FC
30
30
30
30
30
30
FC
ENDCHAR
STARTCHAR u+cf
ENCODING 207
SWIDTH 500 0
DWIDTH 8 0
BBX 6 10 1 0
BITMAP
48
00
FC
30
30
30
30
30
30
FC
ENDCHAR
STARTCHAR u+d0
ENCODING 208
SWIDTH 500 0
DWIDTH 8 0
BBX 7 8 0 0
BITMAP
F8
6C
66
F6
66
66
6C
F8
ENDCHAR
STARTCHAR u+d1
ENCODING 209
SWIDTH 500 0
DWIDTH 8 0
BBX 8 11 0 0
BITMAP
1A
16
00
EF
66
76
76
6E
6E
66
F6
ENDCHAR
STARTCHAR u+d2
ENCODING 210
SWIDTH 500 0
DWIDTH 8 0
BBX 6 11 1 0
BITMAP
20
10
00
78
CC
CC
CC
CC
CC
CC
78
ENDCHAR
STARTCHAR u+d3
ENCODING 211
SWIDTH 500 0
DWIDTH 8 0
BBX 6 11 1 0
BITMAP
10
20
00
78
CC
CC
CC
CC
CC
CC
78
ENDCHAR
STARTCHAR u+d4
ENCODING 212
SWIDTH 500 0
DWIDTH 8 0
BBX 6 11 1 0
BITMAP
30
48
00
78
CC
CC
CC
CC
CC
CC
78
ENDCHAR
STARTCHAR u+d5
ENCODING 213
SWIDTH 500 0
DWIDTH 8 0
BBX 6 11 1 0
BITMAP
D0
B0
00
78
CC
CC
CC
CC
CC
CC
78
ENDCHAR
STARTCHAR u+d6
ENCODING 214
SWIDTH 500 0
DWIDTH 8 0
BBX 6 10 1 0
BITMAP
48
00
78
CC
CC
CC
CC
CC
CC
78
ENDCHAR
STARTCHAR u+d7
ENCODING 215
SWIDTH 500 0
DWIDTH 8 0
BBX 6 6 1 1
BITMAP
84
48
30
30
48
84
ENDCHAR
STARTCHAR u+d8
ENCODING 216
SWIDTH 500 0
DWIDTH 8 0
BBX 6 10 1 -1
BITMAP
0C
7C
D8
DC
FC
FC
EC
6C
F8
C0
ENDCHAR
STARTCHAR u+d9
ENCODING 217
SWIDTH 500 0
DWIDTH 8 0
BBX 8 11 0 0
BITMAP
10
08
00
E7
66
66
66
66
66
66
3C
ENDCHAR
STARTCHAR u+da
ENCODING 218
SWIDTH 500 0
DWIDTH 8 0
BBX 8 11 0 0
BITMAP
08
10
00
E7
66
66
66
66
66
66
3C
ENDCHAR
STARTCHAR u+db
ENCODING 219
SWIDTH 500 0
DWIDTH 8 0
BBX 8 11 0 0
BITMAP
18
24
00
E7
66
66
66
66
66
66
3C
ENDCHAR
STARTCHAR u+dc
ENCODING 220
SWIDTH 500 0
DWIDTH 8 0
BBX 8 10 0 0
BITMAP
24
00
E7
66
66
66
66
66
66
3C
ENDCHAR
STARTCHAR u+dd
ENCODING 221
SWIDTH 500 0
DWIDTH 8 0
BBX 8 11 0 0
BITMAP
08
10
00
EF
66
24
3C
18
18
18
7E
ENDCHAR
STARTCHAR u+de
ENCODING 222
SWIDTH 500 0
DWIDTH 8 0
BBX 8 8 0 0
BITMAP
F8
60
7E
63
63
7E
60
F8
ENDCHAR
STARTCHAR u+df
ENCODING 223
SWIDTH 500 0
DWIDTH 8 0
BBX 7 9 0 0
BITMAP
3C
66
66
6C
66
66
66
66
EC
ENDCHAR
STARTCHAR u+e0
ENCODING 224
SWIDTH 500 0
DWIDTH 8 0
BBX 7 9 1 0
BITMAP
20
10
00
78
0C
7C
CC
CC
7E
ENDCHAR
STARTCHAR u+e1
ENCODING 225
SWIDTH 500 0
DWIDTH 8 0
BBX 7 9 1 0
BITMAP
10
20
00
78
0C
7C
CC
CC
7E
ENDCHAR
STARTCHAR u+e2
ENCODING 226
SWIDTH 500 0
DWIDTH 8 0
BBX 7 9 1 0
BITMAP
30
48
00
78
0C
7C
CC
CC
7E
ENDCHAR
STARTCHAR u+e3
ENCODING 227
SWIDTH 500 0
DWIDTH 8 0
BBX 7 9 1 0
BITMAP
68
58
00
78
0C
7C
CC
CC
7E
ENDCHAR
STARTCHAR u+e4
ENCODING 228
SWIDTH 500 0
DWIDTH 8 0
BBX 7 8 1 0
BITMAP
48
00
78
0C
7C
CC
CC
7E
ENDCHAR
STARTCHAR u+e5
ENCODING 229
SWIDTH 500 0
DWIDTH 8 0
BBX 7 10 1 0
BITMAP
70
50
70
00
78
0C
7C
CC
CC
7E
ENDCHAR
STARTCHAR u+e6
ENCODING 230
SWIDTH 500 0
DWIDTH 8 0
BBX 8 6 0 0
BITMAP
7E
1B
7F
D8
D9
7E
ENDCHAR
STARTCHAR u+e7
ENCODING 231
SWIDTH 500 0
DWIDTH 8 0
BBX 6 10 1 -4
BITMAP
7C
C4
C4
C0
C4
78
10
18
08
38
ENDCHAR
STARTCHAR u+e8
ENCODING 232
SWIDTH 500 0
DWIDTH 8 0
BBX 6 9 1 0
BITMAP
20
10
00
78
CC
FC
C0
C4
78
ENDCHAR
STARTCHAR u+e9
ENCODING 233
SWIDTH 500 0
DWIDTH 8 0
BBX 6 9 1 0
BITMAP
10
20
00
78
CC
FC
C0
C4
78
ENDCHAR
STARTCHAR u+ea
ENCODING 234
SWIDTH 500 0
DWIDTH 8 0
BBX 6 9 1 0
BITMAP
30
48
00
78
CC
FC
C0
C4
78
ENDCHAR
STARTCHAR u+eb
ENCODING 235
SWIDTH 500 0
DWIDTH 8 0
BBX 6 8 1 0
BITMAP
48
00
78
CC
FC
C0
C4
78
ENDCHAR
STARTCHAR u+ec
ENCODING 236
SWIDTH 500 0
DWIDTH 8 0
BBX 8 9 0 0
BITMAP
20
10
00
78
18
18
18
18
FF
ENDCHAR
STARTCHAR u+ed
ENCODING 237
SWIDTH 500 0
DWIDTH 8 0
BBX 8 9 0 0
BITMAP
08
10
00
78
18
18
18
18
FF
ENDCHAR
STARTCHAR u+ee
ENCODING 238
SWIDTH 500 0
DWIDTH 8 0
BBX 8 9 0 0
BITMAP
30
48
00
78
18
18
18
18
FF
ENDCHAR
STARTCHAR u+ef
ENCODING 239
SWIDTH 500 0
DWIDTH 8 0
BBX 8 8 0 0
BITMAP
24
00
78
18
18
18
18
FF
ENDCHAR
STARTCHAR u+f0
ENCODING 240
SWIDTH 500 0
DWIDTH 8 0
BBX 6 9 1 0
BITMAP
34
18
2C
7C
CC
CC
CC
CC
78
ENDCHAR
STARTCHAR u+f1
ENCODING 241
SWIDTH 500 0
DWIDTH 8 0
BBX 8 9 0 0
BITMAP
34
2C
00
FC
66
66
66
66
E7
ENDCHAR
STARTCHAR u+f2
ENCODING 242
SWIDTH 500 0
DWIDTH 8 0
BBX 6 9 1 0
BITMAP
20
10
00
78
CC
CC
CC
CC
78
ENDCHAR
STARTCHAR u+f3
ENCODING 243
SWIDTH 500 0
DWIDTH 8 0
BBX 6 9 1 0
BITMAP
10
20
00
78
CC
CC
CC
CC
78
ENDCHAR
STARTCHAR u+f4
ENCODING 244
SWIDTH 500 0
DWIDTH 8 0
BBX 6 9 1 0
BITMAP
30
48
00
78
CC
CC
CC
CC
78
ENDCHAR
STARTCHAR u+f5
ENCODING 245
SWIDTH 500 0
DWIDTH 8 0
BBX 6 9 1 0
BITMAP
68
58
00
78
CC
CC
CC
CC
78
ENDCHAR
STARTCHAR u+f6
ENCODING 246
SWIDTH 500 0
DWIDTH 8 0
BBX 6 8 1 0
BITMAP
48
00
78
CC
CC
CC
CC
78
ENDCHAR
STARTCHAR u+f7
ENCODING 247
SWIDTH 500 0
DWIDTH 8 0
BBX 8 7 0 0
BITMAP
18
00
00
FF
00
00
18
ENDCHAR
STARTCHAR u+f8
ENCODING 248
SWIDTH 500 0
DWIDTH 8 0
BBX 6 8 1 -1
BITMAP
04
78
D8
DC
EC
4C
F8
80
ENDCHAR
STARTCHAR u+f9
ENCODING 249
SWIDTH 500 0
DWIDTH 8 0
BBX 8 9 0 0
BITMAP
10
08
00
EE
66
66
66
66
3F
ENDCHAR
STARTCHAR u+fa
ENCODING 250
SWIDTH 500 0
DWIDTH 8 0
BBX 8 9 0 0
BITMAP
08
10
00
EE
66
66
66
66
3F
ENDCHAR
STARTCHAR u+fb
ENCODING 251
SWIDTH 500 0
DWIDTH 8 0
BBX 8 9 0 0
BITMAP
18
24
00
EE
66
66
66
66
3F
ENDCHAR
STARTCHAR u+fc
ENCODING 252
SWIDTH 500 0
DWIDTH 8 0
BBX 8 8 0 0
BITMAP
24
00
EE
66
66
66
66
3F
ENDCHAR
STARTCHAR u+fd
ENCODING 253
SWIDTH 500 0
DWIDTH 8 0
BBX 8 12 0 -3
BITMAP
08
10
00
F7
66
64
2C
38
18
30
30
F8
ENDCHAR
STARTCHAR u+fe
ENCODING 254
SWIDTH 500 0
DWIDTH 8 0
BBX 7 12 0 -3
BITMAP
E0
60
60
6C
76
66
66
76
6C
60
60
F8
ENDCHAR
STARTCHAR u+ff
ENCODING 255
SWIDTH 500 0
DWIDTH 8 0
BBX 8 11 0 -3
BITMAP
24
00
F7
66
64
2C
38
18
30
30
F8
ENDCHAR
STARTCHAR u+100
ENCODING 256
SWIDTH 500 0
DWIDTH 8 0
BBX 9 10 0 0
BITMAP
3C00
0000
7C00
1C00
3600
3600
3600
7F00
6300
F780
ENDCHAR
STARTCHAR u+101
ENCODING 257
SWIDTH 500 0
DWIDTH 8 0
BBX 7 8 1 0
BITMAP
3C
00
78
0C
7C
CC
CC
7E
ENDCHAR
STARTCHAR u+102
ENCODING 258
SWIDTH 500 0
DWIDTH 8 0
BBX 9 11 0 0
BITMAP
2400
1800
0000
7C00
1C00
3600
3600
3600
7F00
6300
F780
ENDCHAR
STARTCHAR u+103
ENCODING 259
SWIDTH 500 0
DWIDTH 8 0
BBX 7 9 1 0
BITMAP
48
30
00
78
0C
7C
CC
CC
7E
ENDCHAR
STARTCHAR u+104
ENCODING 260
SWIDTH 500 0
DWIDTH 8 0
BBX 10 10 0 -2
BITMAP
7C00
1C00
3600
3600
3600
7F00
6300
F780
0100
01C0
ENDCHAR
STARTCHAR u+105
ENCODING 261
SWIDTH 500 0
DWIDTH 8 0
BBX 8 8 1 -2
BITMAP
78
0C
7C
CC
CC
7E
04
07
ENDCHAR
STARTCHAR u+106
ENCODING 262
SWIDTH 500 0
DWIDTH 8 0
BBX 6 11 1 0
BITMAP
08
10
00
3C
64
C4
C0
C0
C0
64
38
ENDCHAR
STARTCHAR u+107
ENCODING 263
SWIDTH 500 0
DWIDTH 8 0
BBX 6 9 1 0
BITMAP
08
10
00
7C
C4
C4
C0
C4
78
ENDCHAR
STARTCHAR u+108
ENCODING 264
SWIDTH 500 0
DWIDTH 8 0
BBX 6 11 1 0
BITMAP
18
24
00
3C
64
C4
C0
C0
C0
64
38
ENDCHAR
STARTCHAR u+109
ENCODING 265
SWIDTH 500 0
DWIDTH 8 0
BBX 6 9 1 0
BITMAP
30
48
00
7C
C4
C4
C0
C4
78
ENDCHAR
STARTCHAR u+10a
ENCODING 266
SWIDTH 500 0
DWIDTH 8 0
BBX 6 11 1 0
BITMAP
18
18
00
3C
64
C4
C0
C0
C0
64
38
ENDCHAR
STARTCHAR u+10b
ENCODING 267
SWIDTH 500 0
DWIDTH 8 0
BBX 6 9 1 0
BITMAP
30
30
00
7C
C4
C4
C0
C4
78
ENDCHAR
STARTCHAR u+10c
ENCODING 268
SWIDTH 500 0
DWIDTH 8 0
BBX 6 11 1 0
BITMAP
24
18
00
3C
64
C4
C0
C0
C0
64
38
ENDCHAR
STARTCHAR u+10d
ENCODING 269
SWIDTH 500 0
DWIDTH 8 0
BBX 6 9 1 0
BITMAP
48
30
00
7C
C4
C4
C0
C4
78
ENDCHAR
STARTCHAR u+10e
ENCODING 270
SWIDTH 500 0
DWIDTH 8 0
BBX 7 11 0 0
BITMAP
48
30
00
F8
6C
66
66
66
66
6C
F8
ENDCHAR
STARTCHAR u+10f
ENCODING 271
SWIDTH 500 0
DWIDTH 8 0
BBX 9 9 1 0
BITMAP
1D80
0C80
0D00
6C00
DC00
CC00
CC00
DC00
6E00
ENDCHAR
STARTCHAR u+110
ENCODING 272
SWIDTH 500 0
DWIDTH 8 0
BBX 7 8 0 0
BITMAP
F8
6C
66
F6
66
66
6C
F8
ENDCHAR
STARTCHAR u+111
ENCODING 273
SWIDTH 500 0
DWIDTH 8 0
BBX 8 9 1 0
BITMAP
1C
0C
3F
0C
7C
CC
CC
CC
7E
ENDCHAR
STARTCHAR u+112
ENCODING 274
SWIDTH 500 0
DWIDTH 8 0
BBX 7 10 0 0
BITMAP
3C
00
FE
62
6A
78
68
62
62
FE
ENDCHAR
STARTCHAR u+113
ENCODING 275
SWIDTH 500 0
DWIDTH 8 0
BBX 6 8 1 0
BITMAP
78
00
78
CC
FC
C0
C4
78
ENDCHAR
STARTCHAR u+114
ENCODING 276
SWIDTH 500 0
DWIDTH 8 0
BBX 7 11 0 0
BITMAP
24
18
00
FE
62
6A
78
68
62
62
FE
ENDCHAR
STARTCHAR u+115
ENCODING 277
SWIDTH 500 0
DWIDTH 8 0
BBX 6 9 1 0
BITMAP
48
30
00
78
CC
FC
C0
C4
78
ENDCHAR
STARTCHAR u+116
ENCODING 278
SWIDTH 500 0
DWIDTH 8 0
BBX 7 11 0 0
BITMAP
18
18
00
FE
62
6A
78
68
62
62
FE
ENDCHAR
STARTCHAR u+117
ENCODING 279
SWIDTH 500 0
DWIDTH 8 0
BBX 6 9 1 0
BITMAP
30
30
00
78
CC
FC
C0
C4
78
ENDCHAR
STARTCHAR u+118
ENCODING 280
SWIDTH 500 0
DWIDTH 8 0
BBX 8 10 0 -2
BITMAP
FE
62
6A
78
68
62
62
FE
04
07
ENDCHAR
STARTCHAR u+119
ENCODING 281
SWIDTH 500 0
DWIDTH 8 0
BBX 6 8 1 -2
BITMAP
78
CC
FC
C0
C4
78
20
38
ENDCHAR
STARTCHAR u+11a
ENCODING 282
SWIDTH 500 0
DWIDTH 8 0
BBX 7 11 0 0
BITMAP
24
18
00
FE
62
6A
78
68
62
62
FE
ENDCHAR
STARTCHAR u+11b
ENCODING 283
SWIDTH 500 0
DWIDTH 8 0
BBX 6 9 1 0
BITMAP
48
30
00
78
CC
FC
C0
C4
78
ENDCHAR
STARTCHAR u+11c
ENCODING 284
SWIDTH 500 0
DWIDTH 8 0
BBX 7 11 1 0
BITMAP
30
48
00
7C
C4
C4
C0
DE
CC
CC
78
ENDCHAR
STARTCHAR u+11d
ENCODING 285
SWIDTH 500 0
DWIDTH 8 0
BBX 7 12 1 -3
BITMAP
30
48
00
6E
DC
CC
CC
DC
6C
0C
0C
78
ENDCHAR
STARTCHAR u+11e
ENCODING 286
SWIDTH 500 0
DWIDTH 8 0
BBX 7 11 1 0
BITMAP
48
30
00
7C
C4
C4
C0
DE
CC
CC
78
ENDCHAR
STARTCHAR u+11f
ENCODING 287
SWIDTH 500 0
DWIDTH 8 0
BBX 7 12 1 -3
BITMAP
48
30
00
6E
DC
CC
CC
DC
6C
0C
0C
78
ENDCHAR
STARTCHAR u+120
ENCODING 288
SWIDTH 500 0
DWIDTH 8 0
BBX 7 11 1 0
BITMAP
30
30
00
7C
C4
C4
C0
DE
CC
CC
78
ENDCHAR
STARTCHAR u+121
ENCODING 289
SWIDTH 500 0
DWIDTH 8 0
BBX 7 12 1 -3
BITMAP
30
30
00
6E
DC
CC
CC
DC
6C
0C
0C
78
ENDCHAR
STARTCHAR u+122
ENCODING 290
SWIDTH 500 0
DWIDTH 8 0
BBX 7 11 1 -3
BITMAP
7C
C4
C4
C0
DE
CC
CC
78
00
10
30
ENDCHAR
STARTCHAR u+123
ENCODING 291
SWIDTH 500 0
DWIDTH 8 0
BBX 7 13 1 -3
BITMAP
10
20
30
00
6E
DC
CC
CC
DC
6C
0C
0C
38
ENDCHAR
STARTCHAR u+124
ENCODING 292
SWIDTH 500 0
DWIDTH 8 0
BBX 8 11 0 0
BITMAP
18
24
00
E7
66
66
7E
66
66
66
E7
ENDCHAR
STARTCHAR u+125
ENCODING 293
SWIDTH 500 0
DWIDTH 8 0
BBX 8 12 0 0
BITMAP
18
24
00
E0
60
60
7C
66
66
66
66
E7
ENDCHAR
STARTCHAR u+126
ENCODING 294
SWIDTH 500 0
DWIDTH 8 0
BBX 8 8 0 0
BITMAP
E7
66
FF
66
7E
66
66
E7
ENDCHAR
STARTCHAR u+127
ENCODING 295
SWIDTH 500 0
DWIDTH 8 0
BBX 8 9 0 0
BITMAP
60
F8
60
7C
66
66
66
66
E7
ENDCHAR
STARTCHAR u+128
ENCODING 296
SWIDTH 500 0
DWIDTH 8 0
BBX 6 11 1 0
BITMAP
68
58
00
FC
30
30
30
30
30
30
FC
ENDCHAR
STARTCHAR u+129
ENCODING 297
SWIDTH 500 0
DWIDTH 8 0
BBX 8 9 0 0
BITMAP
34
2C
00
78
18
18
18
18
FF
ENDCHAR
STARTCHAR u+12a
ENCODING 298
SWIDTH 500 0
DWIDTH 8 0
BBX 6 10 1 0
BITMAP
78
00
FC
30
30
30
30
30
30
FC
ENDCHAR
STARTCHAR u+12b
ENCODING 299
SWIDTH 500 0
DWIDTH 8 0
BBX 8 8 0 0
BITMAP
3C
00
78
18
18
18
18
FF
ENDCHAR
STARTCHAR u+12c
ENCODING 300
SWIDTH 500 0
DWIDTH 8 0
BBX 6 11 1 0
BITMAP
48
30
00
FC
30
30
30
30
30
30
FC
ENDCHAR
STARTCHAR u+12d
ENCODING 301
SWIDTH 500 0
DWIDTH 8 0
BBX 8 9 0 0
BITMAP
24
18
00
78
18
18
18
18
FF
ENDCHAR
STARTCHAR u+12e
ENCODING 302
SWIDTH 500 0
DWIDTH 8 0
BBX 6 10 1 -2
BITMAP
FC
30
30
30
30
30
30
FC
20
38
ENDCHAR
STARTCHAR u+12f
ENCODING 303
SWIDTH 500 0
DWIDTH 8 0
BBX 6 11 1 -2
BITMAP
30
30
00
F0
30
30
30
30
FC
20
38
ENDCHAR
STARTCHAR u+130
ENCODING 304
SWIDTH 500 0
DWIDTH 8 0
BBX 6 11 1 0
BITMAP
30
30
00
FC
30
30
30
30
30
30
FC
ENDCHAR
STARTCHAR u+131
ENCODING 305
SWIDTH 500 0
DWIDTH 8 0
BBX 8 6 0 0
BITMAP
78
18
18
18
18
FF
ENDCHAR
STARTCHAR u+132
ENCODING 306
SWIDTH 500 0
DWIDTH 8 0
BBX 9 8 -1 0
BITMAP
F780
6300
6300
6300
6300
6B00
6B00
FE00
ENDCHAR
STARTCHAR u+133
ENCODING 307
SWIDTH 500 0
DWIDTH 8 0
BBX 8 12 -1 -3
BITMAP
33
33
00
FF
33
33
33
33
FB
03
03
1E
ENDCHAR
STARTCHAR u+134
ENCODING 308
SWIDTH 500 0
DWIDTH 8 0
BBX 8 11 0 0
BITMAP
0C
12
00
7F
0C
0C
0C
CC
CC
CC
F8
ENDCHAR
STARTCHAR u+135
ENCODING 309
SWIDTH 500 0
DWIDTH 8 0
BBX 6 12 0 -3
BITMAP
30
48
00
FC
0C
0C
0C
0C
0C
0C
0C
F8
ENDCHAR
STARTCHAR u+136
ENCODING 310
SWIDTH 500 0
DWIDTH 8 0
BBX 8 11 0 -3
BITMAP
F7
66
6C
78
7C
66
66
F3
00
08
18
ENDCHAR
STARTCHAR u+137
ENCODING 311
SWIDTH 500 0
DWIDTH 8 0
BBX 8 12 0 -3
BITMAP
E0
60
60
6E
6C
78
7C
66
EF
00
08
18
ENDCHAR
STARTCHAR u+138
ENCODING 312
SWIDTH 500 0
DWIDTH 8 0
BBX 8 6 0 0
BITMAP
F7
6C
78
6C
6C
F7
ENDCHAR
STARTCHAR u+139
ENCODING 313
SWIDTH 500 0
DWIDTH 8 0
BBX 7 11 0 0
BITMAP
10
20
00
F0
60
60
60
60
62
62
FE
ENDCHAR
STARTCHAR u+13a
ENCODING 314
SWIDTH 500 0
DWIDTH 8 0
BBX 8 12 0 0
BITMAP
08
10
00
78
18
18
18
18
18
18
18
FF
ENDCHAR
STARTCHAR u+13b
ENCODING 315
SWIDTH 500 0
DWIDTH 8 0
BBX 7 11 0 -3
BITMAP
F0
60
60
60
60
62
62
FE
00
08
18
ENDCHAR
STARTCHAR u+13c
ENCODING 316
SWIDTH 500 0
DWIDTH 8 0
BBX 8 12 0 -3
BITMAP
78
18
18
18
18
18
18
18
FF
00
08
18
ENDCHAR
STARTCHAR u+13d
ENCODING 317
SWIDTH 500 0
DWIDTH 8 0
BBX 7 8 0 0
BITMAP
F6
62
64
60
60
62
62
FE
ENDCHAR
STARTCHAR u+13e
ENCODING 318
SWIDTH 500 0
DWIDTH 8 0
BBX 8 9 0 0
BITMAP
7B
19
1A
18
18
18
18
18
FF
ENDCHAR
STARTCHAR u+13f
ENCODING 319
SWIDTH 500 0
DWIDTH 8 0
BBX 7 8 0 0
BITMAP
F0
60
6C
6C
60
62
62
FE
ENDCHAR
STARTCHAR u+140
ENCODING 320
SWIDTH 500 0
DWIDTH 8 0
BBX 8 9 0 0
BITMAP
78
18
18
1B
1B
18
18
18
FF
ENDCHAR
STARTCHAR u+141
ENCODING 321
SWIDTH 500 0
DWIDTH 8 0
BBX 7 8 0 0
BITMAP
FC
30
34
38
70
B2
32
FE
ENDCHAR
STARTCHAR u+142
ENCODING 322
SWIDTH 500 0
DWIDTH 8 0
BBX 8 9 0 0
BITMAP
78
18
18
1E
38
58
18
18
FF
ENDCHAR
STARTCHAR u+143
ENCODING 323
SWIDTH 500 0
DWIDTH 8 0
BBX 8 11 0 0
BITMAP
04
08
00
EF
66
76
76
6E
6E
66
F6
ENDCHAR
STARTCHAR u+144
ENCODING 324
SWIDTH 500 0
DWIDTH 8 0
BBX 8 9 0 0
BITMAP
08
10
00
FC
66
66
66
66
E7
ENDCHAR
STARTCHAR u+145
ENCODING 325
SWIDTH 500 0
DWIDTH 8 0
BBX 8 11 0 -3
BITMAP
EF
66
76
76
6E
6E
66
F6
00
08
18
ENDCHAR
STARTCHAR u+146
ENCODING 326
SWIDTH 500 0
DWIDTH 8 0
BBX 8 9 0 -3
BITMAP
FC
66
66
66
66
E7
00
08
18
ENDCHAR
STARTCHAR u+147
ENCODING 327
SWIDTH 500 0
DWIDTH 8 0
BBX 8 11 0 0
BITMAP
24
18
00
EF
66
76
76
6E
6E
66
F6
ENDCHAR
STARTCHAR u+148
ENCODING 328
SWIDTH 500 0
DWIDTH 8 0
BBX 8 9 0 0
BITMAP
24
18
00
FC
66
66
66
66
E7
ENDCHAR
STARTCHAR u+149
ENCODING 329
SWIDTH 500 0
DWIDTH 8 0
BBX 8 8 0 0
BITMAP
60
40
FC
B6
36
36
36
77
ENDCHAR
STARTCHAR u+14a
ENCODING 330
SWIDTH 500 0
DWIDTH 8 0
BBX 7 8 0 0
BITMAP
EC
76
66
66
66
66
66
EC
ENDCHAR
STARTCHAR u+14b
ENCODING 331
SWIDTH 500 0
DWIDTH 8 0
BBX 7 9 0 -3
BITMAP
FC
66
66
66
66
F6
06
06
3C
ENDCHAR
STARTCHAR u+14c
ENCODING 332
SWIDTH 500 0
DWIDTH 8 0
BBX 6 10 1 0
BITMAP
78
00
78
CC
CC
CC
CC
CC
CC
78
ENDCHAR
STARTCHAR u+14d
ENCODING 333
SWIDTH 500 0
DWIDTH 8 0
BBX 6 8 1 0
BITMAP
78
00
78
CC
CC
CC
CC
78
ENDCHAR
STARTCHAR u+14e
ENCODING 334
SWIDTH 500 0
DWIDTH 8 0
BBX 6 11 1 0
BITMAP
48
30
00
78
CC
CC
CC
CC
CC
CC
78
ENDCHAR
STARTCHAR u+14f
ENCODING 335
SWIDTH 500 0
DWIDTH 8 0
BBX 6 9 1 0
BITMAP
48
30
00
78
CC
CC
CC
CC
78
ENDCHAR
STARTCHAR u+150
ENCODING 336
SWIDTH 500 0
DWIDTH 8 0
BBX 6 11 1 0
BITMAP
14
28
00
78
CC
CC
CC
CC
CC
CC
78
ENDCHAR
STARTCHAR u+151
ENCODING 337
SWIDTH 500 0
DWIDTH 8 0
BBX 6 9 1 0
BITMAP
14
28
00
78
CC
CC
CC
CC
78
ENDCHAR
STARTCHAR u+152
ENCODING 338
SWIDTH 500 0
DWIDTH 8 0
BBX 8 8 0 0
BITMAP
3F
6D
CC
CE
CC
CC
6D
3F
ENDCHAR
STARTCHAR u+153
ENCODING 339
SWIDTH 500 0
DWIDTH 8 0
BBX 8 6 0 0
BITMAP
6E
DB
DB
DF
D8
6F
ENDCHAR
STARTCHAR u+154
ENCODING 340
SWIDTH 500 0
DWIDTH 8 0
BBX 8 11 0 0
BITMAP
08
10
00
FC
66
66
66
7C
6C
66
F3
ENDCHAR
STARTCHAR u+155
ENCODING 341
SWIDTH 500 0
DWIDTH 8 0
BBX 7 9 0 0
BITMAP
08
10
00
F6
3A
30
30
30
FE
ENDCHAR
STARTCHAR u+156
ENCODING 342
SWIDTH 500 0
DWIDTH 8 0
BBX 8 11 0 -3
BITMAP
FC
66
66
66
7C
6C
66
F3
00
08
18
ENDCHAR
STARTCHAR u+157
ENCODING 343
SWIDTH 500 0
DWIDTH 8 0
BBX 7 9 0 -3
BITMAP
F6
3A
30
30
30
FE
00
10
30
ENDCHAR
STARTCHAR u+158
ENCODING 344
SWIDTH 500 0
DWIDTH 8 0
BBX 8 11 0 0
BITMAP
24
18
00
FC
66
66
66
7C
6C
66
F3
ENDCHAR
STARTCHAR u+159
ENCODING 345
SWIDTH 500 0
DWIDTH 8 0
BBX 7 9 0 0
BITMAP
12
0C
00
F6
3A
30
30
30
FE
ENDCHAR
STARTCHAR u+15a
ENCODING 346
SWIDTH 500 0
DWIDTH 8 0
BBX 6 11 1 0
BITMAP
10
20
00
7C
CC
C0
70
38
0C
CC
F8
ENDCHAR
STARTCHAR u+15b
ENCODING 347
SWIDTH 500 0
DWIDTH 8 0
BBX 6 9 1 0
BITMAP
10
20
00
7C
CC
F0
3C
CC
F8
ENDCHAR
STARTCHAR u+15c
ENCODING 348
SWIDTH 500 0
DWIDTH 8 0
BBX 6 11 1 0
BITMAP
30
48
00
7C
CC
C0
70
38
0C
CC
F8
ENDCHAR
STARTCHAR u+15d
ENCODING 349
SWIDTH 500 0
DWIDTH 8 0
BBX 6 9 1 0
BITMAP
30
48
00
7C
CC
F0
3C
CC
F8
ENDCHAR
STARTCHAR u+15e
ENCODING 350
SWIDTH 500 0
DWIDTH 8 0
BBX 6 12 1 -4
BITMAP
7C
CC
C0
70
38
0C
CC
F8
10
18
08
38
ENDCHAR
STARTCHAR u+15f
ENCODING 351
SWIDTH 500 0
DWIDTH 8 0
BBX 6 10 1 -4
BITMAP
7C
CC
F0
3C
CC
F8
20
30
10
70
ENDCHAR
STARTCHAR u+160
ENCODING 352
SWIDTH 500 0
DWIDTH 8 0
BBX 6 11 1 0
BITMAP
48
30
00
7C
CC
C0
70
38
0C
CC
F8
ENDCHAR
STARTCHAR u+161
ENCODING 353
SWIDTH 500 0
DWIDTH 8 0
BBX 6 9 1 0
BITMAP
48
30
00
7C
CC
F0
3C
CC
F8
ENDCHAR
STARTCHAR u+162
ENCODING 354
SWIDTH 500 0
DWIDTH 8 0
BBX 6 12 1 -4
BITMAP
FC
B4
B4
30
30
30
30
78
10
18
08
38
ENDCHAR
STARTCHAR u+163
ENCODING 355
SWIDTH 500 0
DWIDTH 8 0
BBX 6 12 1 -4
BITMAP
60
60
F8
60
60
60
64
38
10
18
08
38
ENDCHAR
STARTCHAR u+164
ENCODING 356
SWIDTH 500 0
DWIDTH 8 0
BBX 6 11 1 0
BITMAP
48
30
00
FC
B4
B4
30
30
30
30
78
ENDCHAR
STARTCHAR u+165
ENCODING 357
SWIDTH 500 0
DWIDTH 8 0
BBX 8 9 0 0
BITMAP
03
31
32
FE
30
30
30
32
1C
ENDCHAR
STARTCHAR u+166
ENCODING 358
SWIDTH 500 0
DWIDTH 8 0
BBX 6 8 1 0
BITMAP
FC
B4
B4
30
78
30
30
78
ENDCHAR
STARTCHAR u+167
ENCODING 359
SWIDTH 500 0
DWIDTH 8 0
BBX 6 8 1 0
BITMAP
60
60
F8
60
F0
60
64
38
ENDCHAR
STARTCHAR u+168
ENCODING 360
SWIDTH 500 0
DWIDTH 8 0
BBX 8 11 0 0
BITMAP
34
2C
00
E7
66
66
66
66
66
66
3C
ENDCHAR
STARTCHAR u+169
ENCODING 361
SWIDTH 500 0
DWIDTH 8 0
BBX 8 9 0 0
BITMAP
34
2C
00
EE
66
66
66
66
3F
ENDCHAR
STARTCHAR u+16a
ENCODING 362
SWIDTH 500 0
DWIDTH 8 0
BBX 8 10 0 0
BITMAP
3C
00
E7
66
66
66
66
66
66
3C
ENDCHAR
STARTCHAR u+16b
ENCODING 363
SWIDTH 500 0
DWIDTH 8 0
BBX 8 8 0 0
BITMAP
3C
00
EE
66
66
66
66
3F
ENDCHAR
STARTCHAR u+16c
ENCODING 364
SWIDTH 500 0
DWIDTH 8 0
BBX 8 11 0 0
BITMAP
24
18
00
E7
66
66
66
66
66
66
3C
ENDCHAR
STARTCHAR u+16d
ENCODING 365
SWIDTH 500 0
DWIDTH 8 0
BBX 8 9 0 0
BITMAP
24
18
00
EE
66
66
66
66
3F
ENDCHAR
STARTCHAR u+16e
ENCODING 366
SWIDTH 500 0
DWIDTH 8 0
BBX 8 12 0 0
BITMAP
38
28
38
00
E7
66
66
66
66
66
66
3C
ENDCHAR
STARTCHAR u+16f
ENCODING 367
SWIDTH 500 0
DWIDTH 8 0
BBX 8 10 0 0
BITMAP
38
28
38
00
EE
66
66
66
66
3F
ENDCHAR
STARTCHAR u+170
ENCODING 368
SWIDTH 500 0
DWIDTH 8 0
BBX 8 11 0 0
BITMAP
0A
14
00
E7
66
66
66
66
66
66
3C
ENDCHAR
STARTCHAR u+171
ENCODING 369
SWIDTH 500 0
DWIDTH 8 0
BBX 8 9 0 0
BITMAP
0A
14
00
EE
66
66
66
66
3F
ENDCHAR
STARTCHAR u+172
ENCODING 370
SWIDTH 500 0
DWIDTH 8 0
BBX 8 10 0 -2
BITMAP
E7
66
66
66
66
66
66
3C
10
1C
ENDCHAR
STARTCHAR u+173
ENCODING 371
SWIDTH 500 0
DWIDTH 8 0
BBX 8 8 0 -2
BITMAP
EE
66
66
66
66
3F
04
07
ENDCHAR
STARTCHAR u+174
ENCODING 372
SWIDTH 500 0
DWIDTH 8 0
BBX 9 11 -1 0
BITMAP
0C00
1200
0000
F780
6300
6B00
7F00
7700
3600
3600
3600
ENDCHAR
STARTCHAR u+175
ENCODING 373
SWIDTH 500 0
DWIDTH 8 0
BBX 9 9 -1 0
BITMAP
0C00
1200
0000
E380
6B00
7F00
3600
3600
2200
ENDCHAR
STARTCHAR u+176
ENCODING 374
SWIDTH 500 0
DWIDTH 8 0
BBX 8 11 0 0
BITMAP
18
24
00
EF
66
24
3C
18
18
18
7E
ENDCHAR
STARTCHAR u+177
ENCODING 375
SWIDTH 500 0
DWIDTH 8 0
BBX 8 12 0 -3
BITMAP
18
24
00
F7
66
64
2C
38
18
30
30
F8
ENDCHAR
STARTCHAR u+178
ENCODING 376
SWIDTH 500 0
DWIDTH 8 0
BBX 8 10 0 0
BITMAP
24
00
EF
66
24
3C
18
18
18
7E
ENDCHAR
STARTCHAR u+179
ENCODING 377
SWIDTH 500 0
DWIDTH 8 0
BBX 6 11 1 0
BITMAP
10
20
00
FC
8C
98
30
30
64
C4
FC
ENDCHAR
STARTCHAR u+17a
ENCODING 378
SWIDTH 500 0
DWIDTH 8 0
BBX 6 9 1 0
BITMAP
10
20
00
FC
98
30
60
C4
FC
ENDCHAR
STARTCHAR u+17b
ENCODING 379
SWIDTH 500 0
DWIDTH 8 0
BBX 6 11 1 0
BITMAP
30
30
00
FC
8C
98
30
30
64
C4
FC
ENDCHAR
STARTCHAR u+17c
ENCODING 380
SWIDTH 500 0
DWIDTH 8 0
BBX 6 9 1 0
BITMAP
30
30
00
FC
98
30
60
C4
FC
ENDCHAR
STARTCHAR u+17d
ENCODING 381
SWIDTH 500 0
DWIDTH 8 0
BBX 6 11 1 0
BITMAP
48
30
00
FC
8C
98
30
30
64
C4
FC
ENDCHAR
STARTCHAR u+17e
ENCODING 382
SWIDTH 500 0
DWIDTH 8 0
BBX 6 9 1 0
BITMAP
48
30
00
FC
98
30
60
C4
FC
ENDCHAR
STARTCHAR u+17f
ENCODING 383
SWIDTH 500 0
DWIDTH 8 0
BBX 7 9 1 0
BITMAP
1E
30
30
F0
30
30
30
30
FC
ENDCHAR
STARTCHAR u+180
ENCODING 384
SWIDTH 500 0
DWIDTH 8 0
BBX 7 9 0 0
BITMAP
E0
60
F0
7C
66
66
66
66
FC
ENDCHAR
STARTCHAR u+181
ENCODING 385
SWIDTH 500 0
DWIDTH 8 0
BBX 8 8 0 0
BITMAP
7E
B3
B3
3E
33
33
33
7E
ENDCHAR
STARTCHAR u+182
ENCODING 386
SWIDTH 500 0
DWIDTH 8 0
BBX 7 8 0 0
BITMAP
FE
62
60
7C
66
66
66
FC
ENDCHAR
STARTCHAR u+183
ENCODING 387
SWIDTH 500 0
DWIDTH 8 0
BBX 7 9 0 0
BITMAP
FC
64
60
7C
66
66
66
66
FC
ENDCHAR
STARTCHAR u+184
ENCODING 388
SWIDTH 500 0
DWIDTH 8 0
BBX 8 8 0 0
BITMAP
60
E0
E0
7E
63
63
63
FE
ENDCHAR
STARTCHAR u+185
ENCODING 389
SWIDTH 500 0
DWIDTH 8 0
BBX 7 9 0 0
BITMAP
20
60
E0
7C
66
66
66
66
FC
ENDCHAR
STARTCHAR u+186
ENCODING 390
SWIDTH 500 0
DWIDTH 8 0
BBX 6 8 1 0
BITMAP
70
98
0C
0C
0C
8C
98
F0
ENDCHAR
STARTCHAR u+187
ENCODING 391
SWIDTH 500 0
DWIDTH 8 0
BBX 7 9 1 0
BITMAP
06
3C
64
C4
C0
C0
C0
64
38
ENDCHAR
STARTCHAR u+188
ENCODING 392
SWIDTH 500 0
DWIDTH 8 0
BBX 7 7 1 0
BITMAP
06
7C
C4
C0
C0
C4
78
ENDCHAR
STARTCHAR u+189
ENCODING 393
SWIDTH 500 0
DWIDTH 8 0
BBX 7 8 0 0
BITMAP
F8
6C
66
F6
66
66
6C
F8
ENDCHAR
STARTCHAR u+18a
ENCODING 394
SWIDTH 500 0
DWIDTH 8 0
BBX 8 8 0 0
BITMAP
7C
B6
B3
33
33
33
36
7C
ENDCHAR
STARTCHAR u+18b
ENCODING 395
SWIDTH 500 0
DWIDTH 8 0
BBX 7 8 1 0
BITMAP
FE
8C
0C
7C
CC
CC
CC
7E
ENDCHAR
STARTCHAR u+18c
ENCODING 396
SWIDTH 500 0
DWIDTH 8 0
BBX 7 9 1 0
BITMAP
7E
4C
0C
7C
CC
CC
CC
CC
7E
ENDCHAR
STARTCHAR u+18d
ENCODING 397
SWIDTH 500 0
DWIDTH 8 0
BBX 6 9 1 -3
BITMAP
78
CC
CC
CC
CC
70
30
18
78
ENDCHAR
STARTCHAR u+18e
ENCODING 398
SWIDTH 500 0
DWIDTH 8 0
BBX 7 8 1 0
BITMAP
FE
8C
AC
3C
2C
8C
8C
FE
ENDCHAR
STARTCHAR u+18f
ENCODING 399
SWIDTH 500 0
DWIDTH 8 0
BBX 6 8 1 0
BITMAP
F8
DC
CC
0C
FC
CC
C8
78
ENDCHAR
STARTCHAR u+190
ENCODING 400
SWIDTH 500 0
DWIDTH 8 0
BBX 7 9 1 0
BITMAP
04
7C
C4
C0
78
C0
C0
C6
7C
ENDCHAR
STARTCHAR u+191
ENCODING 401
SWIDTH 500 0
DWIDTH 8 0
BBX 8 11 0 -3
BITMAP
7F
31
35
3C
34
30
30
30
30
30
E0
ENDCHAR
STARTCHAR u+192
ENCODING 402
SWIDTH 500 0
DWIDTH 8 0
BBX 8 11 0 -2
BITMAP
0F
18
18
7E
18
18
18
18
18
18
F0
ENDCHAR
STARTCHAR u+193
ENCODING 403
SWIDTH 500 0
DWIDTH 8 0
BBX 7 9 1 0
BITMAP
06
7C
C4
C4
C0
DE
CC
CC
78
ENDCHAR
STARTCHAR u+194
ENCODING 404
SWIDTH 500 0
DWIDTH 8 0
BBX 8 11 0 -3
BITMAP
EF
66
66
3C
3C
18
18
18
3C
24
3C
ENDCHAR
STARTCHAR u+195
ENCODING 405
SWIDTH 500 0
DWIDTH 8 0
BBX 9 9 -1 0
BITMAP
E000
6000
6000
7980
6D80
6D80
6D80
6D80
E700
ENDCHAR
STARTCHAR u+196
ENCODING 406
SWIDTH 500 0
DWIDTH 8 0
BBX 6 8 1 0
BITMAP
FC
30
30
30
30
30
30
FC
ENDCHAR
STARTCHAR u+197
ENCODING 407
SWIDTH 500 0
DWIDTH 8 0
BBX 6 8 1 0
BITMAP
FC
30
30
FC
30
30
30
FC
ENDCHAR
STARTCHAR u+198
ENCODING 408
SWIDTH 500 0
DWIDTH 8 0
BBX 8 8 0 0
BITMAP
37
66
6C
78
7C
6C
66
F7
ENDCHAR
STARTCHAR u+199
ENCODING 409
SWIDTH 500 0
DWIDTH 8 0
BBX 8 9 0 0
BITMAP
38
60
60
6F
6C
78
78
6C
E7
ENDCHAR
STARTCHAR u+19a
ENCODING 410
SWIDTH 500 0
DWIDTH 8 0
BBX 6 9 1 0
BITMAP
F0
30
30
30
FC
30
30
30
FC
ENDCHAR
STARTCHAR u+19b
ENCODING 411
SWIDTH 500 0
DWIDTH 8 0
BBX 8 9 0 0
BITMAP
74
18
78
1C
1C
3C
36
66
EF
ENDCHAR
STARTCHAR u+19c
ENCODING 412
SWIDTH 500 0
DWIDTH 8 0
BBX 10 8 -1 0
BITMAP
EDC0
6D80
6D80
6D80
6D80
6D80
6D80
37C0
ENDCHAR
STARTCHAR u+19d
ENCODING 413
SWIDTH 500 0
DWIDTH 8 0
BBX 8 11 0 -3
BITMAP
EF
76
76
76
6E
6E
6E
66
60
60
E0
ENDCHAR
STARTCHAR u+19e
ENCODING 414
SWIDTH 500 0
DWIDTH 8 0
BBX 8 9 0 -3
BITMAP
FC
66
66
66
66
E6
06
06
0F
ENDCHAR
STARTCHAR u+19f
ENCODING 415
SWIDTH 500 0
DWIDTH 8 0
BBX 6 8 1 0
BITMAP
78
CC
CC
FC
CC
CC
CC
78
ENDCHAR
STARTCHAR u+1a0
ENCODING 416
SWIDTH 500 0
DWIDTH 8 0
BBX 7 8 1 0
BITMAP
7A
CE
CC
CC
CC
CC
CC
78
ENDCHAR
STARTCHAR u+1a1
ENCODING 417
SWIDTH 500 0
DWIDTH 8 0
BBX 7 6 1 0
BITMAP
7A
CE
CC
CC
CC
78
ENDCHAR
STARTCHAR u+1a2
ENCODING 418
SWIDTH 500 0
DWIDTH 8 0
BBX 8 11 0 -3
BITMAP
7F
D6
D6
D6
D6
D6
D6
76
06
06
0F
ENDCHAR
STARTCHAR u+1a3
ENCODING 419
SWIDTH 500 0
DWIDTH 8 0
BBX 8 9 0 -3
BITMAP
7F
B6
B6
B6
B6
76
06
06
0F
ENDCHAR
STARTCHAR u+1a4
ENCODING 420
SWIDTH 500 0
DWIDTH 8 0
BBX 7 8 0 0
BITMAP
7C
B6
B6
36
3C
30
30
7C
ENDCHAR
STARTCHAR u+1a5
ENCODING 421
SWIDTH 500 0
DWIDTH 8 0
BBX 7 12 0 -3
BITMAP
38
60
60
7C
66
66
66
66
7C
60
60
F8
ENDCHAR
STARTCHAR u+1a6
ENCODING 422
SWIDTH 500 0
DWIDTH 8 0
BBX 8 9 0 -1
BITMAP
F0
60
7C
66
66
7C
6C
E6
03
ENDCHAR
STARTCHAR u+1a7
ENCODING 423
SWIDTH 500 0
DWIDTH 8 0
BBX 6 8 1 0
BITMAP
F8
8C
0C
3C
F0
C0
C4
7C
ENDCHAR
STARTCHAR u+1a8
ENCODING 424
SWIDTH 500 0
DWIDTH 8 0
BBX 6 6 1 0
BITMAP
F8
8C
3C
F0
C4
7C
ENDCHAR
STARTCHAR u+1a9
ENCODING 425
SWIDTH 500 0
DWIDTH 8 0
BBX 6 8 1 0
BITMAP
FC
C4
64
30
30
64
C4
FC
ENDCHAR
STARTCHAR u+1aa
ENCODING 426
SWIDTH 500 0
DWIDTH 8 0
BBX 6 11 1 -2
BITMAP
60
90
90
70
30
30
30
30
30
30
1C
ENDCHAR
STARTCHAR u+1ab
ENCODING 427
SWIDTH 500 0
DWIDTH 8 0
BBX 7 11 0 -3
BITMAP
60
60
FC
60
60
60
62
3E
06
06
0C
ENDCHAR
STARTCHAR u+1ac
ENCODING 428
SWIDTH 500 0
DWIDTH 8 0
BBX 8 8 0 0
BITMAP
7F
99
99
18
18
18
18
7E
ENDCHAR
STARTCHAR u+1ad
ENCODING 429
SWIDTH 500 0
DWIDTH 8 0
BBX 6 9 1 0
BITMAP
38
60
60
F8
60
60
60
64
38
ENDCHAR
STARTCHAR u+1ae
ENCODING 430
SWIDTH 500 0
DWIDTH 8 0
BBX 6 11 1 -3
BITMAP
FC
B4
B4
30
30
30
30
30
30
30
1C
ENDCHAR
STARTCHAR u+1af
ENCODING 431
SWIDTH 500 0
DWIDTH 8 0
BBX 9 10 0 0
BITMAP
0080
0080
F700
6600
6600
6600
6600
6600
6600
3C00
ENDCHAR
STARTCHAR u+1b0
ENCODING 432
SWIDTH 500 0
DWIDTH 8 0
BBX 9 6 0 0
BITMAP
EE80
6780
6600
6600
6600
3F00
ENDCHAR
STARTCHAR u+1b1
ENCODING 433
SWIDTH 500 0
DWIDTH 8 0
BBX 7 8 0 0
BITMAP
EE
6C
C6
C6
C6
C6
6C
38
ENDCHAR
STARTCHAR u+1b2
ENCODING 434
SWIDTH 500 0
DWIDTH 8 0
BBX 7 8 0 0
BITMAP
EC
66
66
66
66
66
64
38
ENDCHAR
STARTCHAR u+1b3
ENCODING 435
SWIDTH 500 0
DWIDTH 8 0
BBX 9 8 0 0
BITMAP
F780
6600
3C00
3C00
1800
1800
1800
7E00
ENDCHAR
STARTCHAR u+1b4
ENCODING 436
SWIDTH 500 0
DWIDTH 8 0
BBX 8 12 0 -3
BITMAP
03
06
06
EC
6C
6C
78
38
38
30
30
F8
ENDCHAR
STARTCHAR u+1b5
ENCODING 437
SWIDTH 500 0
DWIDTH 8 0
BBX 6 8 1 0
BITMAP
FC
8C
18
FC
30
60
C4
FC
ENDCHAR
STARTCHAR u+1b6
ENCODING 438
SWIDTH 500 0
DWIDTH 8 0
BBX 6 6 1 0
BITMAP
FC
98
7C
30
64
FC
ENDCHAR
STARTCHAR u+1b7
ENCODING 439
SWIDTH 500 0
DWIDTH 8 0
BBX 6 11 1 -3
BITMAP
FC
8C
98
30
38
1C
0C
0C
0C
98
70
ENDCHAR
STARTCHAR u+1b8
ENCODING 440
SWIDTH 500 0
DWIDTH 8 0
BBX 6 11 1 -3
BITMAP
FC
C4
64
30
70
C0
C0
C0
C0
64
38
ENDCHAR
STARTCHAR u+1b9
ENCODING 441
SWIDTH 500 0
DWIDTH 8 0
BBX 6 9 1 -3
BITMAP
F8
68
60
30
70
C0
C0
C4
78
ENDCHAR
STARTCHAR u+1ba
ENCODING 442
SWIDTH 500 0
DWIDTH 8 0
BBX 6 9 1 -3
BITMAP
FC
98
30
3C
0C
78
C0
C4
78
ENDCHAR
STARTCHAR u+1bb
ENCODING 443
SWIDTH 500 0
DWIDTH 8 0
BBX 6 8 1 0
BITMAP
78
CC
CC
0C
FC
30
60
FC
ENDCHAR
STARTCHAR u+1bc
ENCODING 444
SWIDTH 500 0
DWIDTH 8 0
BBX 6 8 1 0
BITMAP
FC
64
78
4C
0C
0C
8C
78
ENDCHAR
STARTCHAR u+1bd
ENCODING 445
SWIDTH 500 0
DWIDTH 8 0
BBX 6 6 1 0
BITMAP
FC
64
78
0C
8C
78
ENDCHAR
STARTCHAR u+1be
ENCODING 446
SWIDTH 500 0
DWIDTH 8 0
BBX 6 8 1 0
BITMAP
60
60
F8
60
70
1C
8C
F8
ENDCHAR
STARTCHAR u+1bf
ENCODING 447
SWIDTH 500 0
DWIDTH 8 0
BBX 7 9 0 -3
BITMAP
EC
76
66
66
66
6C
78
60
E0
ENDCHAR
STARTCHAR u+1c0
ENCODING 448
SWIDTH 500 0
DWIDTH 8 0
BBX 2 9 3 0
BITMAP
C0
C0
C0
C0
C0
C0
C0
C0
C0
ENDCHAR
STARTCHAR u+1c1
ENCODING 449
SWIDTH 500 0
DWIDTH 8 0
BBX 5 9 2 0
BITMAP
D8
D8
D8
D8
D8
D8
D8
D8
D8
ENDCHAR
STARTCHAR u+1c2
ENCODING 450
SWIDTH 500 0
DWIDTH 8 0
BBX 8 9 0 0
BITMAP
18
18
18
FF
18
FF
18
18
18
ENDCHAR
STARTCHAR u+1c3
ENCODING 451
SWIDTH 500 0
DWIDTH 8 0
BBX 2 9 3 0
BITMAP
C0
C0
C0
C0
C0
C0
C0
00
C0
ENDCHAR
STARTCHAR u+1c4
ENCODING 452
SWIDTH 500 0
DWIDTH 8 0
BBX 9 11 -1 0
BITMAP
0280
0100
0000
F380
6980
6D80
6D00
6D00
6F00
6B00
F380
ENDCHAR
STARTCHAR u+1c5
ENCODING 453
SWIDTH 500 0
DWIDTH 8 0
BBX 9 9 -1 0
BITMAP
0280
F100
6800
6F80
6D80
6D00
6D00
6B00
F380
ENDCHAR
STARTCHAR u+1c6
ENCODING 454
SWIDTH 500 0
DWIDTH 8 0
BBX 8 9 0 0
BITMAP
3D
1A
18
7F
DB
DA
DA
DE
7F
ENDCHAR
STARTCHAR u+1c7
ENCODING 455
SWIDTH 500 0
DWIDTH 8 0
BBX 10 8 -1 0
BITMAP
F3C0
6180
6180
6180
6180
6D80
6D80
FB00
ENDCHAR
STARTCHAR u+1c8
ENCODING 456
SWIDTH 500 0
DWIDTH 8 0
BBX 8 12 0 -3
BITMAP
06
F6
60
6F
63
63
6B
6B
FB
03
03
1E
ENDCHAR
STARTCHAR u+1c9
ENCODING 457
SWIDTH 500 0
DWIDTH 8 0
BBX 7 12 0 -3
BITMAP
E6
66
60
6E
66
66
66
66
F6
06
06
3C
ENDCHAR
STARTCHAR u+1ca
ENCODING 458
SWIDTH 500 0
DWIDTH 8 0
BBX 9 8 -1 0
BITMAP
CD80
6980
6980
6980
5980
5D80
5D80
CB00
ENDCHAR
STARTCHAR u+1cb
ENCODING 459
SWIDTH 500 0
DWIDTH 8 0
BBX 9 12 -1 -3
BITMAP
0180
CD80
6800
6B80
6980
5980
5980
5980
C980
0180
0180
0F00
ENDCHAR
STARTCHAR u+1cc
ENCODING 460
SWIDTH 500 0
DWIDTH 8 0
BBX 8 12 0 -3
BITMAP
06
06
00
F7
DB
DB
DB
DB
DB
03
03
1E
ENDCHAR
STARTCHAR u+1cd
ENCODING 461
SWIDTH 500 0
DWIDTH 8 0
BBX 9 11 0 0
BITMAP
2400
1800
0000
7C00
1C00
3600
3600
3600
7F00
6300
F780
ENDCHAR
STARTCHAR u+1ce
ENCODING 462
SWIDTH 500 0
DWIDTH 8 0
BBX 7 9 1 0
BITMAP
48
30
00
78
0C
7C
CC
CC
7E
ENDCHAR
STARTCHAR u+1cf
ENCODING 463
SWIDTH 500 0
DWIDTH 8 0
BBX 6 11 1 0
BITMAP
48
30
00
FC
30
30
30
30
30
30
FC
ENDCHAR
STARTCHAR u+1d0
ENCODING 464
SWIDTH 500 0
DWIDTH 8 0
BBX 8 9 0 0
BITMAP
24
18
00
78
18
18
18
18
FF
ENDCHAR
STARTCHAR u+1d1
ENCODING 465
SWIDTH 500 0
DWIDTH 8 0
BBX 6 11 1 0
BITMAP
48
30
00
78
CC
CC
CC
CC
CC
CC
78
ENDCHAR
STARTCHAR u+1d2
ENCODING 466
SWIDTH 500 0
DWIDTH 8 0
BBX 6 9 1 0
BITMAP
48
30
00
78
CC
CC
CC
CC
78
ENDCHAR
STARTCHAR u+1d3
ENCODING 467
SWIDTH 500 0
DWIDTH 8 0
BBX 8 11 0 0
BITMAP
24
18
00
E7
66
66
66
66
66
66
3C
ENDCHAR
STARTCHAR u+1d4
ENCODING 468
SWIDTH 500 0
DWIDTH 8 0
BBX 8 9 0 0
BITMAP
24
18
00
EE
66
66
66
66
3F
ENDCHAR
STARTCHAR u+1d5
ENCODING 469
SWIDTH 500 0
DWIDTH 8 0
BBX 8 12 0 0
BITMAP
3C
00
24
00
E7
66
66
66
66
66
66
3C
ENDCHAR
STARTCHAR u+1d6
ENCODING 470
SWIDTH 500 0
DWIDTH 8 0
BBX 8 10 0 0
BITMAP
3C
00
24
00
EE
66
66
66
66
3F
ENDCHAR
STARTCHAR u+1d7
ENCODING 471
SWIDTH 500 0
DWIDTH 8 0
BBX 8 12 0 0
BITMAP
04
08
22
00
E7
66
66
66
66
66
66
3C
ENDCHAR
STARTCHAR u+1d8
ENCODING 472
SWIDTH 500 0
DWIDTH 8 0
BBX 8 11 0 0
BITMAP
08
10
00
24
00
EE
66
66
66
66
3F
ENDCHAR
STARTCHAR u+1d9
ENCODING 473
SWIDTH 500 0
DWIDTH 8 0
BBX 8 12 0 0
BITMAP
28
10
44
00
E7
66
66
66
66
66
66
3C
ENDCHAR
STARTCHAR u+1da
ENCODING 474
SWIDTH 500 0
DWIDTH 8 0
BBX 8 11 0 0
BITMAP
24
18
00
24
00
EE
66
66
66
66
3F
ENDCHAR
STARTCHAR u+1db
ENCODING 475
SWIDTH 500 0
DWIDTH 8 0
BBX 8 12 0 0
BITMAP
10
08
22
00
E7
66
66
66
66
66
66
3C
ENDCHAR
STARTCHAR u+1dc
ENCODING 476
SWIDTH 500 0
DWIDTH 8 0
BBX 8 11 0 0
BITMAP
10
08
00
24
00
EE
66
66
66
66
3F
ENDCHAR
STARTCHAR u+1dd
ENCODING 477
SWIDTH 500 0
DWIDTH 8 0
BBX 7 6 0 0
BITMAP
FC
06
FE
C6
6E
38
ENDCHAR
STARTCHAR u+1de
ENCODING 478
SWIDTH 500 0
DWIDTH 8 0
BBX 9 12 0 0
BITMAP
3C00
0000
2400
0000
7C00
1C00
3600
3600
3600
7F00
6300
F780
ENDCHAR
STARTCHAR u+1df
ENCODING 479
SWIDTH 500 0
DWIDTH 8 0
BBX 7 10 1 0
BITMAP
3C
00
24
00
78
0C
7C
CC
CC
7E
ENDCHAR
STARTCHAR u+1e0
ENCODING 480
SWIDTH 500 0
DWIDTH 8 0
BBX 9 12 0 0
BITMAP
3E00
0000
0800
0000
7C00
1C00
3600
3600
3600
7F00
6300
F780
ENDCHAR
STARTCHAR u+1e1
ENCODING 481
SWIDTH 500 0
DWIDTH 8 0
BBX 7 11 1 0
BITMAP
78
00
30
30
00
78
0C
7C
CC
CC
7E
ENDCHAR
STARTCHAR u+1e2
ENCODING 482
SWIDTH 500 0
DWIDTH 8 0
BBX 9 10 -1 0
BITMAP
0F00
0000
3F80
1C80
2D00
2F00
2D00
7C00
4C80
FF80
ENDCHAR
STARTCHAR u+1e3
ENCODING 483
SWIDTH 500 0
DWIDTH 8 0
BBX 8 8 0 0
BITMAP
3C
00
7E
1B
7F
D8
D9
7E
ENDCHAR
STARTCHAR u+1e4
ENCODING 484
SWIDTH 500 0
DWIDTH 8 0
BBX 7 8 1 0
BITMAP
7C
C4
C4
C0
DE
DE
CC
78
ENDCHAR
STARTCHAR u+1e5
ENCODING 485
SWIDTH 500 0
DWIDTH 8 0
BBX 7 9 1 -3
BITMAP
7E
CC
CC
CC
7C
0C
FE
0C
78
ENDCHAR
STARTCHAR u+1e6
ENCODING 486
SWIDTH 500 0
DWIDTH 8 0
BBX 7 11 1 0
BITMAP
24
18
00
7C
C4
C4
C0
DE
CC
CC
78
ENDCHAR
STARTCHAR u+1e7
ENCODING 487
SWIDTH 500 0
DWIDTH 8 0
BBX 7 12 1 -3
BITMAP
48
30
00
6E
DC
CC
CC
DC
6C
0C
0C
78
ENDCHAR
STARTCHAR u+1e8
ENCODING 488
SWIDTH 500 0
DWIDTH 8 0
BBX 8 11 0 0
BITMAP
24
18
00
F7
66
6C
78
7C
66
66
F3
ENDCHAR
STARTCHAR u+1e9
ENCODING 489
SWIDTH 500 0
DWIDTH 8 0
BBX 8 11 0 0
BITMAP
12
0C
E0
60
60
6E
6C
78
7C
66
EF
ENDCHAR
STARTCHAR u+1ea
ENCODING 490
SWIDTH 500 0
DWIDTH 8 0
BBX 6 10 1 -2
BITMAP
78
CC
CC
CC
CC
CC
CC
78
20
38
ENDCHAR
STARTCHAR u+1eb
ENCODING 491
SWIDTH 500 0
DWIDTH 8 0
BBX 6 8 1 -2
BITMAP
78
CC
CC
CC
CC
78
20
38
ENDCHAR
STARTCHAR u+1ec
ENCODING 492
SWIDTH 500 0
DWIDTH 8 0
BBX 6 12 1 -2
BITMAP
78
00
78
CC
CC
CC
CC
CC
CC
78
20
38
ENDCHAR
STARTCHAR u+1ed
ENCODING 493
SWIDTH 500 0
DWIDTH 8 0
BBX 6 10 1 -2
BITMAP
78
00
78
CC
CC
CC
CC
78
20
38
ENDCHAR
STARTCHAR u+1ee
ENCODING 494
SWIDTH 500 0
DWIDTH 8 0
BBX 6 14 1 -3
BITMAP
48
30
00
FC
8C
98
30
38
1C
0C
0C
0C
98
70
ENDCHAR
STARTCHAR u+1ef
ENCODING 495
SWIDTH 500 0
DWIDTH 8 0
BBX 4 2 2 7
BITMAP
90
60
ENDCHAR
STARTCHAR u+1f0
ENCODING 496
SWIDTH 500 0
DWIDTH 8 0
BBX 6 12 0 -3
BITMAP
48
30
00
FC
0C
0C
0C
0C
0C
0C
0C
F8
ENDCHAR
STARTCHAR u+1f1
ENCODING 497
SWIDTH 500 0
DWIDTH 8 0
BBX 9 8 -1 0
BITMAP
F380
6980
6D80
6D00
6D00
6F00
6B00
F380
ENDCHAR
STARTCHAR u+1f2
ENCODING 498
SWIDTH 500 0
DWIDTH 8 0
BBX 9 8 -1 0
BITMAP
F000
6800
6F80
6D80
6D00
6D00
6B00
F380
ENDCHAR
STARTCHAR u+1f3
ENCODING 499
SWIDTH 500 0
DWIDTH 8 0
BBX 8 9 0 0
BITMAP
38
18
18
7F
DB
DA
DA
DE
7F
ENDCHAR
STARTCHAR u+1f4
ENCODING 500
SWIDTH 500 0
DWIDTH 8 0
BBX 7 11 1 0
BITMAP
08
10
00
7C
C4
C4
C0
DE
CC
CC
78
ENDCHAR
STARTCHAR u+1f5
ENCODING 501
SWIDTH 500 0
DWIDTH 8 0
BBX 7 12 1 -3
BITMAP
08
10
00
6E
DC
CC
CC
DC
6C
0C
0C
78
ENDCHAR
STARTCHAR u+1f6
ENCODING 502
SWIDTH 500 0
DWIDTH 8 0
BBX 9 8 -1 0
BITMAP
EE00
6C00
6D80
7D80
6D80
6D80
6D80
F700
ENDCHAR
STARTCHAR u+1f7
ENCODING 503
SWIDTH 500 0
DWIDTH 8 0
BBX 7 11 0 -3
BITMAP
FC
66
66
66
66
66
6C
68
70
60
E0
ENDCHAR
STARTCHAR u+1f8
ENCODING 504
SWIDTH 500 0
DWIDTH 8 0
BBX 8 11 0 0
BITMAP
10
08
00
EF
66
76
76
6E
6E
66
F6
ENDCHAR
STARTCHAR u+1f9
ENCODING 505
SWIDTH 500 0
DWIDTH 8 0
BBX 8 9 0 0
BITMAP
10
08
00
FC
66
66
66
66
E7
ENDCHAR
STARTCHAR u+1fa
ENCODING 506
SWIDTH 500 0
DWIDTH 8 0
BBX 9 12 0 0
BITMAP
1C00
1400
1C00
0000
7C00
1C00
3600
3600
3600
7F00
6300
F780
ENDCHAR
STARTCHAR u+1fb
ENCODING 507
SWIDTH 500 0
DWIDTH 8 0
BBX 7 12 1 0
BITMAP
20
00
70
50
70
00
78
0C
7C
CC
CC
7E
ENDCHAR
STARTCHAR u+1fc
ENCODING 508
SWIDTH 500 0
DWIDTH 8 0
BBX 9 11 -1 0
BITMAP
0200
0400
0000
3F80
1C80
2D00
2F00
2D00
7C00
4C80
FF80
ENDCHAR
STARTCHAR u+1fd
ENCODING 509
SWIDTH 500 0
DWIDTH 8 0
BBX 8 9 0 0
BITMAP
08
10
00
7E
1B
7F
D8
D9
7E
ENDCHAR
STARTCHAR u+1fe
ENCODING 510
SWIDTH 500 0
DWIDTH 8 0
BBX 6 12 1 -1
BITMAP
10
20
0C
7C
D8
DC
FC
FC
EC
6C
F8
C0
ENDCHAR
STARTCHAR u+1ff
ENCODING 511
SWIDTH 500 0
DWIDTH 8 0
BBX 6 10 1 -1
BITMAP
10
20
04
78
D8
DC
EC
4C
F8
80
ENDCHAR
STARTCHAR u+200
ENCODING 512
SWIDTH 500 0
DWIDTH 8 0
BBX 9 11 0 0
BITMAP
2800
1400
0000
7C00
1C00
3600
3600
3600
7F00
6300
F780
ENDCHAR
STARTCHAR u+201
ENCODING 513
SWIDTH 500 0
DWIDTH 8 0
BBX 7 9 1 0
BITMAP
50
28
00
78
0C
7C
CC
CC
7E
ENDCHAR
STARTCHAR u+202
ENCODING 514
SWIDTH 500 0
DWIDTH 8 0
BBX 9 11 0 0
BITMAP
1800
2400
0000
7C00
1C00
3600
3600
3600
7F00
6300
F780
ENDCHAR
STARTCHAR u+203
ENCODING 515
SWIDTH 500 0
DWIDTH 8 0
BBX 7 9 1 0
BITMAP
30
48
00
78
0C
7C
CC
CC
7E
ENDCHAR
STARTCHAR u+204
ENCODING 516
SWIDTH 500 0
DWIDTH 8 0
BBX 7 11 0 0
BITMAP
28
14
00
FE
62
6A
78
68
62
62
FE
ENDCHAR
STARTCHAR u+205
ENCODING 517
SWIDTH 500 0
DWIDTH 8 0
BBX 6 9 1 0
BITMAP
50
28
00
78
CC
FC
C0
C4
78
ENDCHAR
STARTCHAR u+206
ENCODING 518
SWIDTH 500 0
DWIDTH 8 0
BBX 7 11 0 0
BITMAP
18
24
00
FE
62
6A
78
68
62
62
FE
ENDCHAR
STARTCHAR u+207
ENCODING 519
SWIDTH 500 0
DWIDTH 8 0
BBX 6 9 1 0
BITMAP
30
48
00
78
CC
FC
C0
C4
78
ENDCHAR
STARTCHAR u+208
ENCODING 520
SWIDTH 500 0
DWIDTH 8 0
BBX 6 11 1 0
BITMAP
50
28
00
FC
30
30
30
30
30
30
FC
ENDCHAR
STARTCHAR u+209
ENCODING 521
SWIDTH 500 0
DWIDTH 8 0
BBX 8 9 0 0
BITMAP
50
28
00
78
18
18
18
18
FF
ENDCHAR
STARTCHAR u+20a
ENCODING 522
SWIDTH 500 0
DWIDTH 8 0
BBX 6 11 1 0
BITMAP
30
48
00
FC
30
30
30
30
30
30
FC
ENDCHAR
STARTCHAR u+20b
ENCODING 523
SWIDTH 500 0
DWIDTH 8 0
BBX 8 9 0 0
BITMAP
18
24
00
78
18
18
18
18
FF
ENDCHAR
STARTCHAR u+20c
ENCODING 524
SWIDTH 500 0
DWIDTH 8 0
BBX 6 11 1 0
BITMAP
50
28
00
78
CC
CC
CC
CC
CC
CC
78
ENDCHAR
STARTCHAR u+20d
ENCODING 525
SWIDTH 500 0
DWIDTH 8 0
BBX 6 9 1 0
BITMAP
50
28
00
78
CC
CC
CC
CC
78
ENDCHAR
STARTCHAR u+20e
ENCODING 526
SWIDTH 500 0
DWIDTH 8 0
BBX 6 11 1 0
BITMAP
30
48
00
78
CC
CC
CC
CC
CC
CC
78
ENDCHAR
STARTCHAR u+20f
ENCODING 527
SWIDTH 500 0
DWIDTH 8 0
BBX 6 9 1 0
BITMAP
30
48
00
78
CC
CC
CC
CC
78
ENDCHAR
STARTCHAR u+210
ENCODING 528
SWIDTH 500 0
DWIDTH 8 0
BBX 8 11 0 0
BITMAP
50
28
00
FC
66
66
66
7C
6C
66
F3
ENDCHAR
STARTCHAR u+211
ENCODING 529
SWIDTH 500 0
DWIDTH 8 0
BBX 7 9 0 0
BITMAP
28
14
00
F6
3A
30
30
30
FE
ENDCHAR
STARTCHAR u+212
ENCODING 530
SWIDTH 500 0
DWIDTH 8 0
BBX 8 11 0 0
BITMAP
18
24
00
FC
66
66
66
7C
6C
66
F3
ENDCHAR
STARTCHAR u+213
ENCODING 531
SWIDTH 500 0
DWIDTH 8 0
BBX 7 9 0 0
BITMAP
18
24
00
F6
3A
30
30
30
FE
ENDCHAR
STARTCHAR u+214
ENCODING 532
SWIDTH 500 0
DWIDTH 8 0
BBX 8 11 0 0
BITMAP
28
14
00
E7
66
66
66
66
66
66
3C
ENDCHAR
STARTCHAR u+215
ENCODING 533
SWIDTH 500 0
DWIDTH 8 0
BBX 8 9 0 0
BITMAP
50
28
00
EE
66
66
66
66
3F
ENDCHAR
STARTCHAR u+216
ENCODING 534
SWIDTH 500 0
DWIDTH 8 0
BBX 8 11 0 0
BITMAP
18
24
00
E7
66
66
66
66
66
66
3C
ENDCHAR
STARTCHAR u+217
ENCODING 535
SWIDTH 500 0
DWIDTH 8 0
BBX 8 9 0 0
BITMAP
18
24
00
EE
66
66
66
66
3F
ENDCHAR
STARTCHAR u+218
ENCODING 536
SWIDTH 500 0
DWIDTH 8 0
BBX 6 12 1 -4
BITMAP
7C
CC
C0
70
38
0C
CC
F8
00
30
10
20
ENDCHAR
STARTCHAR u+219
ENCODING 537
SWIDTH 500 0
DWIDTH 8 0
BBX 6 10 1 -4
BITMAP
7C
CC
F0
3C
CC
F8
00
30
10
20
ENDCHAR
STARTCHAR u+21a
ENCODING 538
SWIDTH 500 0
DWIDTH 8 0
BBX 6 12 1 -4
BITMAP
FC
B4
B4
30
30
30
30
78
00
30
10
20
ENDCHAR
STARTCHAR u+21b
ENCODING 539
SWIDTH 500 0
DWIDTH 8 0
BBX 6 12 1 -4
BITMAP
60
60
F8
60
60
60
64
38
00
30
10
20
ENDCHAR
STARTCHAR u+21c
ENCODING 540
SWIDTH 500 0
DWIDTH 8 0
BBX 6 12 1 -3
BITMAP
80
F8
CC
8C
8C
38
6C
0C
0C
18
30
E0
ENDCHAR
STARTCHAR u+21d
ENCODING 541
SWIDTH 500 0
DWIDTH 8 0
BBX 6 10 1 -3
BITMAP
80
F8
8C
8C
18
6C
0C
0C
18
E0
ENDCHAR
STARTCHAR u+21e
ENCODING 542
SWIDTH 500 0
DWIDTH 8 0
BBX 8 11 0 0
BITMAP
24
18
00
E7
66
66
7E
66
66
66
E7
ENDCHAR
STARTCHAR u+21f
ENCODING 543
SWIDTH 500 0
DWIDTH 8 0
BBX 8 11 0 0
BITMAP
12
0C
E0
60
60
7C
66
66
66
66
E7
ENDCHAR
STARTCHAR u+220
ENCODING 544
SWIDTH 500 0
DWIDTH 8 0
BBX 8 11 0 -3
BITMAP
FC
66
66
66
66
66
66
E6
06
06
0F
ENDCHAR
STARTCHAR u+221
ENCODING 545
SWIDTH 500 0
DWIDTH 8 0
BBX 8 12 0 -3
BITMAP
1C
0C
0C
7C
CC
CC
CC
CC
7C
1E
2D
26
ENDCHAR
STARTCHAR u+222
ENCODING 546
SWIDTH 500 0
DWIDTH 8 0
BBX 6 8 1 0
BITMAP
58
CC
CC
78
CC
CC
CC
78
ENDCHAR
STARTCHAR u+223
ENCODING 547
SWIDTH 500 0
DWIDTH 8 0
BBX 6 9 1 0
BITMAP
48
EC
CC
CC
78
CC
CC
CC
78
ENDCHAR
STARTCHAR u+224
ENCODING 548
SWIDTH 500 0
DWIDTH 8 0
BBX 7 10 1 -2
BITMAP
FC
8C
98
30
30
60
C0
FC
02
02
ENDCHAR
STARTCHAR u+225
ENCODING 549
SWIDTH 500 0
DWIDTH 8 0
BBX 6 8 1 -2
BITMAP
FC
98
30
30
60
F8
04
04
ENDCHAR
STARTCHAR u+226
ENCODING 550
SWIDTH 500 0
DWIDTH 8 0
BBX 9 11 0 0
BITMAP
1800
1800
0000
7C00
1C00
3600
3600
3600
7F00
6300
F780
ENDCHAR
STARTCHAR u+227
ENCODING 551
SWIDTH 500 0
DWIDTH 8 0
BBX 7 9 1 0
BITMAP
30
30
00
78
0C
7C
CC
CC
7E
ENDCHAR
STARTCHAR u+228
ENCODING 552
SWIDTH 500 0
DWIDTH 8 0
BBX 7 12 0 -4
BITMAP
FE
62
6A
78
68
62
62
FE
10
18
08
38
ENDCHAR
STARTCHAR u+229
ENCODING 553
SWIDTH 500 0
DWIDTH 8 0
BBX 6 10 1 -4
BITMAP
78
CC
FC
C0
C4
78
10
18
08
38
ENDCHAR
STARTCHAR u+22a
ENCODING 554
SWIDTH 500 0
DWIDTH 8 0
BBX 6 12 1 0
BITMAP
78
00
48
00
78
CC
CC
CC
CC
CC
CC
78
ENDCHAR
STARTCHAR u+22b
ENCODING 555
SWIDTH 500 0
DWIDTH 8 0
BBX 6 10 1 0
BITMAP
78
00
48
00
78
CC
CC
CC
CC
78
ENDCHAR
STARTCHAR u+22c
ENCODING 556
SWIDTH 500 0
DWIDTH 8 0
BBX 6 12 1 0
BITMAP
7C
24
58
00
78
CC
CC
CC
CC
CC
CC
78
ENDCHAR
STARTCHAR u+22d
ENCODING 557
SWIDTH 500 0
DWIDTH 8 0
BBX 6 11 1 0
BITMAP
78
00
68
58
00
78
CC
CC
CC
CC
78
ENDCHAR
STARTCHAR u+22e
ENCODING 558
SWIDTH 500 0
DWIDTH 8 0
BBX 6 11 1 0
BITMAP
30
30
00
78
CC
CC
CC
CC
CC
CC
78
ENDCHAR
STARTCHAR u+22f
ENCODING 559
SWIDTH 500 0
DWIDTH 8 0
BBX 6 9 1 0
BITMAP
30
30
00
78
CC
CC
CC
CC
78
ENDCHAR
STARTCHAR u+230
ENCODING 560
SWIDTH 500 0
DWIDTH 8 0
BBX 6 12 1 0
BITMAP
7C
00
10
00
78
CC
CC
CC
CC
CC
CC
78
ENDCHAR
STARTCHAR u+231
ENCODING 561
SWIDTH 500 0
DWIDTH 8 0
BBX 6 11 1 0
BITMAP
78
00
30
30
00
78
CC
CC
CC
CC
78
ENDCHAR
STARTCHAR u+232
ENCODING 562
SWIDTH 500 0
DWIDTH 8 0
BBX 8 10 0 0
BITMAP
3C
00
EF
66
24
3C
18
18
18
7E
ENDCHAR
STARTCHAR u+233
ENCODING 563
SWIDTH 500 0
DWIDTH 8 0
BBX 8 11 0 -3
BITMAP
3C
00
F7
66
64
2C
38
18
30
30
F8
ENDCHAR
STARTCHAR u+234
ENCODING 564
SWIDTH 500 0
DWIDTH 8 0
BBX 6 12 1 -3
BITMAP
F0
30
30
30
30
30
30
30
30
78
B4
98
ENDCHAR
STARTCHAR u+235
ENCODING 565
SWIDTH 500 0
DWIDTH 8 0
BBX 8 9 0 -3
BITMAP
F8
6C
6C
6C
6C
EC
1E
2D
26
ENDCHAR
STARTCHAR u+236
ENCODING 566
SWIDTH 500 0
DWIDTH 8 0
BBX 7 8 0 0
BITMAP
30
30
7E
30
30
78
B4
98
ENDCHAR
STARTCHAR u+238
ENCODING 568
SWIDTH 500 0
DWIDTH 8 0
BBX 8 9 0 0
BITMAP
38
18
18
7E
DB
DB
DB
DB
7E
ENDCHAR
STARTCHAR u+239
ENCODING 569
SWIDTH 500 0
DWIDTH 8 0
BBX 8 9 0 -3
BITMAP
7E
DB
DB
DB
DB
7E
18
18
7E
ENDCHAR
STARTCHAR u+23a
ENCODING 570
SWIDTH 500 0
DWIDTH 8 0
BBX 9 11 0 -1
BITMAP
0100
0200
7E00
1C00
3600
3600
3E00
7F00
7300
F780
2000
ENDCHAR
STARTCHAR u+23b
ENCODING 571
SWIDTH 500 0
DWIDTH 8 0
BBX 6 10 1 -1
BITMAP
04
3C
6C
CC
D0
D0
E0
64
38
40
ENDCHAR
STARTCHAR u+23c
ENCODING 572
SWIDTH 500 0
DWIDTH 8 0
BBX 6 10 1 -2
BITMAP
04
04
7C
CC
D0
D0
E4
78
40
40
ENDCHAR
STARTCHAR u+23d
ENCODING 573
SWIDTH 500 0
DWIDTH 8 0
BBX 8 8 0 0
BITMAP
FC
30
30
7C
30
31
31
FF
ENDCHAR
STARTCHAR u+23e
ENCODING 574
SWIDTH 500 0
DWIDTH 8 0
BBX 6 10 1 -1
BITMAP
04
FC
BC
B4
30
30
30
30
78
40
ENDCHAR
STARTCHAR u+23f
ENCODING 575
SWIDTH 500 0
DWIDTH 8 0
BBX 6 9 1 -3
BITMAP
7C
C4
F0
3C
8C
F8
30
14
0C
ENDCHAR
STARTCHAR u+240
ENCODING 576
SWIDTH 500 0
DWIDTH 8 0
BBX 7 9 1 -3
BITMAP
FC
98
30
30
60
F0
18
1A
0E
ENDCHAR
STARTCHAR u+241
ENCODING 577
SWIDTH 500 0
DWIDTH 8 0
BBX 6 8 1 0
BITMAP
B8
CC
8C
0C
0C
38
30
78
ENDCHAR
STARTCHAR u+242
ENCODING 578
SWIDTH 500 0
DWIDTH 8 0
BBX 8 6 0 0
BITMAP
7E
C3
03
1E
18
FF
ENDCHAR
STARTCHAR u+243
ENCODING 579
SWIDTH 500 0
DWIDTH 8 0
BBX 8 8 0 0
BITMAP
FC
66
66
7E
63
F3
63
FE
ENDCHAR
STARTCHAR u+244
ENCODING 580
SWIDTH 500 0
DWIDTH 8 0
BBX 8 8 0 0
BITMAP
FF
66
66
FF
66
66
66
3C
ENDCHAR
STARTCHAR u+245
ENCODING 581
SWIDTH 500 0
DWIDTH 8 0
BBX 8 8 0 0
BITMAP
78
18
3C
3C
24
66
66
F7
ENDCHAR
STARTCHAR u+246
ENCODING 582
SWIDTH 500 0
DWIDTH 8 0
BBX 7 10 0 -1
BITMAP
02
FE
66
6A
68
78
7A
62
FE
40
ENDCHAR
STARTCHAR u+247
ENCODING 583
SWIDTH 500 0
DWIDTH 8 0
BBX 7 10 0 -2
BITMAP
04
04
78
EC
D6
FE
E0
3E
40
40
ENDCHAR
STARTCHAR u+248
ENCODING 584
SWIDTH 500 0
DWIDTH 8 0
BBX 7 8 1 0
BITMAP
FE
18
18
3E
98
98
98
70
ENDCHAR
STARTCHAR u+249
ENCODING 585
SWIDTH 500 0
DWIDTH 8 0
BBX 8 12 0 -3
BITMAP
18
18
00
FC
0C
0C
3F
0C
0C
0C
0C
F8
ENDCHAR
STARTCHAR u+24a
ENCODING 586
SWIDTH 500 0
DWIDTH 8 0
BBX 8 11 0 -3
BITMAP
3E
6C
CC
CC
CC
CC
CC
7C
0C
0C
07
ENDCHAR
STARTCHAR u+24b
ENCODING 587
SWIDTH 500 0
DWIDTH 8 0
BBX 8 9 0 -3
BITMAP
77
EE
C6
C6
EE
76
06
06
03
ENDCHAR
STARTCHAR u+24c
ENCODING 588
SWIDTH 500 0
DWIDTH 8 0
BBX 8 8 0 0
BITMAP
FC
66
66
66
FC
64
66
F7
ENDCHAR
STARTCHAR u+24d
ENCODING 589
SWIDTH 500 0
DWIDTH 8 0
BBX 8 6 1 0
BITMAP
77
39
FE
30
30
FE
ENDCHAR
STARTCHAR u+24e
ENCODING 590
SWIDTH 500 0
DWIDTH 8 0
BBX 8 8 1 0
BITMAP
FF
66
FF
3C
18
18
18
7E
ENDCHAR
STARTCHAR u+24f
ENCODING 591
SWIDTH 500 0
DWIDTH 8 0
BBX 9 9 0 -3
BITMAP
F780
6300
FF80
3600
1E00
1C00
0C00
1800
FC00
ENDCHAR
STARTCHAR u+250
ENCODING 592
SWIDTH 500 0
DWIDTH 8 0
BBX 7 6 0 0
BITMAP
FC
66
66
7C
60
3C
ENDCHAR
STARTCHAR u+251
ENCODING 593
SWIDTH 500 0
DWIDTH 8 0
BBX 7 6 1 0
BITMAP
7E
CC
CC
CC
CC
7E
ENDCHAR
STARTCHAR u+252
ENCODING 594
SWIDTH 500 0
DWIDTH 8 0
BBX 7 6 0 0
BITMAP
FC
66
66
66
66
FC
ENDCHAR
STARTCHAR u+253
ENCODING 595
SWIDTH 500 0
DWIDTH 8 0
BBX 7 9 0 0
BITMAP
38
60
60
7C
66
66
66
66
FC
ENDCHAR
STARTCHAR u+254
ENCODING 596
SWIDTH 500 0
DWIDTH 8 0
BBX 6 6 1 0
BITMAP
78
8C
0C
0C
8C
F8
ENDCHAR
STARTCHAR u+255
ENCODING 597
SWIDTH 500 0
DWIDTH 8 0
BBX 7 6 0 0
BITMAP
3E
62
7C
66
66
BC
ENDCHAR
STARTCHAR u+256
ENCODING 598
SWIDTH 500 0
DWIDTH 8 0
BBX 7 12 1 -3
BITMAP
1C
0C
0C
7C
CC
CC
CC
CC
7C
0C
0C
06
ENDCHAR
STARTCHAR u+257
ENCODING 599
SWIDTH 500 0
DWIDTH 8 0
BBX 7 9 1 0
BITMAP
06
0C
0C
7C
CC
CC
CC
CC
7E
ENDCHAR
STARTCHAR u+258
ENCODING 600
SWIDTH 500 0
DWIDTH 8 0
BBX 6 6 1 0
BITMAP
78
CC
FC
0C
8C
78
ENDCHAR
STARTCHAR u+259
ENCODING 601
SWIDTH 500 0
DWIDTH 8 0
BBX 7 6 0 0
BITMAP
FC
06
FE
C6
6E
38
ENDCHAR
STARTCHAR u+25a
ENCODING 602
SWIDTH 500 0
DWIDTH 8 0
BBX 8 6 0 0
BITMAP
78
8E
7E
CD
CC
78
ENDCHAR
STARTCHAR u+25b
ENCODING 603
SWIDTH 500 0
DWIDTH 8 0
BBX 7 7 1 0
BITMAP
04
7C
C4
74
C0
C6
7C
ENDCHAR
STARTCHAR u+25c
ENCODING 604
SWIDTH 500 0
DWIDTH 8 0
BBX 7 7 0 0
BITMAP
40
7C
46
5C
06
C6
7C
ENDCHAR
STARTCHAR u+25d
ENCODING 605
SWIDTH 500 0
DWIDTH 8 0
BBX 8 7 0 0
BITMAP
80
F8
8E
BB
0C
8C
78
ENDCHAR
STARTCHAR u+25e
ENCODING 606
SWIDTH 500 0
DWIDTH 8 0
BBX 6 6 1 0
BITMAP
78
CC
D8
CC
CC
78
ENDCHAR
STARTCHAR u+25f
ENCODING 607
SWIDTH 500 0
DWIDTH 8 0
BBX 7 9 0 -3
BITMAP
7E
18
18
18
18
7E
18
18
F0
ENDCHAR
STARTCHAR u+260
ENCODING 608
SWIDTH 500 0
DWIDTH 8 0
BBX 7 12 1 -3
BITMAP
06
0C
0C
7C
CC
CC
CC
CC
7C
0C
0C
78
ENDCHAR
STARTCHAR u+261
ENCODING 609
SWIDTH 500 0
DWIDTH 8 0
BBX 7 9 1 -3
BITMAP
6E
DC
CC
CC
DC
6C
0C
0C
78
ENDCHAR
STARTCHAR u+262
ENCODING 610
SWIDTH 500 0
DWIDTH 8 0
BBX 7 6 1 0
BITMAP
7C
CC
C0
DE
CC
7C
ENDCHAR
STARTCHAR u+263
ENCODING 611
SWIDTH 500 0
DWIDTH 8 0
BBX 8 9 0 -3
BITMAP
F7
66
24
3C
18
18
3C
24
18
ENDCHAR
STARTCHAR u+264
ENCODING 612
SWIDTH 500 0
DWIDTH 8 0
BBX 7 6 0 0
BITMAP
EE
38
38
6C
6C
38
ENDCHAR
STARTCHAR u+265
ENCODING 613
SWIDTH 500 0
DWIDTH 8 0
BBX 8 9 0 -3
BITMAP
EF
66
66
66
66
3E
06
06
07
ENDCHAR
STARTCHAR u+266
ENCODING 614
SWIDTH 500 0
DWIDTH 8 0
BBX 8 9 0 0
BITMAP
38
60
60
7C
66
66
66
66
F7
ENDCHAR
STARTCHAR u+267
ENCODING 615
SWIDTH 500 0
DWIDTH 8 0
BBX 7 12 0 -3
BITMAP
38
60
60
7C
66
66
66
66
F6
06
06
3C
ENDCHAR
STARTCHAR u+268
ENCODING 616
SWIDTH 500 0
DWIDTH 8 0
BBX 6 9 1 0
BITMAP
30
30
00
F0
30
FC
30
30
FC
ENDCHAR
STARTCHAR u+269
ENCODING 617
SWIDTH 500 0
DWIDTH 8 0
BBX 4 6 2 0
BITMAP
C0
C0
C0
C0
C0
70
ENDCHAR
STARTCHAR u+26a
ENCODING 618
SWIDTH 500 0
DWIDTH 8 0
BBX 6 6 1 0
BITMAP
FC
30
30
30
30
FC
ENDCHAR
STARTCHAR u+26b
ENCODING 619
SWIDTH 500 0
DWIDTH 8 0
BBX 6 9 1 0
BITMAP
F0
30
30
74
B8
30
30
30
FC
ENDCHAR
STARTCHAR u+26c
ENCODING 620
SWIDTH 500 0
DWIDTH 8 0
BBX 6 9 1 0
BITMAP
F0
30
30
70
B0
78
30
30
FC
ENDCHAR
STARTCHAR u+26d
ENCODING 621
SWIDTH 500 0
DWIDTH 8 0
BBX 6 12 1 -3
BITMAP
F0
30
30
30
30
30
30
30
30
30
30
1C
ENDCHAR
STARTCHAR u+26e
ENCODING 622
SWIDTH 500 0
DWIDTH 8 0
BBX 8 12 0 -3
BITMAP
E0
60
60
7E
66
6C
6E
63
F3
03
46
3C
ENDCHAR
STARTCHAR u+26f
ENCODING 623
SWIDTH 500 0
DWIDTH 8 0
BBX 10 6 -1 0
BITMAP
EDC0
6D80
6D80
6D80
6D80
37C0
ENDCHAR
STARTCHAR u+270
ENCODING 624
SWIDTH 500 0
DWIDTH 8 0
BBX 10 9 -1 -3
BITMAP
EDC0
6D80
6D80
6D80
6D80
3780
0180
0180
01C0
ENDCHAR
STARTCHAR u+271
ENCODING 625
SWIDTH 500 0
DWIDTH 8 0
BBX 9 9 -1 -3
BITMAP
FB00
6D80
6D80
6D80
6D80
ED80
0180
0180
1F00
ENDCHAR
STARTCHAR u+272
ENCODING 626
SWIDTH 500 0
DWIDTH 8 0
BBX 8 9 0 -3
BITMAP
FC
66
66
66
66
67
60
60
C0
ENDCHAR
STARTCHAR u+273
ENCODING 627
SWIDTH 500 0
DWIDTH 8 0
BBX 8 9 0 -3
BITMAP
FC
66
66
66
66
E6
06
06
03
ENDCHAR
STARTCHAR u+274
ENCODING 628
SWIDTH 500 0
DWIDTH 8 0
BBX 8 6 0 0
BITMAP
EF
76
76
6E
6E
F6
ENDCHAR
STARTCHAR u+275
ENCODING 629
SWIDTH 500 0
DWIDTH 8 0
BBX 6 6 1 0
BITMAP
78
CC
CC
FC
CC
78
ENDCHAR
STARTCHAR u+276
ENCODING 630
SWIDTH 500 0
DWIDTH 8 0
BBX 8 6 0 0
BITMAP
7F
D9
DE
DA
D9
7F
ENDCHAR
STARTCHAR u+277
ENCODING 631
SWIDTH 500 0
DWIDTH 8 0
BBX 8 6 0 0
BITMAP
3C
66
DB
DB
DB
7E
ENDCHAR
STARTCHAR u+278
ENCODING 632
SWIDTH 500 0
DWIDTH 8 0
BBX 8 12 0 -3
BITMAP
3C
18
18
7E
DB
DB
DB
DB
7E
18
18
3C
ENDCHAR
STARTCHAR u+279
ENCODING 633
SWIDTH 500 0
DWIDTH 8 0
BBX 6 6 1 0
BITMAP
7C
18
18
18
B8
DC
ENDCHAR
STARTCHAR u+27a
ENCODING 634
SWIDTH 500 0
DWIDTH 8 0
BBX 6 9 1 0
BITMAP
7C
18
18
18
18
18
18
B8
DC
ENDCHAR
STARTCHAR u+27b
ENCODING 635
SWIDTH 500 0
DWIDTH 8 0
BBX 7 9 1 -3
BITMAP
7E
18
18
18
B8
D8
18
18
0E
ENDCHAR
STARTCHAR u+27c
ENCODING 636
SWIDTH 500 0
DWIDTH 8 0
BBX 6 9 1 -3
BITMAP
EC
74
60
60
60
60
60
60
F8
ENDCHAR
STARTCHAR u+27d
ENCODING 637
SWIDTH 500 0
DWIDTH 8 0
BBX 6 9 1 -3
BITMAP
EC
74
60
60
60
60
60
60
38
ENDCHAR
STARTCHAR u+27e
ENCODING 638
SWIDTH 500 0
DWIDTH 8 0
BBX 7 6 0 0
BITMAP
1E
30
30
30
30
FC
ENDCHAR
STARTCHAR u+27f
ENCODING 639
SWIDTH 500 0
DWIDTH 8 0
BBX 7 9 1 -3
BITMAP
F0
18
18
18
18
18
18
18
7E
ENDCHAR
STARTCHAR u+280
ENCODING 640
SWIDTH 500 0
DWIDTH 8 0
BBX 7 6 0 0
BITMAP
FC
66
66
7C
6C
F6
ENDCHAR
STARTCHAR u+281
ENCODING 641
SWIDTH 500 0
DWIDTH 8 0
BBX 7 6 0 0
BITMAP
F6
6C
7C
66
66
FC
ENDCHAR
STARTCHAR u+282
ENCODING 642
SWIDTH 500 0
DWIDTH 8 0
BBX 6 9 1 -3
BITMAP
7C
C4
F0
3C
8C
F8
80
80
70
ENDCHAR
STARTCHAR u+283
ENCODING 643
SWIDTH 500 0
DWIDTH 8 0
BBX 6 12 1 -3
BITMAP
1C
30
30
30
30
30
30
30
30
30
30
E0
ENDCHAR
STARTCHAR u+284
ENCODING 644
SWIDTH 500 0
DWIDTH 8 0
BBX 6 12 1 -3
BITMAP
1C
30
30
30
30
30
30
30
FC
30
30
E0
ENDCHAR
STARTCHAR u+285
ENCODING 645
SWIDTH 500 0
DWIDTH 8 0
BBX 6 9 1 -3
BITMAP
E0
30
30
30
30
30
30
30
1C
ENDCHAR
STARTCHAR u+286
ENCODING 646
SWIDTH 500 0
DWIDTH 8 0
BBX 6 12 1 -3
BITMAP
1C
30
30
30
30
30
30
30
78
B4
B4
64
ENDCHAR
STARTCHAR u+287
ENCODING 647
SWIDTH 500 0
DWIDTH 8 0
BBX 6 9 1 0
BITMAP
70
98
18
18
18
18
7C
18
18
ENDCHAR
STARTCHAR u+288
ENCODING 648
SWIDTH 500 0
DWIDTH 8 0
BBX 6 11 1 -3
BITMAP
60
60
F8
60
60
60
60
60
60
64
38
ENDCHAR
STARTCHAR u+289
ENCODING 649
SWIDTH 500 0
DWIDTH 8 0
BBX 8 6 0 0
BITMAP
EE
66
FF
66
66
3F
ENDCHAR
STARTCHAR u+28a
ENCODING 650
SWIDTH 500 0
DWIDTH 8 0
BBX 6 6 1 0
BITMAP
CC
48
CC
CC
CC
78
ENDCHAR
STARTCHAR u+28b
ENCODING 651
SWIDTH 500 0
DWIDTH 8 0
BBX 7 6 0 0
BITMAP
EC
66
66
66
66
3C
ENDCHAR
STARTCHAR u+28c
ENCODING 652
SWIDTH 500 0
DWIDTH 8 0
BBX 8 6 0 0
BITMAP
18
3C
3C
66
66
F7
ENDCHAR
STARTCHAR u+28d
ENCODING 653
SWIDTH 500 0
DWIDTH 8 0
BBX 8 6 0 0
BITMAP
66
66
7E
5A
DB
E7
ENDCHAR
STARTCHAR u+28e
ENCODING 654
SWIDTH 500 0
DWIDTH 8 0
BBX 8 9 0 0
BITMAP
0E
18
18
38
38
3C
6C
66
EF
ENDCHAR
STARTCHAR u+28f
ENCODING 655
SWIDTH 500 0
DWIDTH 8 0
BBX 8 6 0 0
BITMAP
EF
66
3C
18
18
7E
ENDCHAR
STARTCHAR u+290
ENCODING 656
SWIDTH 500 0
DWIDTH 8 0
BBX 7 9 1 -3
BITMAP
FC
98
30
30
64
FC
04
04
02
ENDCHAR
STARTCHAR u+291
ENCODING 657
SWIDTH 500 0
DWIDTH 8 0
BBX 8 7 0 -1
BITMAP
FC
98
30
36
69
FE
20
ENDCHAR
STARTCHAR u+292
ENCODING 658
SWIDTH 500 0
DWIDTH 8 0
BBX 6 9 1 -3
BITMAP
7C
58
18
30
38
0C
0C
8C
78
ENDCHAR
STARTCHAR u+293
ENCODING 659
SWIDTH 500 0
DWIDTH 8 0
BBX 6 9 1 -3
BITMAP
7C
58
18
30
38
0C
7C
CC
74
ENDCHAR
STARTCHAR u+294
ENCODING 660
SWIDTH 500 0
DWIDTH 8 0
BBX 6 8 1 0
BITMAP
B8
CC
8C
0C
0C
38
30
78
ENDCHAR
STARTCHAR u+295
ENCODING 661
SWIDTH 500 0
DWIDTH 8 0
BBX 6 8 1 0
BITMAP
74
CC
C4
C0
C0
70
30
78
ENDCHAR
STARTCHAR u+296
ENCODING 662
SWIDTH 500 0
DWIDTH 8 0
BBX 6 8 1 0
BITMAP
78
30
38
0C
0C
8C
CC
B8
ENDCHAR
STARTCHAR u+297
ENCODING 663
SWIDTH 500 0
DWIDTH 8 0
BBX 6 9 1 -3
BITMAP
74
CC
C4
C0
C0
C0
C0
C4
78
ENDCHAR
STARTCHAR u+298
ENCODING 664
SWIDTH 500 0
DWIDTH 8 0
BBX 6 8 1 0
BITMAP
78
CC
CC
EC
EC
CC
CC
78
ENDCHAR
STARTCHAR u+299
ENCODING 665
SWIDTH 500 0
DWIDTH 8 0
BBX 7 6 0 0
BITMAP
F8
6C
7C
66
66
FC
ENDCHAR
STARTCHAR u+29a
ENCODING 666
SWIDTH 500 0
DWIDTH 8 0
BBX 6 6 1 0
BITMAP
78
CC
6C
CC
CC
78
ENDCHAR
STARTCHAR u+29b
ENCODING 667
SWIDTH 500 0
DWIDTH 8 0
BBX 7 7 1 0
BITMAP
06
7C
C4
C0
DE
CC
7C
ENDCHAR
STARTCHAR u+29c
ENCODING 668
SWIDTH 500 0
DWIDTH 8 0
BBX 8 6 0 0
BITMAP
EF
66
7E
66
66
F7
ENDCHAR
STARTCHAR u+29d
ENCODING 669
SWIDTH 500 0
DWIDTH 8 0
BBX 8 12 0 -3
BITMAP
18
18
00
FC
0C
0C
0C
0C
3F
6C
6C
38
ENDCHAR
STARTCHAR u+29e
ENCODING 670
SWIDTH 500 0
DWIDTH 8 0
BBX 8 9 0 -3
BITMAP
E7
36
1E
1E
36
F6
06
06
07
ENDCHAR
STARTCHAR u+29f
ENCODING 671
SWIDTH 500 0
DWIDTH 8 0
BBX 6 6 1 0
BITMAP
F0
60
60
64
64
FC
ENDCHAR
STARTCHAR u+2a0
ENCODING 672
SWIDTH 500 0
DWIDTH 8 0
BBX 7 12 1 -3
BITMAP
06
0C
0C
6C
DC
CC
CC
DC
6C
0C
0C
3E
ENDCHAR
STARTCHAR u+2a1
ENCODING 673
SWIDTH 500 0
DWIDTH 8 0
BBX 6 8 1 0
BITMAP
B8
CC
8C
0C
38
7C
30
78
ENDCHAR
STARTCHAR u+2a2
ENCODING 674
SWIDTH 500 0
DWIDTH 8 0
BBX 6 8 1 0
BITMAP
74
CC
C4
C0
70
F8
30
78
ENDCHAR
STARTCHAR u+2a3
ENCODING 675
SWIDTH 500 0
DWIDTH 8 0
BBX 8 9 0 0
BITMAP
38
18
18
7F
DB
DA
DA
DE
7F
ENDCHAR
STARTCHAR u+2a4
ENCODING 676
SWIDTH 500 0
DWIDTH 8 0
BBX 8 12 0 -3
BITMAP
38
18
18
7F
DB
DA
DE
DB
7B
03
23
1E
ENDCHAR
STARTCHAR u+2a5
ENCODING 677
SWIDTH 500 0
DWIDTH 8 0
BBX 8 10 0 -1
BITMAP
70
30
30
7E
B6
BC
BB
B5
7E
08
ENDCHAR
STARTCHAR u+2a6
ENCODING 678
SWIDTH 500 0
DWIDTH 8 0
BBX 8 8 0 0
BITMAP
60
60
FF
6D
6E
67
63
3E
ENDCHAR
STARTCHAR u+2a7
ENCODING 679
SWIDTH 500 0
DWIDTH 8 0
BBX 8 12 0 -3
BITMAP
07
6C
6C
FC
6C
6C
6C
6C
3C
0C
0C
38
ENDCHAR
STARTCHAR u+2a8
ENCODING 680
SWIDTH 500 0
DWIDTH 8 0
BBX 8 8 0 0
BITMAP
C0
C0
EF
D9
DA
DF
DB
6E
ENDCHAR
STARTCHAR u+2a9
ENCODING 681
SWIDTH 500 0
DWIDTH 8 0
BBX 9 12 -1 -3
BITMAP
3C00
6000
6000
FF00
6D80
6D80
6D80
6D80
FD80
0180
0180
0F00
ENDCHAR
STARTCHAR u+2aa
ENCODING 682
SWIDTH 500 0
DWIDTH 8 0
BBX 8 9 0 0
BITMAP
E0
60
60
67
6D
6E
67
63
FE
ENDCHAR
STARTCHAR u+2ab
ENCODING 683
SWIDTH 500 0
DWIDTH 8 0
BBX 8 9 0 0
BITMAP
E0
60
60
7E
66
6C
6C
79
FF
ENDCHAR
STARTCHAR u+2ac
ENCODING 684
SWIDTH 500 0
DWIDTH 8 0
BBX 7 8 0 0
BITMAP
EE
54
28
00
00
EE
54
28
ENDCHAR
STARTCHAR u+2ad
ENCODING 685
SWIDTH 500 0
DWIDTH 8 0
BBX 6 8 1 0
BITMAP
FC
CC
CC
00
00
FC
CC
CC
ENDCHAR
STARTCHAR u+2ae
ENCODING 686
SWIDTH 500 0
DWIDTH 8 0
BBX 8 9 0 -3
BITMAP
CF
66
66
66
66
3E
06
06
07
ENDCHAR
STARTCHAR u+2af
ENCODING 687
SWIDTH 500 0
DWIDTH 8 0
BBX 8 9 0 -3
BITMAP
CF
66
66
66
66
3E
06
06
03
ENDCHAR
STARTCHAR u+2b0
ENCODING 688
SWIDTH 500 0
DWIDTH 8 0
BBX 6 6 1 3
BITMAP
C0
40
70
48
48
EC
ENDCHAR
STARTCHAR u+2b1
ENCODING 689
SWIDTH 500 0
DWIDTH 8 0
BBX 6 6 1 3
BITMAP
60
40
70
48
48
EC
ENDCHAR
STARTCHAR u+2b2
ENCODING 690
SWIDTH 500 0
DWIDTH 8 0
BBX 3 8 2 1
BITMAP
40
00
E0
20
20
20
20
C0
ENDCHAR
STARTCHAR u+2b3
ENCODING 691
SWIDTH 500 0
DWIDTH 8 0
BBX 4 4 2 3
BITMAP
F0
40
40
E0
ENDCHAR
STARTCHAR u+2b4
ENCODING 692
SWIDTH 500 0
DWIDTH 8 0
BBX 4 4 2 3
BITMAP
70
20
20
F0
ENDCHAR
STARTCHAR u+2b5
ENCODING 693
SWIDTH 500 0
DWIDTH 8 0
BBX 5 6 2 1
BITMAP
70
20
20
E0
20
18
ENDCHAR
STARTCHAR u+2b6
ENCODING 694
SWIDTH 500 0
DWIDTH 8 0
BBX 5 4 1 3
BITMAP
D8
70
48
F0
ENDCHAR
STARTCHAR u+2b7
ENCODING 695
SWIDTH 500 0
DWIDTH 8 0
BBX 7 4 0 3
BITMAP
EE
54
28
28
ENDCHAR
STARTCHAR u+2b8
ENCODING 696
SWIDTH 500 0
DWIDTH 8 0
BBX 5 6 2 1
BITMAP
D8
50
50
20
20
E0
ENDCHAR
STARTCHAR u+2b9
ENCODING 697
SWIDTH 500 0
DWIDTH 8 0
BBX 3 4 3 4
BITMAP
60
40
C0
80
ENDCHAR
STARTCHAR u+2ba
ENCODING 698
SWIDTH 500 0
DWIDTH 8 0
BBX 6 4 1 4
BITMAP
6C
48
D8
90
ENDCHAR
STARTCHAR u+2bb
ENCODING 699
SWIDTH 500 0
DWIDTH 8 0
BBX 3 4 2 4
BITMAP
20
60
40
C0
ENDCHAR
STARTCHAR u+2bc
ENCODING 700
SWIDTH 500 0
DWIDTH 8 0
BBX 3 4 2 4
BITMAP
60
40
C0
80
ENDCHAR
STARTCHAR u+2bd
ENCODING 701
SWIDTH 500 0
DWIDTH 8 0
BBX 3 4 3 4
BITMAP
C0
40
60
20
ENDCHAR
STARTCHAR u+2be
ENCODING 702
SWIDTH 500 0
DWIDTH 8 0
BBX 2 3 3 7
BITMAP
80
40
80
ENDCHAR
STARTCHAR u+2bf
ENCODING 703
SWIDTH 500 0
DWIDTH 8 0
BBX 2 3 3 7
BITMAP
40
80
40
ENDCHAR
STARTCHAR u+2c0
ENCODING 704
SWIDTH 500 0
DWIDTH 8 0
BBX 4 6 2 3
BITMAP
E0
90
10
60
40
40
ENDCHAR
STARTCHAR u+2c1
ENCODING 705
SWIDTH 500 0
DWIDTH 8 0
BBX 4 6 2 3
BITMAP
70
90
80
60
20
20
ENDCHAR
STARTCHAR u+2c2
ENCODING 706
SWIDTH 500 0
DWIDTH 8 0
BBX 8 7 0 0
BITMAP
03
0C
30
C0
30
0C
03
ENDCHAR
STARTCHAR u+2c3
ENCODING 707
SWIDTH 500 0
DWIDTH 8 0
BBX 8 7 0 0
BITMAP
C0
30
0C
03
0C
30
C0
ENDCHAR
STARTCHAR u+2c4
ENCODING 708
SWIDTH 500 0
DWIDTH 8 0
BBX 7 8 0 0
BITMAP
10
10
28
28
44
44
82
82
ENDCHAR
STARTCHAR u+2c5
ENCODING 709
SWIDTH 500 0
DWIDTH 8 0
BBX 7 8 0 0
BITMAP
82
82
44
44
28
28
10
10
ENDCHAR
STARTCHAR u+2c6
ENCODING 710
SWIDTH 500 0
DWIDTH 8 0
BBX 4 2 2 7
BITMAP
60
90
ENDCHAR
STARTCHAR u+2c7
ENCODING 711
SWIDTH 500 0
DWIDTH 8 0
BBX 4 2 2 7
BITMAP
90
60
ENDCHAR
STARTCHAR u+2c8
ENCODING 712
SWIDTH 500 0
DWIDTH 8 0
BBX 1 3 4 7
BITMAP
80
80
80
ENDCHAR
STARTCHAR u+2c9
ENCODING 713
SWIDTH 500 0
DWIDTH 8 0
BBX 4 1 2 7
BITMAP
F0
ENDCHAR
STARTCHAR u+2ca
ENCODING 714
SWIDTH 500 0
DWIDTH 8 0
BBX 2 2 3 7
BITMAP
40
80
ENDCHAR
STARTCHAR u+2cb
ENCODING 715
SWIDTH 500 0
DWIDTH 8 0
BBX 2 2 3 7
BITMAP
80
40
ENDCHAR
STARTCHAR u+2cc
ENCODING 716
SWIDTH 500 0
DWIDTH 8 0
BBX 1 3 4 -4
BITMAP
80
80
80
ENDCHAR
STARTCHAR u+2cd
ENCODING 717
SWIDTH 500 0
DWIDTH 8 0
BBX 4 1 2 -3
BITMAP
F0
ENDCHAR
STARTCHAR u+2ce
ENCODING 718
SWIDTH 500 0
DWIDTH 8 0
BBX 2 2 3 -3
BITMAP
80
40
ENDCHAR
STARTCHAR u+2cf
ENCODING 719
SWIDTH 500 0
DWIDTH 8 0
BBX 2 2 3 -3
BITMAP
40
80
ENDCHAR
STARTCHAR u+2d0
ENCODING 720
SWIDTH 500 0
DWIDTH 8 0
BBX 3 6 2 0
BITMAP
E0
40
00
00
40
E0
ENDCHAR
STARTCHAR u+2d1
ENCODING 721
SWIDTH 500 0
DWIDTH 8 0
BBX 3 2 2 4
BITMAP
E0
40
ENDCHAR
STARTCHAR u+2d2
ENCODING 722
SWIDTH 500 0
DWIDTH 8 0
BBX 2 3 3 1
BITMAP
80
40
80
ENDCHAR
STARTCHAR u+2d3
ENCODING 723
SWIDTH 500 0
DWIDTH 8 0
BBX 2 3 3 1
BITMAP
40
80
40
ENDCHAR
STARTCHAR u+2d4
ENCODING 724
SWIDTH 500 0
DWIDTH 8 0
BBX 3 2 2 1
BITMAP
40
E0
ENDCHAR
STARTCHAR u+2d5
ENCODING 725
SWIDTH 500 0
DWIDTH 8 0
BBX 3 2 2 1
BITMAP
E0
40
ENDCHAR
STARTCHAR u+2d6
ENCODING 726
SWIDTH 500 0
DWIDTH 8 0
BBX 3 3 2 1
BITMAP
40
E0
40
ENDCHAR
STARTCHAR u+2d7
ENCODING 727
SWIDTH 500 0
DWIDTH 8 0
BBX 4 1 2 1
BITMAP
F0
ENDCHAR
STARTCHAR u+2d8
ENCODING 728
SWIDTH 500 0
DWIDTH 8 0
BBX 4 2 2 7
BITMAP
90
60
ENDCHAR
STARTCHAR u+2d9
ENCODING 729
SWIDTH 500 0
DWIDTH 8 0
BBX 2 2 3 7
BITMAP
C0
C0
ENDCHAR
STARTCHAR u+2da
ENCODING 730
SWIDTH 500 0
DWIDTH 8 0
BBX 3 3 3 7
BITMAP
E0
A0
E0
ENDCHAR
STARTCHAR u+2db
ENCODING 731
SWIDTH 500 0
DWIDTH 8 0
BBX 3 3 3 -2
BITMAP
C0
80
E0
ENDCHAR
STARTCHAR u+2dc
ENCODING 732
SWIDTH 500 0
DWIDTH 8 0
BBX 4 2 2 7
BITMAP
D0
B0
ENDCHAR
STARTCHAR u+2dd
ENCODING 733
SWIDTH 500 0
DWIDTH 8 0
BBX 4 2 2 7
BITMAP
50
A0
ENDCHAR
STARTCHAR u+2de
ENCODING 734
SWIDTH 500 0
DWIDTH 8 0
BBX 4 3 2 2
BITMAP
20
E0
30
ENDCHAR
STARTCHAR u+2df
ENCODING 735
SWIDTH 500 0
DWIDTH 8 0
BBX 5 5 2 4
BITMAP
88
50
20
50
88
ENDCHAR
STARTCHAR u+2e0
ENCODING 736
SWIDTH 500 0
DWIDTH 8 0
BBX 5 6 2 1
BITMAP
D8
50
20
20
50
70
ENDCHAR
STARTCHAR u+2e1
ENCODING 737
SWIDTH 500 0
DWIDTH 8 0
BBX 5 6 2 3
BITMAP
E0
20
20
20
20
F8
ENDCHAR
STARTCHAR u+2e2
ENCODING 738
SWIDTH 500 0
DWIDTH 8 0
BBX 4 4 2 3
BITMAP
70
C0
30
E0
ENDCHAR
STARTCHAR u+2e3
ENCODING 739
SWIDTH 500 0
DWIDTH 8 0
BBX 4 4 2 3
BITMAP
F0
60
60
F0
ENDCHAR
STARTCHAR u+2e4
ENCODING 740
SWIDTH 500 0
DWIDTH 8 0
BBX 4 6 2 3
BITMAP
70
90
80
60
20
70
ENDCHAR
STARTCHAR u+2ec
ENCODING 748
SWIDTH 500 0
DWIDTH 8 0
BBX 4 2 2 -3
BITMAP
90
60
ENDCHAR
STARTCHAR u+2ed
ENCODING 749
SWIDTH 500 0
DWIDTH 8 0
BBX 4 3 2 7
BITMAP
F0
00
F0
ENDCHAR
STARTCHAR u+2ee
ENCODING 750
SWIDTH 500 0
DWIDTH 8 0
BBX 7 4 1 4
BITMAP
66
44
CC
88
ENDCHAR
STARTCHAR u+2ef
ENCODING 751
SWIDTH 500 0
DWIDTH 8 0
BBX 3 2 3 -3
BITMAP
A0
40
ENDCHAR
STARTCHAR u+2f0
ENCODING 752
SWIDTH 500 0
DWIDTH 8 0
BBX 3 2 3 -3
BITMAP
40
A0
ENDCHAR
STARTCHAR u+2f1
ENCODING 753
SWIDTH 500 0
DWIDTH 8 0
BBX 2 3 3 -4
BITMAP
40
80
40
ENDCHAR
STARTCHAR u+2f2
ENCODING 754
SWIDTH 500 0
DWIDTH 8 0
BBX 2 3 3 -4
BITMAP
80
40
80
ENDCHAR
STARTCHAR u+2f3
ENCODING 755
SWIDTH 500 0
DWIDTH 8 0
BBX 3 3 2 -4
BITMAP
E0
A0
E0
ENDCHAR
STARTCHAR u+2f4
ENCODING 756
SWIDTH 500 0
DWIDTH 8 0
BBX 2 2 3 1
BITMAP
80
40
ENDCHAR
STARTCHAR u+2f5
ENCODING 757
SWIDTH 500 0
DWIDTH 8 0
BBX 4 2 2 1
BITMAP
A0
50
ENDCHAR
STARTCHAR u+2f6
ENCODING 758
SWIDTH 500 0
DWIDTH 8 0
BBX 4 2 2 1
BITMAP
50
A0
ENDCHAR
STARTCHAR u+2f7
ENCODING 759
SWIDTH 500 0
DWIDTH 8 0
BBX 5 2 1 -3
BITMAP
68
B0
ENDCHAR
STARTCHAR u+2f8
ENCODING 760
SWIDTH 500 0
DWIDTH 8 0
BBX 2 6 3 2
BITMAP
C0
C0
00
00
C0
C0
ENDCHAR
STARTCHAR u+2f9
ENCODING 761
SWIDTH 500 0
DWIDTH 8 0
BBX 2 2 3 6
BITMAP
C0
80
ENDCHAR
STARTCHAR u+2fa
ENCODING 762
SWIDTH 500 0
DWIDTH 8 0
BBX 2 2 3 6
BITMAP
C0
40
ENDCHAR
STARTCHAR u+2fb
ENCODING 763
SWIDTH 500 0
DWIDTH 8 0
BBX 2 2 3 -3
BITMAP
80
C0
ENDCHAR
STARTCHAR u+2fc
ENCODING 764
SWIDTH 500 0
DWIDTH 8 0
BBX 2 2 3 -3
BITMAP
40
C0
ENDCHAR
STARTCHAR u+2fd
ENCODING 765
SWIDTH 500 0
DWIDTH 8 0
BBX 4 2 2 -3
BITMAP
90
F0
ENDCHAR
STARTCHAR u+2fe
ENCODING 766
SWIDTH 500 0
DWIDTH 8 0
BBX 4 2 2 -3
BITMAP
80
F0
ENDCHAR
STARTCHAR u+2ff
ENCODING 767
SWIDTH 500 0
DWIDTH 8 0
BBX 4 5 2 -3
BITMAP
40
80
F0
80
40
ENDCHAR
STARTCHAR u+300
ENCODING 768
SWIDTH 500 0
DWIDTH 8 0
BBX 3 2 3 10
BITMAP
C0
20
ENDCHAR
STARTCHAR u+301
ENCODING 769
SWIDTH 500 0
DWIDTH 8 0
BBX 3 2 3 10
BITMAP
60
80
ENDCHAR
STARTCHAR u+302
ENCODING 770
SWIDTH 500 0
DWIDTH 8 0
BBX 4 2 2 7
BITMAP
60
90
ENDCHAR
STARTCHAR u+303
ENCODING 771
SWIDTH 500 0
DWIDTH 8 0
BBX 5 2 2 10
BITMAP
68
B0
ENDCHAR
STARTCHAR u+304
ENCODING 772
SWIDTH 500 0
DWIDTH 8 0
BBX 4 1 2 7
BITMAP
F0
ENDCHAR
STARTCHAR u+305
ENCODING 773
SWIDTH 500 0
DWIDTH 8 0
BBX 10 1 -1 9
BITMAP
FFC0
ENDCHAR
STARTCHAR u+306
ENCODING 774
SWIDTH 500 0
DWIDTH 8 0
BBX 4 2 2 7
BITMAP
90
60
ENDCHAR
STARTCHAR u+307
ENCODING 775
SWIDTH 500 0
DWIDTH 8 0
BBX 2 2 3 7
BITMAP
C0
C0
ENDCHAR
STARTCHAR u+308
ENCODING 776
SWIDTH 500 0
DWIDTH 8 0
BBX 4 1 2 7
BITMAP
90
ENDCHAR
STARTCHAR u+309
ENCODING 777
SWIDTH 500 0
DWIDTH 8 0
BBX 3 2 3 10
BITMAP
E0
40
ENDCHAR
STARTCHAR u+30a
ENCODING 778
SWIDTH 500 0
DWIDTH 8 0
BBX 3 3 2 7
BITMAP
E0
A0
E0
ENDCHAR
STARTCHAR u+30b
ENCODING 779
SWIDTH 500 0
DWIDTH 8 0
BBX 4 2 2 7
BITMAP
50
A0
ENDCHAR
STARTCHAR u+30c
ENCODING 780
SWIDTH 500 0
DWIDTH 8 0
BBX 4 2 2 7
BITMAP
90
60
ENDCHAR
STARTCHAR u+30d
ENCODING 781
SWIDTH 500 0
DWIDTH 8 0
BBX 1 3 4 7
BITMAP
80
80
80
ENDCHAR
STARTCHAR u+30e
ENCODING 782
SWIDTH 500 0
DWIDTH 8 0
BBX 3 3 3 7
BITMAP
A0
A0
A0
ENDCHAR
STARTCHAR u+30f
ENCODING 783
SWIDTH 500 0
DWIDTH 8 0
BBX 4 2 2 7
BITMAP
A0
50
ENDCHAR
STARTCHAR u+310
ENCODING 784
SWIDTH 500 0
DWIDTH 8 0
BBX 6 4 1 7
BITMAP
30
30
84
78
ENDCHAR
STARTCHAR u+311
ENCODING 785
SWIDTH 500 0
DWIDTH 8 0
BBX 4 2 2 7
BITMAP
60
90
ENDCHAR
STARTCHAR u+312
ENCODING 786
SWIDTH 500 0
DWIDTH 8 0
BBX 3 4 3 4
BITMAP
C0
40
60
20
ENDCHAR
STARTCHAR u+313
ENCODING 787
SWIDTH 500 0
DWIDTH 8 0
BBX 3 4 2 4
BITMAP
60
40
C0
80
ENDCHAR
STARTCHAR u+314
ENCODING 788
SWIDTH 500 0
DWIDTH 8 0
BBX 3 4 3 4
BITMAP
C0
40
60
20
ENDCHAR
STARTCHAR u+315
ENCODING 789
SWIDTH 500 0
DWIDTH 8 0
BBX 3 4 5 4
BITMAP
60
40
C0
80
ENDCHAR
STARTCHAR u+316
ENCODING 790
SWIDTH 500 0
DWIDTH 8 0
BBX 2 2 3 -3
BITMAP
80
40
ENDCHAR
STARTCHAR u+317
ENCODING 791
SWIDTH 500 0
DWIDTH 8 0
BBX 2 2 3 -3
BITMAP
40
80
ENDCHAR
STARTCHAR u+318
ENCODING 792
SWIDTH 500 0
DWIDTH 8 0
BBX 2 3 2 -4
BITMAP
40
C0
40
ENDCHAR
STARTCHAR u+319
ENCODING 793
SWIDTH 500 0
DWIDTH 8 0
BBX 2 3 1 -4
BITMAP
80
C0
80
ENDCHAR
STARTCHAR u+31a
ENCODING 794
SWIDTH 500 0
DWIDTH 8 0
BBX 5 2 1 6
BITMAP
F8
08
ENDCHAR
STARTCHAR u+31b
ENCODING 795
SWIDTH 500 0
DWIDTH 8 0
BBX 3 3 2 7
BITMAP
20
20
C0
ENDCHAR
STARTCHAR u+31c
ENCODING 796
SWIDTH 500 0
DWIDTH 8 0
BBX 2 3 3 -4
BITMAP
40
80
40
ENDCHAR
STARTCHAR u+31d
ENCODING 797
SWIDTH 500 0
DWIDTH 8 0
BBX 3 2 2 -3
BITMAP
40
E0
ENDCHAR
STARTCHAR u+31e
ENCODING 798
SWIDTH 500 0
DWIDTH 8 0
BBX 3 2 2 -3
BITMAP
E0
40
ENDCHAR
STARTCHAR u+31f
ENCODING 799
SWIDTH 500 0
DWIDTH 8 0
BBX 3 3 2 -4
BITMAP
40
E0
40
ENDCHAR
STARTCHAR u+320
ENCODING 800
SWIDTH 500 0
DWIDTH 8 0
BBX 4 1 2 -3
BITMAP
F0
ENDCHAR
STARTCHAR u+321
ENCODING 801
SWIDTH 500 0
DWIDTH 8 0
BBX 4 4 1 -3
BITMAP
30
30
30
E0
ENDCHAR
STARTCHAR u+322
ENCODING 802
SWIDTH 500 0
DWIDTH 8 0
BBX 4 4 1 -3
BITMAP
C0
C0
C0
70
ENDCHAR
STARTCHAR u+323
ENCODING 803
SWIDTH 500 0
DWIDTH 8 0
BBX 2 2 3 -3
BITMAP
C0
C0
ENDCHAR
STARTCHAR u+324
ENCODING 804
SWIDTH 500 0
DWIDTH 8 0
BBX 4 1 2 -2
BITMAP
90
ENDCHAR
STARTCHAR u+325
ENCODING 805
SWIDTH 500 0
DWIDTH 8 0
BBX 3 3 2 -4
BITMAP
E0
A0
E0
ENDCHAR
STARTCHAR u+326
ENCODING 806
SWIDTH 500 0
DWIDTH 8 0
BBX 2 3 3 -4
BITMAP
C0
40
80
ENDCHAR
STARTCHAR u+327
ENCODING 807
SWIDTH 500 0
DWIDTH 8 0
BBX 3 5 3 -4
BITMAP
40
40
60
20
E0
ENDCHAR
STARTCHAR u+328
ENCODING 808
SWIDTH 500 0
DWIDTH 8 0
BBX 3 3 3 -2
BITMAP
C0
80
E0
ENDCHAR
STARTCHAR u+329
ENCODING 809
SWIDTH 500 0
DWIDTH 8 0
BBX 1 3 4 -4
BITMAP
80
80
80
ENDCHAR
STARTCHAR u+32a
ENCODING 810
SWIDTH 500 0
DWIDTH 8 0
BBX 4 2 2 -3
BITMAP
F0
90
ENDCHAR
STARTCHAR u+32b
ENCODING 811
SWIDTH 500 0
DWIDTH 8 0
BBX 5 2 2 -3
BITMAP
A8
D8
ENDCHAR
STARTCHAR u+32c
ENCODING 812
SWIDTH 500 0
DWIDTH 8 0
BBX 4 2 2 -3
BITMAP
90
60
ENDCHAR
STARTCHAR u+32d
ENCODING 813
SWIDTH 500 0
DWIDTH 8 0
BBX 4 2 2 -3
BITMAP
60
90
ENDCHAR
STARTCHAR u+32e
ENCODING 814
SWIDTH 500 0
DWIDTH 8 0
BBX 4 2 2 -3
BITMAP
90
60
ENDCHAR
STARTCHAR u+32f
ENCODING 815
SWIDTH 500 0
DWIDTH 8 0
BBX 4 2 2 -3
BITMAP
60
90
ENDCHAR
STARTCHAR u+330
ENCODING 816
SWIDTH 500 0
DWIDTH 8 0
BBX 5 2 1 -3
BITMAP
68
B0
ENDCHAR
STARTCHAR u+331
ENCODING 817
SWIDTH 500 0
DWIDTH 8 0
BBX 4 1 2 -3
BITMAP
F0
ENDCHAR
STARTCHAR u+332
ENCODING 818
SWIDTH 500 0
DWIDTH 8 0
BBX 10 1 -1 -4
BITMAP
FFC0
ENDCHAR
STARTCHAR u+333
ENCODING 819
SWIDTH 500 0
DWIDTH 8 0
BBX 4 3 2 -4
BITMAP
F0
00
F0
ENDCHAR
STARTCHAR u+334
ENCODING 820
SWIDTH 500 0
DWIDTH 8 0
BBX 5 2 1 1
BITMAP
68
B0
ENDCHAR
STARTCHAR u+335
ENCODING 821
SWIDTH 500 0
DWIDTH 8 0
BBX 4 1 2 1
BITMAP
F0
ENDCHAR
STARTCHAR u+336
ENCODING 822
SWIDTH 500 0
DWIDTH 8 0
BBX 10 1 -1 1
BITMAP
FFC0
ENDCHAR
STARTCHAR u+337
ENCODING 823
SWIDTH 500 0
DWIDTH 8 0
BBX 8 8 0 -1
BITMAP
01
03
06
0C
18
30
60
C0
ENDCHAR
STARTCHAR u+338
ENCODING 824
SWIDTH 500 0
DWIDTH 8 0
BBX 6 12 1 -2
BITMAP
0C
0C
18
18
18
30
30
60
60
60
C0
C0
ENDCHAR
STARTCHAR u+339
ENCODING 825
SWIDTH 500 0
DWIDTH 8 0
BBX 2 3 3 -4
BITMAP
80
40
80
ENDCHAR
STARTCHAR u+33a
ENCODING 826
SWIDTH 500 0
DWIDTH 8 0
BBX 4 2 2 -3
BITMAP
90
F0
ENDCHAR
STARTCHAR u+33b
ENCODING 827
SWIDTH 500 0
DWIDTH 8 0
BBX 3 3 2 -4
BITMAP
E0
A0
E0
ENDCHAR
STARTCHAR u+33c
ENCODING 828
SWIDTH 500 0
DWIDTH 8 0
BBX 5 3 1 -4
BITMAP
50
A8
20
ENDCHAR
STARTCHAR u+33d
ENCODING 829
SWIDTH 500 0
DWIDTH 8 0
BBX 3 3 2 7
BITMAP
A0
40
A0
ENDCHAR
STARTCHAR u+33e
ENCODING 830
SWIDTH 500 0
DWIDTH 8 0
BBX 2 4 3 5
BITMAP
C0
80
40
C0
ENDCHAR
STARTCHAR u+33f
ENCODING 831
SWIDTH 500 0
DWIDTH 8 0
BBX 10 3 -1 9
BITMAP
FFC0
0000
FFC0
ENDCHAR
STARTCHAR u+340
ENCODING 832
SWIDTH 500 0
DWIDTH 8 0
BBX 2 2 3 7
BITMAP
80
40
ENDCHAR
STARTCHAR u+341
ENCODING 833
SWIDTH 500 0
DWIDTH 8 0
BBX 2 2 3 7
BITMAP
40
80
ENDCHAR
STARTCHAR u+342
ENCODING 834
SWIDTH 500 0
DWIDTH 8 0
BBX 5 2 1 7
BITMAP
68
B0
ENDCHAR
STARTCHAR u+343
ENCODING 835
SWIDTH 500 0
DWIDTH 8 0
BBX 3 4 2 4
BITMAP
60
40
C0
80
ENDCHAR
STARTCHAR u+344
ENCODING 836
SWIDTH 500 0
DWIDTH 8 0
BBX 5 3 1 7
BITMAP
10
20
A8
ENDCHAR
STARTCHAR u+345
ENCODING 837
SWIDTH 500 0
DWIDTH 8 0
BBX 2 2 3 -3
BITMAP
80
C0
ENDCHAR
STARTCHAR u+346
ENCODING 838
SWIDTH 500 0
DWIDTH 8 0
BBX 4 2 2 6
BITMAP
F0
90
ENDCHAR
STARTCHAR u+347
ENCODING 839
SWIDTH 500 0
DWIDTH 8 0
BBX 6 3 1 -4
BITMAP
FC
00
FC
ENDCHAR
STARTCHAR u+348
ENCODING 840
SWIDTH 500 0
DWIDTH 8 0
BBX 3 3 2 -4
BITMAP
A0
A0
A0
ENDCHAR
STARTCHAR u+349
ENCODING 841
SWIDTH 500 0
DWIDTH 8 0
BBX 2 2 3 -3
BITMAP
C0
40
ENDCHAR
STARTCHAR u+34a
ENCODING 842
SWIDTH 500 0
DWIDTH 8 0
BBX 5 4 1 6
BITMAP
10
68
B0
40
ENDCHAR
STARTCHAR u+34b
ENCODING 843
SWIDTH 500 0
DWIDTH 8 0
BBX 5 4 1 7
BITMAP
20
68
B0
20
ENDCHAR
STARTCHAR u+34c
ENCODING 844
SWIDTH 500 0
DWIDTH 8 0
BBX 5 4 1 7
BITMAP
68
B0
68
B0
ENDCHAR
STARTCHAR u+34d
ENCODING 845
SWIDTH 500 0
DWIDTH 8 0
BBX 5 3 2 -4
BITMAP
50
F8
50
ENDCHAR
STARTCHAR u+34e
ENCODING 846
SWIDTH 500 0
DWIDTH 8 0
BBX 3 3 3 -4
BITMAP
40
E0
40
ENDCHAR
STARTCHAR u+34f
ENCODING 847
SWIDTH 500 0
DWIDTH 8 0
BBX 8 8 0 0
BITMAP
DB
81
38
A5
A5
38
81
DB
ENDCHAR
STARTCHAR u+350
ENCODING 848
SWIDTH 500 0
DWIDTH 8 0
BBX 2 3 3 5
BITMAP
80
40
80
ENDCHAR
STARTCHAR u+351
ENCODING 849
SWIDTH 500 0
DWIDTH 8 0
BBX 2 3 3 7
BITMAP
40
80
40
ENDCHAR
STARTCHAR u+352
ENCODING 850
SWIDTH 500 0
DWIDTH 8 0
BBX 6 4 1 7
BITMAP
78
84
30
30
ENDCHAR
STARTCHAR u+353
ENCODING 851
SWIDTH 500 0
DWIDTH 8 0
BBX 3 3 2 -4
BITMAP
A0
40
A0
ENDCHAR
STARTCHAR u+354
ENCODING 852
SWIDTH 500 0
DWIDTH 8 0
BBX 2 3 3 -4
BITMAP
40
80
40
ENDCHAR
STARTCHAR u+355
ENCODING 853
SWIDTH 500 0
DWIDTH 8 0
BBX 2 3 3 -4
BITMAP
80
40
80
ENDCHAR
STARTCHAR u+356
ENCODING 854
SWIDTH 500 0
DWIDTH 8 0
BBX 5 3 2 -4
BITMAP
80
50
A8
ENDCHAR
STARTCHAR u+357
ENCODING 855
SWIDTH 500 0
DWIDTH 8 0
BBX 2 3 3 7
BITMAP
80
40
80
ENDCHAR
STARTCHAR u+358
ENCODING 856
SWIDTH 500 0
DWIDTH 8 0
BBX 1 1 6 8
BITMAP
80
ENDCHAR
STARTCHAR u+359
ENCODING 857
SWIDTH 500 0
DWIDTH 8 0
BBX 3 3 3 -4
BITMAP
40
E0
A0
ENDCHAR
STARTCHAR u+35a
ENCODING 858
SWIDTH 500 0
DWIDTH 8 0
BBX 5 3 2 -4
BITMAP
D8
A8
D8
ENDCHAR
STARTCHAR u+35b
ENCODING 859
SWIDTH 500 0
DWIDTH 8 0
BBX 3 3 3 8
BITMAP
40
E0
40
ENDCHAR
STARTCHAR u+35c
ENCODING 860
SWIDTH 500 0
DWIDTH 8 0
BBX 8 2 0 -3
BITMAP
81
7E
ENDCHAR
STARTCHAR u+35d
ENCODING 861
SWIDTH 500 0
DWIDTH 8 0
BBX 8 2 0 7
BITMAP
81
7E
ENDCHAR
STARTCHAR u+35e
ENCODING 862
SWIDTH 500 0
DWIDTH 8 0
BBX 10 1 -1 9
BITMAP
FFC0
ENDCHAR
STARTCHAR u+35f
ENCODING 863
SWIDTH 500 0
DWIDTH 8 0
BBX 10 1 -1 -4
BITMAP
FFC0
ENDCHAR
STARTCHAR u+360
ENCODING 864
SWIDTH 500 0
DWIDTH 8 0
BBX 8 2 0 7
BITMAP
71
8E
ENDCHAR
STARTCHAR u+361
ENCODING 865
SWIDTH 500 0
DWIDTH 8 0
BBX 8 2 0 7
BITMAP
7E
81
ENDCHAR
STARTCHAR u+362
ENCODING 866
SWIDTH 500 0
DWIDTH 8 0
BBX 8 3 0 -4
BITMAP
02
FF
02
ENDCHAR
STARTCHAR u+363
ENCODING 867
SWIDTH 500 0
DWIDTH 8 0
BBX 5 4 2 3
BITMAP
E0
70
90
78
ENDCHAR
STARTCHAR u+364
ENCODING 868
SWIDTH 500 0
DWIDTH 8 0
BBX 4 4 2 3
BITMAP
60
F0
80
70
ENDCHAR
STARTCHAR u+365
ENCODING 869
SWIDTH 500 0
DWIDTH 8 0
BBX 5 6 2 3
BITMAP
20
00
E0
20
20
F8
ENDCHAR
STARTCHAR u+366
ENCODING 870
SWIDTH 500 0
DWIDTH 8 0
BBX 4 4 2 3
BITMAP
60
90
90
60
ENDCHAR
STARTCHAR u+367
ENCODING 871
SWIDTH 500 0
DWIDTH 8 0
BBX 6 4 1 3
BITMAP
D8
48
48
3C
ENDCHAR
STARTCHAR u+368
ENCODING 872
SWIDTH 500 0
DWIDTH 8 0
BBX 4 4 2 3
BITMAP
70
90
80
70
ENDCHAR
STARTCHAR u+369
ENCODING 873
SWIDTH 500 0
DWIDTH 8 0
BBX 5 6 2 3
BITMAP
30
10
70
90
90
78
ENDCHAR
STARTCHAR u+36a
ENCODING 874
SWIDTH 500 0
DWIDTH 8 0
BBX 6 6 1 3
BITMAP
C0
40
70
48
48
EC
ENDCHAR
STARTCHAR u+36b
ENCODING 875
SWIDTH 500 0
DWIDTH 8 0
BBX 7 4 1 3
BITMAP
F8
54
54
D6
ENDCHAR
STARTCHAR u+36c
ENCODING 876
SWIDTH 500 0
DWIDTH 8 0
BBX 4 4 2 3
BITMAP
F0
40
40
E0
ENDCHAR
STARTCHAR u+36d
ENCODING 877
SWIDTH 500 0
DWIDTH 8 0
BBX 5 5 2 3
BITMAP
40
F0
40
40
38
ENDCHAR
STARTCHAR u+36e
ENCODING 878
SWIDTH 500 0
DWIDTH 8 0
BBX 5 4 1 3
BITMAP
D8
50
50
20
ENDCHAR
STARTCHAR u+36f
ENCODING 879
SWIDTH 500 0
DWIDTH 8 0
BBX 4 4 2 3
BITMAP
F0
60
60
F0
ENDCHAR
STARTCHAR u+374
ENCODING 884
SWIDTH 500 0
DWIDTH 8 0
BBX 2 2 3 7
BITMAP
40
80
ENDCHAR
STARTCHAR u+375
ENCODING 885
SWIDTH 500 0
DWIDTH 8 0
BBX 2 2 3 -3
BITMAP
40
80
ENDCHAR
STARTCHAR u+37a
ENCODING 890
SWIDTH 500 0
DWIDTH 8 0
BBX 2 2 3 -3
BITMAP
80
C0
ENDCHAR
STARTCHAR u+37b
ENCODING 891
SWIDTH 500 0
DWIDTH 8 0
BBX 7 6 0 0
BITMAP
7C
8E
06
06
8E
7C
ENDCHAR
STARTCHAR u+37c
ENCODING 892
SWIDTH 500 0
DWIDTH 8 0
BBX 6 6 1 0
BITMAP
78
C4
D8
D8
C4
78
ENDCHAR
STARTCHAR u+37d
ENCODING 893
SWIDTH 500 0
DWIDTH 8 0
BBX 7 6 0 0
BITMAP
7C
8E
36
36
8E
7C
ENDCHAR
STARTCHAR u+37e
ENCODING 894
SWIDTH 500 0
DWIDTH 8 0
BBX 3 8 3 -2
BITMAP
60
60
00
00
60
40
80
80
ENDCHAR
STARTCHAR u+384
ENCODING 900
SWIDTH 500 0
DWIDTH 8 0
BBX 2 2 3 7
BITMAP
40
80
ENDCHAR
STARTCHAR u+385
ENCODING 901
SWIDTH 500 0
DWIDTH 8 0
BBX 7 3 1 6
BITMAP
08
DE
D6
ENDCHAR
STARTCHAR u+386
ENCODING 902
SWIDTH 500 0
DWIDTH 8 0
BBX 9 8 0 0
BITMAP
BC00
9C00
B600
3600
3600
7F00
6300
F780
ENDCHAR
STARTCHAR u+387
ENCODING 903
SWIDTH 500 0
DWIDTH 8 0
BBX 2 2 3 4
BITMAP
C0
C0
ENDCHAR
STARTCHAR u+388
ENCODING 904
SWIDTH 500 0
DWIDTH 8 0
BBX 8 8 0 0
BITMAP
BF
B1
B5
3C
34
31
31
7F
ENDCHAR
STARTCHAR u+389
ENCODING 905
SWIDTH 500 0
DWIDTH 8 0
BBX 9 8 -1 0
BITMAP
B380
B300
B300
3F00
3300
3300
3300
7380
ENDCHAR
STARTCHAR u+38a
ENCODING 906
SWIDTH 500 0
DWIDTH 8 0
BBX 8 8 0 0
BITMAP
BF
8C
8C
0C
0C
0C
0C
3F
ENDCHAR
STARTCHAR u+38c
ENCODING 908
SWIDTH 500 0
DWIDTH 8 0
BBX 7 8 0 0
BITMAP
9C
B6
B6
36
36
36
36
1C
ENDCHAR
STARTCHAR u+38e
ENCODING 910
SWIDTH 500 0
DWIDTH 8 0
BBX 9 8 0 0
BITMAP
B780
B300
9200
1E00
0C00
0C00
0C00
3F00
ENDCHAR
STARTCHAR u+38f
ENCODING 911
SWIDTH 500 0
DWIDTH 8 0
BBX 7 8 0 0
BITMAP
BC
E6
E6
66
66
66
24
66
ENDCHAR
STARTCHAR u+390
ENCODING 912
SWIDTH 500 0
DWIDTH 8 0
BBX 7 10 -1 0
BITMAP
08
DE
D6
00
18
18
18
18
18
0E
ENDCHAR
STARTCHAR u+391
ENCODING 913
SWIDTH 500 0
DWIDTH 8 0
BBX 9 8 0 0
BITMAP
7C00
1C00
3600
3600
3600
7F00
6300
F780
ENDCHAR
STARTCHAR u+392
ENCODING 914
SWIDTH 500 0
DWIDTH 8 0
BBX 7 8 0 0
BITMAP
FC
66
66
7C
66
66
66
FC
ENDCHAR
STARTCHAR u+393
ENCODING 915
SWIDTH 500 0
DWIDTH 8 0
BBX 7 8 0 0
BITMAP
FE
62
62
62
60
60
60
F0
ENDCHAR
STARTCHAR u+394
ENCODING 916
SWIDTH 500 0
DWIDTH 8 0
BBX 8 8 0 0
BITMAP
18
18
3C
24
66
66
C3
FF
ENDCHAR
STARTCHAR u+395
ENCODING 917
SWIDTH 500 0
DWIDTH 8 0
BBX 7 8 0 0
BITMAP
FE
62
6A
78
68
62
62
FE
ENDCHAR
STARTCHAR u+396
ENCODING 918
SWIDTH 500 0
DWIDTH 8 0
BBX 6 8 1 0
BITMAP
FC
8C
98
30
30
64
C4
FC
ENDCHAR
STARTCHAR u+397
ENCODING 919
SWIDTH 500 0
DWIDTH 8 0
BBX 8 8 0 0
BITMAP
E7
66
66
7E
66
66
66
E7
ENDCHAR
STARTCHAR u+398
ENCODING 920
SWIDTH 500 0
DWIDTH 8 0
BBX 6 8 1 0
BITMAP
78
CC
CC
FC
CC
CC
CC
78
ENDCHAR
STARTCHAR u+399
ENCODING 921
SWIDTH 500 0
DWIDTH 8 0
BBX 6 8 1 0
BITMAP
FC
30
30
30
30
30
30
FC
ENDCHAR
STARTCHAR u+39a
ENCODING 922
SWIDTH 500 0
DWIDTH 8 0
BBX 8 8 0 0
BITMAP
F7
66
6C
78
7C
66
66
F3
ENDCHAR
STARTCHAR u+39b
ENCODING 923
SWIDTH 500 0
DWIDTH 8 0
BBX 8 8 0 0
BITMAP
78
18
3C
3C
24
66
66
F7
ENDCHAR
STARTCHAR u+39c
ENCODING 924
SWIDTH 500 0
DWIDTH 8 0
BBX 9 8 -1 0
BITMAP
E380
7700
7700
7700
6B00
6B00
6300
F780
ENDCHAR
STARTCHAR u+39d
ENCODING 925
SWIDTH 500 0
DWIDTH 8 0
BBX 8 8 0 0
BITMAP
EF
66
76
76
6E
6E
66
F6
ENDCHAR
STARTCHAR u+39e
ENCODING 926
SWIDTH 500 0
DWIDTH 8 0
BBX 6 8 1 0
BITMAP
FC
CC
CC
30
00
CC
CC
FC
ENDCHAR
STARTCHAR u+39f
ENCODING 927
SWIDTH 500 0
DWIDTH 8 0
BBX 6 8 1 0
BITMAP
78
CC
CC
CC
CC
CC
CC
78
ENDCHAR
STARTCHAR u+3a0
ENCODING 928
SWIDTH 500 0
DWIDTH 8 0
BBX 8 8 0 0
BITMAP
FF
66
66
66
66
66
66
F7
ENDCHAR
STARTCHAR u+3a1
ENCODING 929
SWIDTH 500 0
DWIDTH 8 0
BBX 7 8 0 0
BITMAP
FC
66
66
66
7C
60
60
F8
ENDCHAR
STARTCHAR u+3a3
ENCODING 931
SWIDTH 500 0
DWIDTH 8 0
BBX 6 8 1 0
BITMAP
FC
C4
64
30
30
64
C4
FC
ENDCHAR
STARTCHAR u+3a4
ENCODING 932
SWIDTH 500 0
DWIDTH 8 0
BBX 6 8 1 0
BITMAP
FC
B4
B4
30
30
30
30
78
ENDCHAR
STARTCHAR u+3a5
ENCODING 933
SWIDTH 500 0
DWIDTH 8 0
BBX 8 8 0 0
BITMAP
EF
66
24
3C
18
18
18
7E
ENDCHAR
STARTCHAR u+3a6
ENCODING 934
SWIDTH 500 0
DWIDTH 8 0
BBX 8 8 0 0
BITMAP
3C
18
7E
DB
DB
7E
18
3C
ENDCHAR
STARTCHAR u+3a7
ENCODING 935
SWIDTH 500 0
DWIDTH 8 0
BBX 8 8 0 0
BITMAP
EF
66
3C
18
18
3C
66
F7
ENDCHAR
STARTCHAR u+3a8
ENCODING 936
SWIDTH 500 0
DWIDTH 8 0
BBX 10 8 -1 0
BITMAP
EDC0
6D80
6D80
6D80
6D80
3F00
0C00
1E00
ENDCHAR
STARTCHAR u+3a9
ENCODING 937
SWIDTH 500 0
DWIDTH 8 0
BBX 7 8 0 0
BITMAP
38
6C
C6
C6
C6
C6
6C
EE
ENDCHAR
STARTCHAR u+3aa
ENCODING 938
SWIDTH 500 0
DWIDTH 8 0
BBX 6 10 1 0
BITMAP
48
00
FC
30
30
30
30
30
30
FC
ENDCHAR
STARTCHAR u+3ab
ENCODING 939
SWIDTH 500 0
DWIDTH 8 0
BBX 8 10 0 0
BITMAP
24
00
EF
66
24
3C
18
18
18
7E
ENDCHAR
STARTCHAR u+3ac
ENCODING 940
SWIDTH 500 0
DWIDTH 8 0
BBX 7 9 1 0
BITMAP
08
10
00
76
DE
CC
CC
CC
76
ENDCHAR
STARTCHAR u+3ad
ENCODING 941
SWIDTH 500 0
DWIDTH 8 0
BBX 5 9 1 0
BITMAP
10
20
00
78
C8
60
C0
C8
70
ENDCHAR
STARTCHAR u+3ae
ENCODING 942
SWIDTH 500 0
DWIDTH 8 0
BBX 7 12 0 -3
BITMAP
08
10
00
FC
66
66
66
66
F6
06
06
06
ENDCHAR
STARTCHAR u+3af
ENCODING 943
SWIDTH 500 0
DWIDTH 8 0
BBX 4 9 2 0
BITMAP
40
80
00
C0
C0
C0
C0
C0
70
ENDCHAR
STARTCHAR u+3b0
ENCODING 944
SWIDTH 500 0
DWIDTH 8 0
BBX 8 10 0 0
BITMAP
04
6F
6B
00
EF
66
66
66
66
3C
ENDCHAR
STARTCHAR u+3b1
ENCODING 945
SWIDTH 500 0
DWIDTH 8 0
BBX 7 6 1 0
BITMAP
76
DE
CC
CC
CC
76
ENDCHAR
STARTCHAR u+3b2
ENCODING 946
SWIDTH 500 0
DWIDTH 8 0
BBX 6 12 1 -3
BITMAP
78
CC
CC
CC
D8
CC
CC
CC
F8
C0
C0
C0
ENDCHAR
STARTCHAR u+3b3
ENCODING 947
SWIDTH 500 0
DWIDTH 8 0
BBX 8 9 0 -3
BITMAP
E7
66
24
3C
3C
18
18
18
18
ENDCHAR
STARTCHAR u+3b4
ENCODING 948
SWIDTH 500 0
DWIDTH 8 0
BBX 6 9 1 0
BITMAP
78
60
30
78
CC
CC
CC
CC
78
ENDCHAR
STARTCHAR u+3b5
ENCODING 949
SWIDTH 500 0
DWIDTH 8 0
BBX 5 6 1 0
BITMAP
78
C8
60
C0
C8
70
ENDCHAR
STARTCHAR u+3b6
ENCODING 950
SWIDTH 500 0
DWIDTH 8 0
BBX 5 12 2 -3
BITMAP
78
18
30
60
C0
C0
C0
C0
70
18
18
70
ENDCHAR
STARTCHAR u+3b7
ENCODING 951
SWIDTH 500 0
DWIDTH 8 0
BBX 7 9 0 -3
BITMAP
FC
66
66
66
66
F6
06
06
06
ENDCHAR
STARTCHAR u+3b8
ENCODING 952
SWIDTH 500 0
DWIDTH 8 0
BBX 6 9 1 0
BITMAP
78
CC
CC
CC
FC
CC
CC
CC
78
ENDCHAR
STARTCHAR u+3b9
ENCODING 953
SWIDTH 500 0
DWIDTH 8 0
BBX 4 6 2 0
BITMAP
C0
C0
C0
C0
C0
70
ENDCHAR
STARTCHAR u+3ba
ENCODING 954
SWIDTH 500 0
DWIDTH 8 0
BBX 7 6 0 0
BITMAP
EE
6C
78
78
6C
EE
ENDCHAR
STARTCHAR u+3bb
ENCODING 955
SWIDTH 500 0
DWIDTH 8 0
BBX 8 9 0 0
BITMAP
60
30
10
18
38
3C
24
66
F7
ENDCHAR
STARTCHAR u+3bc
ENCODING 956
SWIDTH 500 0
DWIDTH 8 0
BBX 8 9 0 -3
BITMAP
EE
66
66
66
66
7F
60
60
60
ENDCHAR
STARTCHAR u+3bd
ENCODING 957
SWIDTH 500 0
DWIDTH 8 0
BBX 7 6 0 0
BITMAP
E6
66
66
6C
3C
30
ENDCHAR
STARTCHAR u+3be
ENCODING 958
SWIDTH 500 0
DWIDTH 8 0
BBX 4 12 2 -3
BITMAP
F0
60
C0
C0
60
C0
C0
C0
C0
70
30
E0
ENDCHAR
STARTCHAR u+3bf
ENCODING 959
SWIDTH 500 0
DWIDTH 8 0
BBX 6 6 1 0
BITMAP
78
CC
CC
CC
CC
78
ENDCHAR
STARTCHAR u+3c0
ENCODING 960
SWIDTH 500 0
DWIDTH 8 0
BBX 8 6 0 0
BITMAP
FF
66
66
66
66
E7
ENDCHAR
STARTCHAR u+3c1
ENCODING 961
SWIDTH 500 0
DWIDTH 8 0
BBX 6 9 1 -3
BITMAP
78
CC
CC
CC
CC
F8
C0
C0
C0
ENDCHAR
STARTCHAR u+3c2
ENCODING 962
SWIDTH 500 0
DWIDTH 8 0
BBX 6 9 1 -3
BITMAP
34
6C
C4
C0
C0
70
18
18
70
ENDCHAR
STARTCHAR u+3c3
ENCODING 963
SWIDTH 500 0
DWIDTH 8 0
BBX 7 6 1 0
BITMAP
7E
CC
CC
CC
CC
78
ENDCHAR
STARTCHAR u+3c4
ENCODING 964
SWIDTH 500 0
DWIDTH 8 0
BBX 6 6 1 0
BITMAP
FC
30
30
30
30
18
ENDCHAR
STARTCHAR u+3c5
ENCODING 965
SWIDTH 500 0
DWIDTH 8 0
BBX 8 6 0 0
BITMAP
EF
66
66
66
66
3C
ENDCHAR
STARTCHAR u+3c6
ENCODING 966
SWIDTH 500 0
DWIDTH 8 0
BBX 6 9 1 -3
BITMAP
48
D4
D4
D4
D4
78
10
10
10
ENDCHAR
STARTCHAR u+3c7
ENCODING 967
SWIDTH 500 0
DWIDTH 8 0
BBX 6 9 1 -3
BITMAP
CC
68
38
30
30
30
78
58
CC
ENDCHAR
STARTCHAR u+3c8
ENCODING 968
SWIDTH 500 0
DWIDTH 8 0
BBX 9 12 -1 -3
BITMAP
0800
0800
0800
EB80
6B00
6B00
6B00
6B00
3E00
0800
0800
0800
ENDCHAR
STARTCHAR u+3c9
ENCODING 969
SWIDTH 500 0
DWIDTH 8 0
BBX 8 6 0 0
BITMAP
66
C3
DB
DB
DB
66
ENDCHAR
STARTCHAR u+3ca
ENCODING 970
SWIDTH 500 0
DWIDTH 8 0
BBX 5 8 1 0
BITMAP
90
00
60
60
60
60
60
38
ENDCHAR
STARTCHAR u+3cb
ENCODING 971
SWIDTH 500 0
DWIDTH 8 0
BBX 8 8 0 0
BITMAP
24
00
EF
66
66
66
66
3C
ENDCHAR
STARTCHAR u+3cc
ENCODING 972
SWIDTH 500 0
DWIDTH 8 0
BBX 6 9 1 0
BITMAP
10
20
00
78
CC
CC
CC
CC
78
ENDCHAR
STARTCHAR u+3cd
ENCODING 973
SWIDTH 500 0
DWIDTH 8 0
BBX 8 9 0 0
BITMAP
08
10
00
EF
66
66
66
66
3C
ENDCHAR
STARTCHAR u+3ce
ENCODING 974
SWIDTH 500 0
DWIDTH 8 0
BBX 8 9 0 0
BITMAP
08
10
00
66
C3
DB
DB
DB
66
ENDCHAR
STARTCHAR u+3d0
ENCODING 976
SWIDTH 500 0
DWIDTH 8 0
BBX 6 9 1 0
BITMAP
38
6C
FC
C0
F8
EC
EC
6C
38
ENDCHAR
STARTCHAR u+3d1
ENCODING 977
SWIDTH 500 0
DWIDTH 8 0
BBX 8 9 0 0
BITMAP
1C
36
36
36
1F
E6
66
6C
78
ENDCHAR
STARTCHAR u+3d2
ENCODING 978
SWIDTH 500 0
DWIDTH 8 0
BBX 8 8 0 0
BITMAP
C7
66
3C
3C
18
18
18
7E
ENDCHAR
STARTCHAR u+3d3
ENCODING 979
SWIDTH 500 0
DWIDTH 8 0
BBX 10 8 -2 0
BITMAP
71C0
5980
8F00
0F00
0600
0600
0600
1F80
ENDCHAR
STARTCHAR u+3d4
ENCODING 980
SWIDTH 500 0
DWIDTH 8 0
BBX 8 10 0 0
BITMAP
24
00
C7
66
3C
3C
18
18
18
7E
ENDCHAR
STARTCHAR u+3d5
ENCODING 981
SWIDTH 500 0
DWIDTH 8 0
BBX 8 12 0 -3
BITMAP
18
18
18
7E
DB
DB
DB
DB
7E
18
18
18
ENDCHAR
STARTCHAR u+3d6
ENCODING 982
SWIDTH 500 0
DWIDTH 8 0
BBX 10 6 -1 0
BITMAP
FFC0
6180
6D80
6D80
6D80
3F00
ENDCHAR
STARTCHAR u+3d7
ENCODING 983
SWIDTH 500 0
DWIDTH 8 0
BBX 8 9 0 -3
BITMAP
E3
27
3C
3C
E4
C7
03
03
1E
ENDCHAR
STARTCHAR u+3d8
ENCODING 984
SWIDTH 500 0
DWIDTH 8 0
BBX 6 11 1 -3
BITMAP
78
CC
CC
CC
CC
CC
CC
78
30
30
FC
ENDCHAR
STARTCHAR u+3d9
ENCODING 985
SWIDTH 500 0
DWIDTH 8 0
BBX 6 9 1 -3
BITMAP
78
CC
CC
CC
CC
78
30
30
FC
ENDCHAR
STARTCHAR u+3da
ENCODING 986
SWIDTH 500 0
DWIDTH 8 0
BBX 8 8 1 0
BITMAP
3F
E3
C3
C0
E0
78
18
7E
ENDCHAR
STARTCHAR u+3db
ENCODING 987
SWIDTH 500 0
DWIDTH 8 0
BBX 6 9 1 -3
BITMAP
7C
C4
C0
C0
C0
70
18
18
70
ENDCHAR
STARTCHAR u+3dc
ENCODING 988
SWIDTH 500 0
DWIDTH 8 0
BBX 7 8 0 0
BITMAP
FE
62
62
78
68
60
60
F8
ENDCHAR
STARTCHAR u+3dd
ENCODING 989
SWIDTH 500 0
DWIDTH 8 0
BBX 7 9 0 -3
BITMAP
FE
62
60
68
78
68
60
60
60
ENDCHAR
STARTCHAR u+3de
ENCODING 990
SWIDTH 500 0
DWIDTH 8 0
BBX 8 8 0 0
BITMAP
C0
40
46
5E
7A
62
02
03
ENDCHAR
STARTCHAR u+3df
ENCODING 991
SWIDTH 500 0
DWIDTH 8 0
BBX 6 9 1 0
BITMAP
30
60
60
C0
FC
0C
18
18
30
ENDCHAR
STARTCHAR u+3e0
ENCODING 992
SWIDTH 500 0
DWIDTH 8 0
BBX 7 11 0 -3
BITMAP
78
AC
26
1E
36
36
36
36
06
0C
0C
ENDCHAR
STARTCHAR u+3e1
ENCODING 993
SWIDTH 500 0
DWIDTH 8 0
BBX 5 11 1 -3
BITMAP
C0
E0
70
30
F8
18
78
18
18
18
10
ENDCHAR
STARTCHAR u+3e2
ENCODING 994
SWIDTH 500 0
DWIDTH 8 0
BBX 10 11 -1 -3
BITMAP
EDC0
6D80
6D80
6D80
6D80
6D80
6D80
3780
0180
0180
7F00
ENDCHAR
STARTCHAR u+3e3
ENCODING 995
SWIDTH 500 0
DWIDTH 8 0
BBX 10 9 -1 -3
BITMAP
EDC0
6D80
6D80
6D80
6D80
3780
0180
0180
7F00
ENDCHAR
STARTCHAR u+3e4
ENCODING 996
SWIDTH 500 0
DWIDTH 8 0
BBX 7 8 1 0
BITMAP
6E
CC
CC
CC
7C
0C
0C
3E
ENDCHAR
STARTCHAR u+3e5
ENCODING 997
SWIDTH 500 0
DWIDTH 8 0
BBX 7 9 1 0
BITMAP
6E
CC
CC
CC
CC
7C
0C
0C
3E
ENDCHAR
STARTCHAR u+3e6
ENCODING 998
SWIDTH 500 0
DWIDTH 8 0
BBX 7 11 0 -3
BITMAP
F8
60
7C
66
66
66
66
F6
06
CC
B8
ENDCHAR
STARTCHAR u+3e7
ENCODING 999
SWIDTH 500 0
DWIDTH 8 0
BBX 7 6 1 0
BITMAP
7E
CC
7C
0C
CC
B8
ENDCHAR
STARTCHAR u+3e8
ENCODING 1000
SWIDTH 500 0
DWIDTH 8 0
BBX 6 8 1 0
BITMAP
78
CC
CC
3C
F0
CC
CC
78
ENDCHAR
STARTCHAR u+3e9
ENCODING 1001
SWIDTH 500 0
DWIDTH 8 0
BBX 6 9 1 0
BITMAP
78
CC
CC
1C
78
E0
C0
C4
78
ENDCHAR
STARTCHAR u+3ea
ENCODING 1002
SWIDTH 500 0
DWIDTH 8 0
BBX 8 8 0 0
BITMAP
E7
3C
18
18
3C
24
66
FF
ENDCHAR
STARTCHAR u+3eb
ENCODING 1003
SWIDTH 500 0
DWIDTH 8 0
BBX 8 6 0 0
BITMAP
66
3C
18
3C
66
FF
ENDCHAR
STARTCHAR u+3ec
ENCODING 1004
SWIDTH 500 0
DWIDTH 8 0
BBX 6 9 1 0
BITMAP
18
78
C0
F8
CC
CC
CC
CC
78
ENDCHAR
STARTCHAR u+3ed
ENCODING 1005
SWIDTH 500 0
DWIDTH 8 0
BBX 6 6 1 0
BITMAP
7C
C0
D8
CC
CC
78
ENDCHAR
STARTCHAR u+3ee
ENCODING 1006
SWIDTH 500 0
DWIDTH 8 0
BBX 8 8 0 0
BITMAP
7E
18
FF
99
18
18
18
7E
ENDCHAR
STARTCHAR u+3ef
ENCODING 1007
SWIDTH 500 0
DWIDTH 8 0
BBX 6 9 1 0
BITMAP
3C
30
30
FC
B0
30
30
30
F0
ENDCHAR
STARTCHAR u+3f0
ENCODING 1008
SWIDTH 500 0
DWIDTH 8 0
BBX 8 6 0 0
BITMAP
E3
27
3C
3C
E4
C7
ENDCHAR
STARTCHAR u+3f1
ENCODING 1009
SWIDTH 500 0
DWIDTH 8 0
BBX 6 9 1 -3
BITMAP
78
CC
CC
CC
CC
F8
C0
7C
0C
ENDCHAR
STARTCHAR u+3f2
ENCODING 1010
SWIDTH 500 0
DWIDTH 8 0
BBX 6 6 1 0
BITMAP
78
C4
C0
C0
C4
78
ENDCHAR
STARTCHAR u+3f3
ENCODING 1011
SWIDTH 500 0
DWIDTH 8 0
BBX 6 12 0 -3
BITMAP
18
18
00
FC
0C
0C
0C
0C
0C
0C
0C
F8
ENDCHAR
STARTCHAR u+3f4
ENCODING 1012
SWIDTH 500 0
DWIDTH 8 0
BBX 6 8 1 0
BITMAP
30
78
CC
CC
FC
CC
48
30
ENDCHAR
STARTCHAR u+3f5
ENCODING 1013
SWIDTH 500 0
DWIDTH 8 0
BBX 6 6 1 0
BITMAP
7C
C0
F8
C0
C0
7C
ENDCHAR
STARTCHAR u+3f6
ENCODING 1014
SWIDTH 500 0
DWIDTH 8 0
BBX 6 6 1 0
BITMAP
F8
0C
7C
0C
0C
F8
ENDCHAR
STARTCHAR u+3f7
ENCODING 1015
SWIDTH 500 0
DWIDTH 8 0
BBX 8 8 0 0
BITMAP
F8
60
7E
63
63
7E
60
F8
ENDCHAR
STARTCHAR u+3f8
ENCODING 1016
SWIDTH 500 0
DWIDTH 8 0
BBX 7 12 0 -3
BITMAP
E0
60
60
6C
76
66
66
76
6C
60
60
F8
ENDCHAR
STARTCHAR u+3f9
ENCODING 1017
SWIDTH 500 0
DWIDTH 8 0
BBX 6 8 1 0
BITMAP
78
C4
C0
C0
C0
C0
C4
78
ENDCHAR
STARTCHAR u+3fa
ENCODING 1018
SWIDTH 500 0
DWIDTH 8 0
BBX 9 8 -1 0
BITMAP
E380
7700
6B00
6B00
6300
6300
6300
F780
ENDCHAR
STARTCHAR u+3fb
ENCODING 1019
SWIDTH 500 0
DWIDTH 8 0
BBX 8 9 0 -3
BITMAP
E3
76
76
6A
62
67
60
60
F0
ENDCHAR
STARTCHAR u+3fc
ENCODING 1020
SWIDTH 500 0
DWIDTH 8 0
BBX 7 9 0 -3
BITMAP
3C
66
66
66
66
7C
60
F8
60
ENDCHAR
STARTCHAR u+3fd
ENCODING 1021
SWIDTH 500 0
DWIDTH 8 0
BBX 6 8 1 0
BITMAP
78
CC
0C
0C
0C
0C
CC
78
ENDCHAR
STARTCHAR u+3fe
ENCODING 1022
SWIDTH 500 0
DWIDTH 8 0
BBX 6 8 1 0
BITMAP
78
C4
C0
D8
D8
C0
C4
78
ENDCHAR
STARTCHAR u+3ff
ENCODING 1023
SWIDTH 500 0
DWIDTH 8 0
BBX 6 8 1 0
BITMAP
78
CC
0C
6C
6C
0C
CC
78
ENDCHAR
STARTCHAR u+400
ENCODING 1024
SWIDTH 500 0
DWIDTH 8 0
BBX 7 11 0 0
BITMAP
10
08
00
FE
62
6A
78
68
62
62
FE
ENDCHAR
STARTCHAR u+401
ENCODING 1025
SWIDTH 500 0
DWIDTH 8 0
BBX 7 10 0 0
BITMAP
24
00
FE
62
6A
78
68
62
62
FE
ENDCHAR
STARTCHAR u+402
ENCODING 1026
SWIDTH 500 0
DWIDTH 8 0
BBX 8 8 0 0
BITMAP
FC
B4
30
3E
33
33
33
76
ENDCHAR
STARTCHAR u+403
ENCODING 1027
SWIDTH 500 0
DWIDTH 8 0
BBX 7 11 0 0
BITMAP
08
10
00
FE
66
66
60
60
60
60
F0
ENDCHAR
STARTCHAR u+404
ENCODING 1028
SWIDTH 500 0
DWIDTH 8 0
BBX 6 8 1 0
BITMAP
7C
CC
C0
F0
C0
C0
C4
78
ENDCHAR
STARTCHAR u+405
ENCODING 1029
SWIDTH 500 0
DWIDTH 8 0
BBX 6 8 1 0
BITMAP
7C
CC
C0
70
38
0C
CC
F8
ENDCHAR
STARTCHAR u+406
ENCODING 1030
SWIDTH 500 0
DWIDTH 8 0
BBX 6 8 1 0
BITMAP
FC
30
30
30
30
30
30
FC
ENDCHAR
STARTCHAR u+407
ENCODING 1031
SWIDTH 500 0
DWIDTH 8 0
BBX 6 10 1 0
BITMAP
48
00
FC
30
30
30
30
30
30
FC
ENDCHAR
STARTCHAR u+408
ENCODING 1032
SWIDTH 500 0
DWIDTH 8 0
BBX 8 8 0 0
BITMAP
7F
0C
0C
0C
CC
CC
CC
F8
ENDCHAR
STARTCHAR u+409
ENCODING 1033
SWIDTH 500 0
DWIDTH 8 0
BBX 8 8 0 0
BITMAP
FE
6C
6C
6E
6D
6D
6D
CE
ENDCHAR
STARTCHAR u+40a
ENCODING 1034
SWIDTH 500 0
DWIDTH 8 0
BBX 8 8 0 0
BITMAP
EE
6C
6C
7E
6D
6D
6D
EE
ENDCHAR
STARTCHAR u+40b
ENCODING 1035
SWIDTH 500 0
DWIDTH 8 0
BBX 8 8 0 0
BITMAP
FC
B4
30
3C
36
36
36
77
ENDCHAR
STARTCHAR u+40c
ENCODING 1036
SWIDTH 500 0
DWIDTH 8 0
BBX 8 11 0 0
BITMAP
08
10
00
E6
6E
78
78
6C
66
66
F3
ENDCHAR
STARTCHAR u+40d
ENCODING 1037
SWIDTH 500 0
DWIDTH 8 0
BBX 8 11 0 0
BITMAP
10
08
00
F7
66
6E
6E
76
76
66
EF
ENDCHAR
STARTCHAR u+40e
ENCODING 1038
SWIDTH 500 0
DWIDTH 8 0
BBX 8 11 0 0
BITMAP
24
18
00
F7
66
24
3C
18
18
B0
E0
ENDCHAR
STARTCHAR u+40f
ENCODING 1039
SWIDTH 500 0
DWIDTH 8 0
BBX 8 10 0 -2
BITMAP
E7
66
66
66
66
66
66
FF
10
10
ENDCHAR
STARTCHAR u+410
ENCODING 1040
SWIDTH 500 0
DWIDTH 8 0
BBX 9 8 0 0
BITMAP
7C00
1C00
3600
3600
3600
7F00
6300
F780
ENDCHAR
STARTCHAR u+411
ENCODING 1041
SWIDTH 500 0
DWIDTH 8 0
BBX 7 8 0 0
BITMAP
FE
62
60
7C
66
66
66
FC
ENDCHAR
STARTCHAR u+412
ENCODING 1042
SWIDTH 500 0
DWIDTH 8 0
BBX 7 8 0 0
BITMAP
FC
66
66
7C
66
66
66
FC
ENDCHAR
STARTCHAR u+413
ENCODING 1043
SWIDTH 500 0
DWIDTH 8 0
BBX 7 8 0 0
BITMAP
FE
66
66
60
60
60
60
F0
ENDCHAR
STARTCHAR u+414
ENCODING 1044
SWIDTH 500 0
DWIDTH 8 0
BBX 8 10 0 -2
BITMAP
7F
36
36
36
36
36
66
FF
81
81
ENDCHAR
STARTCHAR u+415
ENCODING 1045
SWIDTH 500 0
DWIDTH 8 0
BBX 7 8 0 0
BITMAP
FE
62
6A
78
68
62
62
FE
ENDCHAR
STARTCHAR u+416
ENCODING 1046
SWIDTH 500 0
DWIDTH 8 0
BBX 8 8 0 0
BITMAP
DB
5A
3C
18
3C
5A
5A
DB
ENDCHAR
STARTCHAR u+417
ENCODING 1047
SWIDTH 500 0
DWIDTH 8 0
BBX 7 9 0 0
BITMAP
40
7C
46
46
1C
06
06
C6
7C
ENDCHAR
STARTCHAR u+418
ENCODING 1048
SWIDTH 500 0
DWIDTH 8 0
BBX 8 8 0 0
BITMAP
F7
66
6E
6E
76
76
66
EF
ENDCHAR
STARTCHAR u+419
ENCODING 1049
SWIDTH 500 0
DWIDTH 8 0
BBX 8 11 0 0
BITMAP
24
18
00
F7
66
6E
6E
76
76
66
EF
ENDCHAR
STARTCHAR u+41a
ENCODING 1050
SWIDTH 500 0
DWIDTH 8 0
BBX 8 8 0 0
BITMAP
E6
6E
78
78
6C
66
66
F3
ENDCHAR
STARTCHAR u+41b
ENCODING 1051
SWIDTH 500 0
DWIDTH 8 0
BBX 8 8 0 0
BITMAP
7F
36
36
36
36
36
B6
E7
ENDCHAR
STARTCHAR u+41c
ENCODING 1052
SWIDTH 500 0
DWIDTH 8 0
BBX 9 8 -1 0
BITMAP
E380
7700
7700
7700
6B00
6B00
6300
F780
ENDCHAR
STARTCHAR u+41d
ENCODING 1053
SWIDTH 500 0
DWIDTH 8 0
BBX 8 8 0 0
BITMAP
E7
66
66
7E
66
66
66
E7
ENDCHAR
STARTCHAR u+41e
ENCODING 1054
SWIDTH 500 0
DWIDTH 8 0
BBX 6 8 1 0
BITMAP
78
CC
CC
CC
CC
CC
CC
78
ENDCHAR
STARTCHAR u+41f
ENCODING 1055
SWIDTH 500 0
DWIDTH 8 0
BBX 8 8 0 0
BITMAP
FF
66
66
66
66
66
66
F7
ENDCHAR
STARTCHAR u+420
ENCODING 1056
SWIDTH 500 0
DWIDTH 8 0
BBX 7 8 0 0
BITMAP
FC
66
66
66
7C
60
60
F8
ENDCHAR
STARTCHAR u+421
ENCODING 1057
SWIDTH 500 0
DWIDTH 8 0
BBX 6 8 1 0
BITMAP
3C
64
C4
C0
C0
C0
64
38
ENDCHAR
STARTCHAR u+422
ENCODING 1058
SWIDTH 500 0
DWIDTH 8 0
BBX 6 8 1 0
BITMAP
FC
B4
B4
30
30
30
30
78
ENDCHAR
STARTCHAR u+423
ENCODING 1059
SWIDTH 500 0
DWIDTH 8 0
BBX 8 8 0 0
BITMAP
F7
66
24
3C
18
18
B0
E0
ENDCHAR
STARTCHAR u+424
ENCODING 1060
SWIDTH 500 0
DWIDTH 8 0
BBX 8 8 0 0
BITMAP
3C
18
7E
DB
DB
7E
18
3C
ENDCHAR
STARTCHAR u+425
ENCODING 1061
SWIDTH 500 0
DWIDTH 8 0
BBX 8 8 0 0
BITMAP
EF
66
3C
18
18
3C
66
F7
ENDCHAR
STARTCHAR u+426
ENCODING 1062
SWIDTH 500 0
DWIDTH 8 0
BBX 8 10 0 -2
BITMAP
E7
66
66
66
66
66
66
FF
01
01
ENDCHAR
STARTCHAR u+427
ENCODING 1063
SWIDTH 500 0
DWIDTH 8 0
BBX 8 8 0 0
BITMAP
F7
66
66
66
66
3E
06
0F
ENDCHAR
STARTCHAR u+428
ENCODING 1064
SWIDTH 500 0
DWIDTH 8 0
BBX 10 8 -1 0
BITMAP
EDC0
6D80
6D80
6D80
6D80
6D80
6D80
FFC0
ENDCHAR
STARTCHAR u+429
ENCODING 1065
SWIDTH 500 0
DWIDTH 8 0
BBX 10 10 -1 -2
BITMAP
EDC0
6D80
6D80
6D80
6D80
6D80
6D80
FFC0
0040
0040
ENDCHAR
STARTCHAR u+42a
ENCODING 1066
SWIDTH 500 0
DWIDTH 8 0
BBX 8 8 0 0
BITMAP
F8
B0
30
3E
33
33
33
7E
ENDCHAR
STARTCHAR u+42b
ENCODING 1067
SWIDTH 500 0
DWIDTH 8 0
BBX 10 8 -1 0
BITMAP
F3C0
6180
6180
7980
6D80
6D80
6D80
FBC0
ENDCHAR
STARTCHAR u+42c
ENCODING 1068
SWIDTH 500 0
DWIDTH 8 0
BBX 8 8 0 0
BITMAP
F0
60
60
7E
63
63
63
FE
ENDCHAR
STARTCHAR u+42d
ENCODING 1069
SWIDTH 500 0
DWIDTH 8 0
BBX 6 8 1 0
BITMAP
F8
CC
0C
3C
0C
0C
8C
78
ENDCHAR
STARTCHAR u+42e
ENCODING 1070
SWIDTH 500 0
DWIDTH 8 0
BBX 9 8 -1 0
BITMAP
E700
6D80
6D80
7D80
6D80
6D80
6D80
E700
ENDCHAR
STARTCHAR u+42f
ENCODING 1071
SWIDTH 500 0
DWIDTH 8 0
BBX 8 8 0 0
BITMAP
3F
66
66
66
3E
36
66
CF
ENDCHAR
STARTCHAR u+430
ENCODING 1072
SWIDTH 500 0
DWIDTH 8 0
BBX 7 6 1 0
BITMAP
78
0C
7C
CC
CC
7E
ENDCHAR
STARTCHAR u+431
ENCODING 1073
SWIDTH 500 0
DWIDTH 8 0
BBX 6 9 1 0
BITMAP
18
78
C0
F8
CC
CC
CC
CC
78
ENDCHAR
STARTCHAR u+432
ENCODING 1074
SWIDTH 500 0
DWIDTH 8 0
BBX 7 6 0 0
BITMAP
F8
6C
7C
66
66
FC
ENDCHAR
STARTCHAR u+433
ENCODING 1075
SWIDTH 500 0
DWIDTH 8 0
BBX 7 6 0 0
BITMAP
FE
62
62
60
60
F0
ENDCHAR
STARTCHAR u+434
ENCODING 1076
SWIDTH 500 0
DWIDTH 8 0
BBX 7 8 0 -2
BITMAP
7E
2C
2C
2C
2C
FE
C6
C6
ENDCHAR
STARTCHAR u+435
ENCODING 1077
SWIDTH 500 0
DWIDTH 8 0
BBX 6 6 1 0
BITMAP
78
CC
FC
C0
C4
78
ENDCHAR
STARTCHAR u+436
ENCODING 1078
SWIDTH 500 0
DWIDTH 8 0
BBX 8 6 0 0
BITMAP
DB
5A
3C
5A
5A
DB
ENDCHAR
STARTCHAR u+437
ENCODING 1079
SWIDTH 500 0
DWIDTH 8 0
BBX 7 7 0 0
BITMAP
60
7C
66
6C
06
C6
7C
ENDCHAR
STARTCHAR u+438
ENCODING 1080
SWIDTH 500 0
DWIDTH 8 0
BBX 8 6 0 0
BITMAP
F7
6E
6E
76
76
EF
ENDCHAR
STARTCHAR u+439
ENCODING 1081
SWIDTH 500 0
DWIDTH 8 0
BBX 8 9 0 0
BITMAP
24
18
00
F7
6E
6E
76
76
EF
ENDCHAR
STARTCHAR u+43a
ENCODING 1082
SWIDTH 500 0
DWIDTH 8 0
BBX 7 6 0 0
BITMAP
F6
6A
78
6C
6C
F6
ENDCHAR
STARTCHAR u+43b
ENCODING 1083
SWIDTH 500 0
DWIDTH 8 0
BBX 8 6 0 0
BITMAP
7F
36
36
36
B6
EF
ENDCHAR
STARTCHAR u+43c
ENCODING 1084
SWIDTH 500 0
DWIDTH 8 0
BBX 8 6 0 0
BITMAP
E3
76
76
6A
62
F7
ENDCHAR
STARTCHAR u+43d
ENCODING 1085
SWIDTH 500 0
DWIDTH 8 0
BBX 8 6 0 0
BITMAP
EF
66
7E
66
66
F7
ENDCHAR
STARTCHAR u+43e
ENCODING 1086
SWIDTH 500 0
DWIDTH 8 0
BBX 6 6 1 0
BITMAP
78
CC
CC
CC
CC
78
ENDCHAR
STARTCHAR u+43f
ENCODING 1087
SWIDTH 500 0
DWIDTH 8 0
BBX 8 6 0 0
BITMAP
FF
66
66
66
66
F7
ENDCHAR
STARTCHAR u+440
ENCODING 1088
SWIDTH 500 0
DWIDTH 8 0
BBX 7 9 0 -3
BITMAP
EC
76
66
66
76
6C
60
60
F8
ENDCHAR
STARTCHAR u+441
ENCODING 1089
SWIDTH 500 0
DWIDTH 8 0
BBX 6 6 1 0
BITMAP
7C
C4
C4
C0
C4
78
ENDCHAR
STARTCHAR u+442
ENCODING 1090
SWIDTH 500 0
DWIDTH 8 0
BBX 6 6 1 0
BITMAP
FC
B4
B4
30
30
78
ENDCHAR
STARTCHAR u+443
ENCODING 1091
SWIDTH 500 0
DWIDTH 8 0
BBX 8 8 0 -2
BITMAP
F7
66
66
3C
3C
18
58
70
ENDCHAR
STARTCHAR u+444
ENCODING 1092
SWIDTH 500 0
DWIDTH 8 0
BBX 8 11 0 -2
BITMAP
38
18
18
7E
DB
DB
DB
DB
7E
18
3C
ENDCHAR
STARTCHAR u+445
ENCODING 1093
SWIDTH 500 0
DWIDTH 8 0
BBX 8 6 0 0
BITMAP
E7
66
3C
3C
66
E7
ENDCHAR
STARTCHAR u+446
ENCODING 1094
SWIDTH 500 0
DWIDTH 8 0
BBX 8 8 0 -2
BITMAP
E7
66
66
66
66
FF
01
01
ENDCHAR
STARTCHAR u+447
ENCODING 1095
SWIDTH 500 0
DWIDTH 8 0
BBX 7 6 0 0
BITMAP
EE
6C
6C
3C
0C
1E
ENDCHAR
STARTCHAR u+448
ENCODING 1096
SWIDTH 500 0
DWIDTH 8 0
BBX 10 6 -1 0
BITMAP
EDC0
6D80
6D80
6D80
6D80
FFC0
ENDCHAR
STARTCHAR u+449
ENCODING 1097
SWIDTH 500 0
DWIDTH 8 0
BBX 10 8 -1 -2
BITMAP
EDC0
6D80
6D80
6D80
6D80
FFC0
0040
0040
ENDCHAR
STARTCHAR u+44a
ENCODING 1098
SWIDTH 500 0
DWIDTH 8 0
BBX 8 6 0 0
BITMAP
F8
B0
BE
33
33
7E
ENDCHAR
STARTCHAR u+44b
ENCODING 1099
SWIDTH 500 0
DWIDTH 8 0
BBX 10 6 -1 0
BITMAP
F3C0
6180
7980
6580
6580
FBC0
ENDCHAR
STARTCHAR u+44c
ENCODING 1100
SWIDTH 500 0
DWIDTH 8 0
BBX 7 6 0 0
BITMAP
F0
60
7C
66
66
FC
ENDCHAR
STARTCHAR u+44d
ENCODING 1101
SWIDTH 500 0
DWIDTH 8 0
BBX 6 6 1 0
BITMAP
F8
CC
3C
0C
8C
78
ENDCHAR
STARTCHAR u+44e
ENCODING 1102
SWIDTH 500 0
DWIDTH 8 0
BBX 8 6 0 0
BITMAP
E6
6D
7D
6D
6D
E6
ENDCHAR
STARTCHAR u+44f
ENCODING 1103
SWIDTH 500 0
DWIDTH 8 0
BBX 7 6 1 0
BITMAP
7E
CC
CC
7C
6C
DE
ENDCHAR
STARTCHAR u+450
ENCODING 1104
SWIDTH 500 0
DWIDTH 8 0
BBX 6 9 1 0
BITMAP
20
10
00
78
CC
FC
C0
C4
78
ENDCHAR
STARTCHAR u+451
ENCODING 1105
SWIDTH 500 0
DWIDTH 8 0
BBX 6 8 1 0
BITMAP
48
00
78
CC
FC
C0
C4
78
ENDCHAR
STARTCHAR u+452
ENCODING 1106
SWIDTH 500 0
DWIDTH 8 0
BBX 7 12 0 -3
BITMAP
E0
7C
60
7C
66
66
66
66
F6
06
06
3C
ENDCHAR
STARTCHAR u+453
ENCODING 1107
SWIDTH 500 0
DWIDTH 8 0
BBX 7 9 0 0
BITMAP
08
10
00
FE
62
62
60
60
F0
ENDCHAR
STARTCHAR u+454
ENCODING 1108
SWIDTH 500 0
DWIDTH 8 0
BBX 6 6 1 0
BITMAP
7C
CC
F0
C0
C4
78
ENDCHAR
STARTCHAR u+455
ENCODING 1109
SWIDTH 500 0
DWIDTH 8 0
BBX 6 6 1 0
BITMAP
7C
CC
F0
3C
CC
F8
ENDCHAR
STARTCHAR u+456
ENCODING 1110
SWIDTH 500 0
DWIDTH 8 0
BBX 6 9 1 0
BITMAP
30
30
00
F0
30
30
30
30
FC
ENDCHAR
STARTCHAR u+457
ENCODING 1111
SWIDTH 500 0
DWIDTH 8 0
BBX 8 8 0 0
BITMAP
24
00
78
18
18
18
18
FF
ENDCHAR
STARTCHAR u+458
ENCODING 1112
SWIDTH 500 0
DWIDTH 8 0
BBX 6 12 0 -3
BITMAP
18
18
00
FC
0C
0C
0C
0C
0C
0C
0C
F8
ENDCHAR
STARTCHAR u+459
ENCODING 1113
SWIDTH 500 0
DWIDTH 8 0
BBX 8 6 0 0
BITMAP
FE
6C
6E
6D
6D
CE
ENDCHAR
STARTCHAR u+45a
ENCODING 1114
SWIDTH 500 0
DWIDTH 8 0
BBX 9 6 -1 0
BITMAP
EE00
6C00
7F00
6D80
6D80
EF00
ENDCHAR
STARTCHAR u+45b
ENCODING 1115
SWIDTH 500 0
DWIDTH 8 0
BBX 8 9 0 0
BITMAP
E0
7C
60
7C
66
66
66
66
E7
ENDCHAR
STARTCHAR u+45c
ENCODING 1116
SWIDTH 500 0
DWIDTH 8 0
BBX 7 9 0 0
BITMAP
08
10
00
F6
6A
78
6C
6C
F6
ENDCHAR
STARTCHAR u+45d
ENCODING 1117
SWIDTH 500 0
DWIDTH 8 0
BBX 8 9 0 0
BITMAP
10
08
00
F7
6E
6E
76
76
EF
ENDCHAR
STARTCHAR u+45e
ENCODING 1118
SWIDTH 500 0
DWIDTH 8 0
BBX 8 11 0 -2
BITMAP
24
18
00
F7
66
66
3C
3C
18
58
70
ENDCHAR
STARTCHAR u+45f
ENCODING 1119
SWIDTH 500 0
DWIDTH 8 0
BBX 8 8 0 -2
BITMAP
E7
66
66
66
66
FF
10
10
ENDCHAR
STARTCHAR u+460
ENCODING 1120
SWIDTH 500 0
DWIDTH 8 0
BBX 8 8 0 0
BITMAP
66
E7
C3
C3
C3
DB
DB
7E
ENDCHAR
STARTCHAR u+461
ENCODING 1121
SWIDTH 500 0
DWIDTH 8 0
BBX 8 6 0 0
BITMAP
DB
DB
DB
DB
7E
6C
ENDCHAR
STARTCHAR u+462
ENCODING 1122
SWIDTH 500 0
DWIDTH 8 0
BBX 7 8 0 0
BITMAP
78
30
FC
B4
3C
36
36
7C
ENDCHAR
STARTCHAR u+463
ENCODING 1123
SWIDTH 500 0
DWIDTH 8 0
BBX 7 9 0 0
BITMAP
70
30
30
FC
B4
3C
36
36
7C
ENDCHAR
STARTCHAR u+464
ENCODING 1124
SWIDTH 500 0
DWIDTH 8 0
BBX 8 8 0 0
BITMAP
F7
6D
6D
7E
6C
6C
6D
F6
ENDCHAR
STARTCHAR u+465
ENCODING 1125
SWIDTH 500 0
DWIDTH 8 0
BBX 8 6 0 0
BITMAP
F7
6D
7E
6C
6D
F6
ENDCHAR
STARTCHAR u+466
ENCODING 1126
SWIDTH 500 0
DWIDTH 8 0
BBX 10 8 -1 0
BITMAP
0C00
1E00
1E00
3300
3300
3F00
6D80
FFC0
ENDCHAR
STARTCHAR u+467
ENCODING 1127
SWIDTH 500 0
DWIDTH 8 0
BBX 9 6 0 0
BITMAP
1C00
3600
3600
3E00
6B00
FF80
ENDCHAR
STARTCHAR u+468
ENCODING 1128
SWIDTH 500 0
DWIDTH 8 0
BBX 11 8 -1 0
BITMAP
F700
6700
6D80
6D80
6D80
7FC0
7AC0
FFE0
ENDCHAR
STARTCHAR u+469
ENCODING 1129
SWIDTH 500 0
DWIDTH 8 0
BBX 11 6 -1 0
BITMAP
F700
6D80
6D80
7F80
7AC0
FFE0
ENDCHAR
STARTCHAR u+46a
ENCODING 1130
SWIDTH 500 0
DWIDTH 8 0
BBX 10 8 -1 0
BITMAP
FFC0
3300
3300
1E00
3F00
6D80
6D80
EDC0
ENDCHAR
STARTCHAR u+46b
ENCODING 1131
SWIDTH 500 0
DWIDTH 8 0
BBX 8 6 0 0
BITMAP
FF
66
3C
7E
DB
DB
ENDCHAR
STARTCHAR u+46c
ENCODING 1132
SWIDTH 500 0
DWIDTH 8 0
BBX 9 8 -1 0
BITMAP
EF80
6500
6700
7F00
6A80
6A80
6A80
EA80
ENDCHAR
STARTCHAR u+46d
ENCODING 1133
SWIDTH 500 0
DWIDTH 8 0
BBX 9 6 -1 0
BITMAP
EF80
6500
7F00
6A80
6A80
EA80
ENDCHAR
STARTCHAR u+46e
ENCODING 1134
SWIDTH 500 0
DWIDTH 8 0
BBX 6 14 1 -3
BITMAP
CC
50
D0
F8
8C
8C
38
0C
0C
0C
F8
C0
CC
74
ENDCHAR
STARTCHAR u+46f
ENCODING 1135
SWIDTH 500 0
DWIDTH 8 0
BBX 6 12 1 -3
BITMAP
64
28
28
78
4C
58
0C
0C
FC
C0
CC
74
ENDCHAR
STARTCHAR u+470
ENCODING 1136
SWIDTH 500 0
DWIDTH 8 0
BBX 8 8 0 0
BITMAP
DB
DB
DB
5B
7B
3E
18
3C
ENDCHAR
STARTCHAR u+471
ENCODING 1137
SWIDTH 500 0
DWIDTH 8 0
BBX 8 9 0 -3
BITMAP
DB
DB
DB
5B
7B
3E
18
18
18
ENDCHAR
STARTCHAR u+472
ENCODING 1138
SWIDTH 500 0
DWIDTH 8 0
BBX 6 8 1 0
BITMAP
78
CC
CC
EC
DC
CC
CC
78
ENDCHAR
STARTCHAR u+473
ENCODING 1139
SWIDTH 500 0
DWIDTH 8 0
BBX 6 6 1 0
BITMAP
78
CC
EC
DC
CC
78
ENDCHAR
STARTCHAR u+474
ENCODING 1140
SWIDTH 500 0
DWIDTH 8 0
BBX 8 8 0 0
BITMAP
F7
66
6C
6C
38
38
38
10
ENDCHAR
STARTCHAR u+475
ENCODING 1141
SWIDTH 500 0
DWIDTH 8 0
BBX 8 6 0 0
BITMAP
E7
6C
6C
38
38
10
ENDCHAR
STARTCHAR u+476
ENCODING 1142
SWIDTH 500 0
DWIDTH 8 0
BBX 8 11 0 0
BITMAP
50
28
00
F7
66
6C
6C
38
38
38
10
ENDCHAR
STARTCHAR u+477
ENCODING 1143
SWIDTH 500 0
DWIDTH 8 0
BBX 8 9 0 0
BITMAP
50
28
00
E7
6C
6C
38
38
10
ENDCHAR
STARTCHAR u+478
ENCODING 1144
SWIDTH 500 0
DWIDTH 8 0
BBX 10 11 0 -3
BITMAP
6000
D000
DDC0
DD80
D700
D700
D700
6300
0200
0600
0600
ENDCHAR
STARTCHAR u+479
ENCODING 1145
SWIDTH 500 0
DWIDTH 8 0
BBX 10 9 0 -3
BITMAP
6DC0
DD80
D700
D700
D700
6300
0200
0600
0600
ENDCHAR
STARTCHAR u+47a
ENCODING 1146
SWIDTH 500 0
DWIDTH 8 0
BBX 8 10 0 -1
BITMAP
18
3C
5A
C3
C3
C3
C3
5A
3C
18
ENDCHAR
STARTCHAR u+47b
ENCODING 1147
SWIDTH 500 0
DWIDTH 8 0
BBX 6 8 1 -1
BITMAP
30
78
CC
CC
CC
CC
78
30
ENDCHAR
STARTCHAR u+47c
ENCODING 1148
SWIDTH 500 0
DWIDTH 8 0
BBX 8 12 0 0
BITMAP
1C
23
08
08
66
E7
C3
C3
C3
C3
C3
7E
ENDCHAR
STARTCHAR u+47d
ENCODING 1149
SWIDTH 500 0
DWIDTH 8 0
BBX 8 11 0 0
BITMAP
1C
23
08
08
00
66
C3
C3
C3
C3
7E
ENDCHAR
STARTCHAR u+47e
ENCODING 1150
SWIDTH 500 0
DWIDTH 8 0
BBX 8 11 0 0
BITMAP
3E
2A
00
66
E7
C3
C3
C3
DB
DB
7E
ENDCHAR
STARTCHAR u+47f
ENCODING 1151
SWIDTH 500 0
DWIDTH 8 0
BBX 8 9 0 0
BITMAP
3E
2A
00
DB
DB
DB
DB
7E
6C
ENDCHAR
STARTCHAR u+480
ENCODING 1152
SWIDTH 500 0
DWIDTH 8 0
BBX 6 11 1 -3
BITMAP
74
CC
C4
C0
C0
C0
C0
70
30
30
FC
ENDCHAR
STARTCHAR u+481
ENCODING 1153
SWIDTH 500 0
DWIDTH 8 0
BBX 6 9 1 -3
BITMAP
74
CC
C4
C0
C0
78
18
18
3C
ENDCHAR
STARTCHAR u+482
ENCODING 1154
SWIDTH 500 0
DWIDTH 8 0
BBX 7 9 1 0
BITMAP
0C
4C
78
1C
B6
F0
38
6C
60
ENDCHAR
STARTCHAR u+483
ENCODING 1155
SWIDTH 500 0
DWIDTH 8 0
BBX 4 3 2 7
BITMAP
10
F0
80
ENDCHAR
STARTCHAR u+484
ENCODING 1156
SWIDTH 500 0
DWIDTH 8 0
BBX 5 2 2 7
BITMAP
10
E8
ENDCHAR
STARTCHAR u+485
ENCODING 1157
SWIDTH 500 0
DWIDTH 8 0
BBX 2 3 3 5
BITMAP
C0
80
40
ENDCHAR
STARTCHAR u+486
ENCODING 1158
SWIDTH 500 0
DWIDTH 8 0
BBX 2 3 3 5
BITMAP
C0
40
80
ENDCHAR
STARTCHAR u+487
ENCODING 1159
SWIDTH 500 0
DWIDTH 8 0
BBX 5 2 1 8
BITMAP
E0
98
ENDCHAR
STARTCHAR u+488
ENCODING 1160
SWIDTH 500 0
DWIDTH 8 0
BBX 9 8 0 0
BITMAP
1C00
F780
A280
E380
A280
E380
BE80
1400
ENDCHAR
STARTCHAR u+489
ENCODING 1161
SWIDTH 500 0
DWIDTH 8 0
BBX 11 11 -2 -1
BITMAP
0400
0400
2480
3100
0000
E0E0
0000
1180
2480
0400
0400
ENDCHAR
STARTCHAR u+48a
ENCODING 1162
SWIDTH 500 0
DWIDTH 8 0
BBX 8 13 0 -2
BITMAP
24
18
00
F7
66
6E
6E
76
76
66
EF
06
06
ENDCHAR
STARTCHAR u+48b
ENCODING 1163
SWIDTH 500 0
DWIDTH 8 0
BBX 8 11 0 -2
BITMAP
24
18
00
F7
6E
6E
76
76
EF
06
06
ENDCHAR
STARTCHAR u+48c
ENCODING 1164
SWIDTH 500 0
DWIDTH 8 0
BBX 8 8 0 0
BITMAP
60
F0
60
7E
63
63
63
FE
ENDCHAR
STARTCHAR u+48d
ENCODING 1165
SWIDTH 500 0
DWIDTH 8 0
BBX 7 9 0 0
BITMAP
60
60
F0
60
60
7C
66
66
FC
ENDCHAR
STARTCHAR u+48e
ENCODING 1166
SWIDTH 500 0
DWIDTH 8 0
BBX 7 8 0 0
BITMAP
FC
66
66
6E
7C
62
60
F8
ENDCHAR
STARTCHAR u+48f
ENCODING 1167
SWIDTH 500 0
DWIDTH 8 0
BBX 7 9 0 -3
BITMAP
FC
66
66
6E
66
7E
60
60
F8
ENDCHAR
STARTCHAR u+490
ENCODING 1168
SWIDTH 500 0
DWIDTH 8 0
BBX 6 10 1 0
BITMAP
04
04
FC
60
60
60
60
60
60
F0
ENDCHAR
STARTCHAR u+491
ENCODING 1169
SWIDTH 500 0
DWIDTH 8 0
BBX 6 8 1 0
BITMAP
04
04
FC
60
60
60
60
F0
ENDCHAR
STARTCHAR u+492
ENCODING 1170
SWIDTH 500 0
DWIDTH 8 0
BBX 8 8 0 0
BITMAP
FF
33
33
33
78
30
30
FC
ENDCHAR
STARTCHAR u+493
ENCODING 1171
SWIDTH 500 0
DWIDTH 8 0
BBX 8 6 0 0
BITMAP
FF
33
33
7B
30
FC
ENDCHAR
STARTCHAR u+494
ENCODING 1172
SWIDTH 500 0
DWIDTH 8 0
BBX 7 11 0 -3
BITMAP
FC
64
60
7C
66
66
66
F6
06
4C
78
ENDCHAR
STARTCHAR u+495
ENCODING 1173
SWIDTH 500 0
DWIDTH 8 0
BBX 7 9 0 -3
BITMAP
FE
62
7C
66
66
F6
06
4C
78
ENDCHAR
STARTCHAR u+496
ENCODING 1174
SWIDTH 500 0
DWIDTH 8 0
BBX 10 10 0 -2
BITMAP
ECC0
EDC0
3F80
1E00
3F00
6D80
6D80
EDC0
00C0
00C0
ENDCHAR
STARTCHAR u+497
ENCODING 1175
SWIDTH 500 0
DWIDTH 8 0
BBX 10 8 0 -2
BITMAP
EDC0
EDC0
3F00
3F00
6D80
EDC0
00C0
00C0
ENDCHAR
STARTCHAR u+498
ENCODING 1176
SWIDTH 500 0
DWIDTH 8 0
BBX 7 11 0 -2
BITMAP
40
7C
46
46
1C
06
06
C6
7C
08
38
ENDCHAR
STARTCHAR u+499
ENCODING 1177
SWIDTH 500 0
DWIDTH 8 0
BBX 7 9 0 -2
BITMAP
40
7C
46
5C
06
C6
7C
08
38
ENDCHAR
STARTCHAR u+49a
ENCODING 1178
SWIDTH 500 0
DWIDTH 8 0
BBX 9 10 0 -2
BITMAP
F780
6F80
6C00
7800
6C00
6C00
6600
F780
0180
0180
ENDCHAR
STARTCHAR u+49b
ENCODING 1179
SWIDTH 500 0
DWIDTH 8 0
BBX 8 8 0 -2
BITMAP
F7
6F
68
78
6C
EF
03
03
ENDCHAR
STARTCHAR u+49c
ENCODING 1180
SWIDTH 500 0
DWIDTH 8 0
BBX 9 8 0 0
BITMAP
F780
6D80
6E00
7C00
6E00
6E00
6600
F700
ENDCHAR
STARTCHAR u+49d
ENCODING 1181
SWIDTH 500 0
DWIDTH 8 0
BBX 8 6 0 0
BITMAP
E3
77
7C
7C
76
E7
ENDCHAR
STARTCHAR u+49e
ENCODING 1182
SWIDTH 500 0
DWIDTH 8 0
BBX 8 8 0 0
BITMAP
F3
67
FC
6C
7C
66
66
F3
ENDCHAR
STARTCHAR u+49f
ENCODING 1183
SWIDTH 500 0
DWIDTH 8 0
BBX 7 9 0 0
BITMAP
E0
60
F0
66
6A
78
6C
6C
F6
ENDCHAR
STARTCHAR u+4a0
ENCODING 1184
SWIDTH 500 0
DWIDTH 8 0
BBX 8 8 0 0
BITMAP
F3
B7
34
3C
3C
36
36
73
ENDCHAR
STARTCHAR u+4a1
ENCODING 1185
SWIDTH 500 0
DWIDTH 8 0
BBX 8 6 0 0
BITMAP
FB
B5
BC
36
36
7B
ENDCHAR
STARTCHAR u+4a2
ENCODING 1186
SWIDTH 500 0
DWIDTH 8 0
BBX 8 10 0 -2
BITMAP
EF
66
66
7E
66
66
66
EF
03
03
ENDCHAR
STARTCHAR u+4a3
ENCODING 1187
SWIDTH 500 0
DWIDTH 8 0
BBX 8 8 0 -2
BITMAP
F7
66
7E
66
66
F7
03
03
ENDCHAR
STARTCHAR u+4a4
ENCODING 1188
SWIDTH 500 0
DWIDTH 8 0
BBX 8 8 0 0
BITMAP
EF
6D
6D
7C
6C
6C
6C
EE
ENDCHAR
STARTCHAR u+4a5
ENCODING 1189
SWIDTH 500 0
DWIDTH 8 0
BBX 8 6 0 0
BITMAP
EF
6D
7D
6C
6C
EE
ENDCHAR
STARTCHAR u+4a6
ENCODING 1190
SWIDTH 500 0
DWIDTH 8 0
BBX 9 11 -1 -3
BITMAP
FE00
6C00
6C00
6F00
6D80
6D80
6D80
ED80
0180
2300
3E00
ENDCHAR
STARTCHAR u+4a7
ENCODING 1191
SWIDTH 500 0
DWIDTH 8 0
BBX 9 9 -1 -3
BITMAP
FE00
6C00
6C00
6F00
6D80
ED80
0180
2300
3E00
ENDCHAR
STARTCHAR u+4a8
ENCODING 1192
SWIDTH 500 0
DWIDTH 8 0
BBX 8 8 0 0
BITMAP
30
64
CA
CA
CA
CA
6E
3F
ENDCHAR
STARTCHAR u+4a9
ENCODING 1193
SWIDTH 500 0
DWIDTH 8 0
BBX 8 6 0 0
BITMAP
70
C4
CA
CA
EA
7F
ENDCHAR
STARTCHAR u+4aa
ENCODING 1194
SWIDTH 500 0
DWIDTH 8 0
BBX 6 10 1 -2
BITMAP
3C
64
C4
C0
C0
C0
64
38
10
70
ENDCHAR
STARTCHAR u+4ab
ENCODING 1195
SWIDTH 500 0
DWIDTH 8 0
BBX 6 8 1 -2
BITMAP
7C
C4
C0
C0
C4
78
10
70
ENDCHAR
STARTCHAR u+4ac
ENCODING 1196
SWIDTH 500 0
DWIDTH 8 0
BBX 6 10 1 -2
BITMAP
FC
B4
B4
30
30
30
30
7C
04
04
ENDCHAR
STARTCHAR u+4ad
ENCODING 1197
SWIDTH 500 0
DWIDTH 8 0
BBX 6 8 1 -2
BITMAP
FC
B4
B4
30
30
FC
04
04
ENDCHAR
STARTCHAR u+4ae
ENCODING 1198
SWIDTH 500 0
DWIDTH 8 0
BBX 8 8 0 0
BITMAP
EF
66
24
3C
18
18
18
7E
ENDCHAR
STARTCHAR u+4af
ENCODING 1199
SWIDTH 500 0
DWIDTH 8 0
BBX 10 9 -1 -3
BITMAP
F3C0
6180
3300
3F00
1E00
0C00
0C00
0C00
3F00
ENDCHAR
STARTCHAR u+4b0
ENCODING 1200
SWIDTH 500 0
DWIDTH 8 0
BBX 8 8 0 0
BITMAP
F7
66
3C
3C
18
7E
18
7E
ENDCHAR
STARTCHAR u+4b1
ENCODING 1201
SWIDTH 500 0
DWIDTH 8 0
BBX 10 9 -1 -3
BITMAP
F3C0
6180
3300
3F00
1E00
0C00
3F00
0C00
3F00
ENDCHAR
STARTCHAR u+4b2
ENCODING 1202
SWIDTH 500 0
DWIDTH 8 0
BBX 8 10 0 -2
BITMAP
EF
66
3C
18
18
3C
66
F7
03
03
ENDCHAR
STARTCHAR u+4b3
ENCODING 1203
SWIDTH 500 0
DWIDTH 8 0
BBX 8 8 0 -2
BITMAP
E7
66
3C
3C
66
E7
03
03
ENDCHAR
STARTCHAR u+4b4
ENCODING 1204
SWIDTH 500 0
DWIDTH 8 0
BBX 8 10 0 -2
BITMAP
F7
66
66
66
66
66
66
FF
01
01
ENDCHAR
STARTCHAR u+4b5
ENCODING 1205
SWIDTH 500 0
DWIDTH 8 0
BBX 8 8 0 -2
BITMAP
F7
66
66
66
66
FF
01
01
ENDCHAR
STARTCHAR u+4b6
ENCODING 1206
SWIDTH 500 0
DWIDTH 8 0
BBX 8 10 0 -2
BITMAP
EF
66
66
66
66
3E
06
0F
01
01
ENDCHAR
STARTCHAR u+4b7
ENCODING 1207
SWIDTH 500 0
DWIDTH 8 0
BBX 7 8 0 -2
BITMAP
EE
6C
6C
3C
0C
1E
02
02
ENDCHAR
STARTCHAR u+4b8
ENCODING 1208
SWIDTH 500 0
DWIDTH 8 0
BBX 8 8 0 0
BITMAP
EF
66
66
76
76
3E
16
0F
ENDCHAR
STARTCHAR u+4b9
ENCODING 1209
SWIDTH 500 0
DWIDTH 8 0
BBX 9 6 -1 0
BITMAP
F780
6300
6B00
6B00
3F00
0380
ENDCHAR
STARTCHAR u+4ba
ENCODING 1210
SWIDTH 500 0
DWIDTH 8 0
BBX 8 8 0 0
BITMAP
F8
60
7C
66
66
66
66
F7
ENDCHAR
STARTCHAR u+4bb
ENCODING 1211
SWIDTH 500 0
DWIDTH 8 0
BBX 8 9 0 0
BITMAP
E0
60
60
7C
66
66
66
66
E7
ENDCHAR
STARTCHAR u+4bc
ENCODING 1212
SWIDTH 500 0
DWIDTH 8 0
BBX 8 8 0 0
BITMAP
1E
B3
B3
7F
30
30
33
1E
ENDCHAR
STARTCHAR u+4bd
ENCODING 1213
SWIDTH 500 0
DWIDTH 8 0
BBX 8 6 0 0
BITMAP
9E
B3
7F
30
31
1E
ENDCHAR
STARTCHAR u+4be
ENCODING 1214
SWIDTH 500 0
DWIDTH 8 0
BBX 8 10 0 -2
BITMAP
0E
13
B3
B3
7F
30
31
1E
0C
0C
ENDCHAR
STARTCHAR u+4bf
ENCODING 1215
SWIDTH 500 0
DWIDTH 8 0
BBX 8 8 0 -2
BITMAP
1E
B3
B3
7F
30
1F
0C
0C
ENDCHAR
STARTCHAR u+4c0
ENCODING 1216
SWIDTH 500 0
DWIDTH 8 0
BBX 6 8 1 0
BITMAP
FC
30
30
30
30
30
30
FC
ENDCHAR
STARTCHAR u+4c1
ENCODING 1217
SWIDTH 500 0
DWIDTH 8 0
BBX 8 11 0 0
BITMAP
24
18
00
DB
5A
3C
18
3C
5A
5A
DB
ENDCHAR
STARTCHAR u+4c2
ENCODING 1218
SWIDTH 500 0
DWIDTH 8 0
BBX 8 9 0 0
BITMAP
24
18
00
DB
5A
3C
5A
5A
DB
ENDCHAR
STARTCHAR u+4c3
ENCODING 1219
SWIDTH 500 0
DWIDTH 8 0
BBX 7 11 0 -3
BITMAP
EE
6C
78
7C
66
66
66
F6
06
4C
78
ENDCHAR
STARTCHAR u+4c4
ENCODING 1220
SWIDTH 500 0
DWIDTH 8 0
BBX 7 9 0 -3
BITMAP
F6
6A
7C
66
66
F6
06
4C
78
ENDCHAR
STARTCHAR u+4c5
ENCODING 1221
SWIDTH 500 0
DWIDTH 8 0
BBX 8 10 0 -2
BITMAP
7F
36
36
36
36
36
B6
EF
01
02
ENDCHAR
STARTCHAR u+4c6
ENCODING 1222
SWIDTH 500 0
DWIDTH 8 0
BBX 8 8 0 -2
BITMAP
7F
36
36
36
B6
EF
01
02
ENDCHAR
STARTCHAR u+4c7
ENCODING 1223
SWIDTH 500 0
DWIDTH 8 0
BBX 8 11 0 -3
BITMAP
E7
66
66
7E
66
66
66
E6
06
4C
78
ENDCHAR
STARTCHAR u+4c8
ENCODING 1224
SWIDTH 500 0
DWIDTH 8 0
BBX 8 9 0 -3
BITMAP
EF
66
7E
66
66
F6
06
46
7C
ENDCHAR
STARTCHAR u+4c9
ENCODING 1225
SWIDTH 500 0
DWIDTH 8 0
BBX 8 10 0 -2
BITMAP
E7
66
66
7E
66
66
66
E7
01
02
ENDCHAR
STARTCHAR u+4ca
ENCODING 1226
SWIDTH 500 0
DWIDTH 8 0
BBX 8 8 0 -2
BITMAP
EF
66
7E
66
66
FF
01
02
ENDCHAR
STARTCHAR u+4cb
ENCODING 1227
SWIDTH 500 0
DWIDTH 8 0
BBX 8 10 0 -2
BITMAP
EF
66
66
66
66
3E
06
0F
08
08
ENDCHAR
STARTCHAR u+4cc
ENCODING 1228
SWIDTH 500 0
DWIDTH 8 0
BBX 7 8 0 -2
BITMAP
EE
6C
6C
3C
0C
1E
10
10
ENDCHAR
STARTCHAR u+4cd
ENCODING 1229
SWIDTH 500 0
DWIDTH 8 0
BBX 9 10 -1 -2
BITMAP
E380
7700
7700
7700
6B00
6B00
6300
F780
0080
0100
ENDCHAR
STARTCHAR u+4ce
ENCODING 1230
SWIDTH 500 0
DWIDTH 8 0
BBX 8 8 0 -2
BITMAP
E3
76
76
6A
6A
E3
01
02
ENDCHAR
STARTCHAR u+4cf
ENCODING 1231
SWIDTH 500 0
DWIDTH 8 0
BBX 8 9 0 0
BITMAP
78
18
18
18
18
18
18
18
FF
ENDCHAR
STARTCHAR u+4d0
ENCODING 1232
SWIDTH 500 0
DWIDTH 8 0
BBX 9 11 0 0
BITMAP
2400
1800
0000
7C00
1C00
3600
3600
3600
7F00
6300
F780
ENDCHAR
STARTCHAR u+4d1
ENCODING 1233
SWIDTH 500 0
DWIDTH 8 0
BBX 7 9 1 0
BITMAP
48
30
00
78
0C
7C
CC
CC
7E
ENDCHAR
STARTCHAR u+4d2
ENCODING 1234
SWIDTH 500 0
DWIDTH 8 0
BBX 9 10 0 0
BITMAP
2400
0000
7C00
1C00
3600
3600
3600
7F00
6300
F780
ENDCHAR
STARTCHAR u+4d3
ENCODING 1235
SWIDTH 500 0
DWIDTH 8 0
BBX 7 8 1 0
BITMAP
48
00
78
0C
7C
CC
CC
7E
ENDCHAR
STARTCHAR u+4d4
ENCODING 1236
SWIDTH 500 0
DWIDTH 8 0
BBX 9 8 -1 0
BITMAP
3F80
1C80
2D00
2F00
2D00
7C00
4C80
FF80
ENDCHAR
STARTCHAR u+4d5
ENCODING 1237
SWIDTH 500 0
DWIDTH 8 0
BBX 8 6 0 0
BITMAP
7E
1B
7F
D8
D9
7E
ENDCHAR
STARTCHAR u+4d6
ENCODING 1238
SWIDTH 500 0
DWIDTH 8 0
BBX 7 11 0 0
BITMAP
24
18
00
FE
62
6A
78
68
62
62
FE
ENDCHAR
STARTCHAR u+4d7
ENCODING 1239
SWIDTH 500 0
DWIDTH 8 0
BBX 6 9 1 0
BITMAP
48
30
00
78
CC
FC
C0
C4
78
ENDCHAR
STARTCHAR u+4d8
ENCODING 1240
SWIDTH 500 0
DWIDTH 8 0
BBX 6 8 1 0
BITMAP
F8
DC
CC
0C
FC
CC
C8
78
ENDCHAR
STARTCHAR u+4d9
ENCODING 1241
SWIDTH 500 0
DWIDTH 8 0
BBX 7 6 0 0
BITMAP
FC
06
FE
C6
6E
38
ENDCHAR
STARTCHAR u+4da
ENCODING 1242
SWIDTH 500 0
DWIDTH 8 0
BBX 6 10 1 0
BITMAP
48
00
F8
DC
CC
0C
FC
CC
C8
78
ENDCHAR
STARTCHAR u+4db
ENCODING 1243
SWIDTH 500 0
DWIDTH 8 0
BBX 7 8 0 0
BITMAP
48
00
FC
06
FE
C6
6E
38
ENDCHAR
STARTCHAR u+4dc
ENCODING 1244
SWIDTH 500 0
DWIDTH 8 0
BBX 8 10 0 0
BITMAP
24
00
DB
5A
3C
18
3C
5A
5A
DB
ENDCHAR
STARTCHAR u+4dd
ENCODING 1245
SWIDTH 500 0
DWIDTH 8 0
BBX 8 8 0 0
BITMAP
24
00
DB
5A
3C
5A
5A
DB
ENDCHAR
STARTCHAR u+4de
ENCODING 1246
SWIDTH 500 0
DWIDTH 8 0
BBX 7 11 0 0
BITMAP
24
00
40
7C
46
46
1C
06
06
C6
7C
ENDCHAR
STARTCHAR u+4df
ENCODING 1247
SWIDTH 500 0
DWIDTH 8 0
BBX 7 9 0 0
BITMAP
24
00
60
7C
66
6C
06
C6
7C
ENDCHAR
STARTCHAR u+4e0
ENCODING 1248
SWIDTH 500 0
DWIDTH 8 0
BBX 6 8 1 0
BITMAP
FC
98
B0
38
0C
0C
8C
78
ENDCHAR
STARTCHAR u+4e1
ENCODING 1249
SWIDTH 500 0
DWIDTH 8 0
BBX 6 9 1 -3
BITMAP
7C
58
18
30
38
0C
0C
8C
78
ENDCHAR
STARTCHAR u+4e2
ENCODING 1250
SWIDTH 500 0
DWIDTH 8 0
BBX 8 10 0 0
BITMAP
3C
00
F7
66
6E
6E
76
76
66
EF
ENDCHAR
STARTCHAR u+4e3
ENCODING 1251
SWIDTH 500 0
DWIDTH 8 0
BBX 8 8 0 0
BITMAP
3C
00
F7
6E
6E
76
76
EF
ENDCHAR
STARTCHAR u+4e4
ENCODING 1252
SWIDTH 500 0
DWIDTH 8 0
BBX 8 10 0 0
BITMAP
24
00
F7
66
6E
6E
76
76
66
EF
ENDCHAR
STARTCHAR u+4e5
ENCODING 1253
SWIDTH 500 0
DWIDTH 8 0
BBX 8 8 0 0
BITMAP
24
00
F7
6E
6E
76
76
EF
ENDCHAR
STARTCHAR u+4e6
ENCODING 1254
SWIDTH 500 0
DWIDTH 8 0
BBX 6 10 1 0
BITMAP
48
00
78
CC
CC
CC
CC
CC
CC
78
ENDCHAR
STARTCHAR u+4e7
ENCODING 1255
SWIDTH 500 0
DWIDTH 8 0
BBX 6 8 1 0
BITMAP
48
00
78
CC
CC
CC
CC
78
ENDCHAR
STARTCHAR u+4e8
ENCODING 1256
SWIDTH 500 0
DWIDTH 8 0
BBX 6 8 1 0
BITMAP
30
78
CC
CC
FC
CC
48
30
ENDCHAR
STARTCHAR u+4e9
ENCODING 1257
SWIDTH 500 0
DWIDTH 8 0
BBX 6 6 1 0
BITMAP
78
CC
CC
FC
CC
78
ENDCHAR
STARTCHAR u+4ea
ENCODING 1258
SWIDTH 500 0
DWIDTH 8 0
BBX 6 10 1 0
BITMAP
48
00
30
78
CC
CC
FC
CC
48
30
ENDCHAR
STARTCHAR u+4eb
ENCODING 1259
SWIDTH 500 0
DWIDTH 8 0
BBX 6 8 1 0
BITMAP
48
00
78
CC
CC
FC
CC
78
ENDCHAR
STARTCHAR u+4ec
ENCODING 1260
SWIDTH 500 0
DWIDTH 8 0
BBX 6 10 1 0
BITMAP
48
00
F8
CC
0C
3C
0C
0C
8C
78
ENDCHAR
STARTCHAR u+4ed
ENCODING 1261
SWIDTH 500 0
DWIDTH 8 0
BBX 6 8 1 0
BITMAP
48
00
F8
CC
3C
0C
8C
78
ENDCHAR
STARTCHAR u+4ee
ENCODING 1262
SWIDTH 500 0
DWIDTH 8 0
BBX 8 10 0 0
BITMAP
3C
00
F7
66
24
3C
18
18
B0
E0
ENDCHAR
STARTCHAR u+4ef
ENCODING 1263
SWIDTH 500 0
DWIDTH 8 0
BBX 8 11 0 -3
BITMAP
3C
00
F7
66
64
2C
38
18
30
30
F8
ENDCHAR
STARTCHAR u+4f0
ENCODING 1264
SWIDTH 500 0
DWIDTH 8 0
BBX 8 10 0 0
BITMAP
24
00
F7
66
24
3C
18
18
B0
E0
ENDCHAR
STARTCHAR u+4f1
ENCODING 1265
SWIDTH 500 0
DWIDTH 8 0
BBX 8 11 0 -3
BITMAP
24
00
F7
66
64
2C
38
18
30
30
F8
ENDCHAR
STARTCHAR u+4f2
ENCODING 1266
SWIDTH 500 0
DWIDTH 8 0
BBX 8 11 0 0
BITMAP
14
28
00
F7
66
24
3C
18
18
B0
E0
ENDCHAR
STARTCHAR u+4f3
ENCODING 1267
SWIDTH 500 0
DWIDTH 8 0
BBX 8 12 0 -3
BITMAP
14
28
00
F7
66
64
2C
38
18
30
30
F8
ENDCHAR
STARTCHAR u+4f4
ENCODING 1268
SWIDTH 500 0
DWIDTH 8 0
BBX 8 10 0 0
BITMAP
24
00
F7
66
66
66
66
3E
06
0F
ENDCHAR
STARTCHAR u+4f5
ENCODING 1269
SWIDTH 500 0
DWIDTH 8 0
BBX 7 8 0 0
BITMAP
48
00
EE
6C
6C
3C
0C
1E
ENDCHAR
STARTCHAR u+4f6
ENCODING 1270
SWIDTH 500 0
DWIDTH 8 0
BBX 8 10 0 -2
BITMAP
FF
31
31
30
30
30
30
FC
04
04
ENDCHAR
STARTCHAR u+4f7
ENCODING 1271
SWIDTH 500 0
DWIDTH 8 0
BBX 7 8 0 -2
BITMAP
FE
32
32
30
30
FC
04
04
ENDCHAR
STARTCHAR u+4f8
ENCODING 1272
SWIDTH 500 0
DWIDTH 8 0
BBX 10 10 -1 0
BITMAP
1200
0000
F3C0
6180
6180
7980
6D80
6D80
6D80
FBC0
ENDCHAR
STARTCHAR u+4f9
ENCODING 1273
SWIDTH 500 0
DWIDTH 8 0
BBX 10 8 -1 0
BITMAP
1200
0000
F3C0
6180
7980
6580
6580
FBC0
ENDCHAR
STARTCHAR u+4fa
ENCODING 1274
SWIDTH 500 0
DWIDTH 8 0
BBX 8 11 0 -3
BITMAP
FF
33
33
33
78
30
30
FC
0C
0C
78
ENDCHAR
STARTCHAR u+4fb
ENCODING 1275
SWIDTH 500 0
DWIDTH 8 0
BBX 8 9 0 -3
BITMAP
FF
33
33
7B
30
FC
0C
0C
78
ENDCHAR
STARTCHAR u+4fc
ENCODING 1276
SWIDTH 500 0
DWIDTH 8 0
BBX 8 11 0 -3
BITMAP
FF
66
3C
18
1C
3C
66
F7
03
03
1E
ENDCHAR
STARTCHAR u+4fd
ENCODING 1277
SWIDTH 500 0
DWIDTH 8 0
BBX 8 9 0 -3
BITMAP
E7
66
3C
3C
66
F3
01
03
0E
ENDCHAR
STARTCHAR u+4fe
ENCODING 1278
SWIDTH 500 0
DWIDTH 8 0
BBX 8 8 0 0
BITMAP
FF
66
3C
18
FF
3C
66
FF
ENDCHAR
STARTCHAR u+4ff
ENCODING 1279
SWIDTH 500 0
DWIDTH 8 0
BBX 8 6 0 0
BITMAP
E7
66
3C
FF
66
FF
ENDCHAR
STARTCHAR u+500
ENCODING 1280
SWIDTH 500 0
DWIDTH 8 0
BBX 7 8 1 0
BITMAP
1E
0C
0C
7C
CC
CC
CC
7E
ENDCHAR
STARTCHAR u+501
ENCODING 1281
SWIDTH 500 0
DWIDTH 8 0
BBX 7 9 1 0
BITMAP
1C
0C
0C
6C
DC
CC
CC
DC
6E
ENDCHAR
STARTCHAR u+502
ENCODING 1282
SWIDTH 500 0
DWIDTH 8 0
BBX 8 8 0 0
BITMAP
3C
18
18
7B
DB
DB
DB
7E
ENDCHAR
STARTCHAR u+503
ENCODING 1283
SWIDTH 500 0
DWIDTH 8 0
BBX 8 9 0 0
BITMAP
38
18
18
78
D8
DB
DB
DB
7E
ENDCHAR
STARTCHAR u+504
ENCODING 1284
SWIDTH 500 0
DWIDTH 8 0
BBX 8 9 0 0
BITMAP
80
F0
98
98
33
1B
1B
1B
0E
ENDCHAR
STARTCHAR u+505
ENCODING 1285
SWIDTH 500 0
DWIDTH 8 0
BBX 8 7 0 0
BITMAP
80
F0
98
B3
1B
1B
0E
ENDCHAR
STARTCHAR u+506
ENCODING 1286
SWIDTH 500 0
DWIDTH 8 0
BBX 7 11 1 -2
BITMAP
80
F8
8C
8C
38
0C
0C
0C
0E
02
02
ENDCHAR
STARTCHAR u+507
ENCODING 1287
SWIDTH 500 0
DWIDTH 8 0
BBX 7 9 1 -2
BITMAP
80
F8
8C
B8
0C
0C
0E
02
02
ENDCHAR
STARTCHAR u+508
ENCODING 1288
SWIDTH 500 0
DWIDTH 8 0
BBX 8 8 0 0
BITMAP
FE
6C
6C
6D
6D
6D
6D
C6
ENDCHAR
STARTCHAR u+509
ENCODING 1289
SWIDTH 500 0
DWIDTH 8 0
BBX 8 6 0 0
BITMAP
FE
6C
6D
6D
6D
C6
ENDCHAR
STARTCHAR u+50a
ENCODING 1290
SWIDTH 500 0
DWIDTH 8 0
BBX 8 8 0 0
BITMAP
EE
6C
6C
7D
6D
6D
6D
E6
ENDCHAR
STARTCHAR u+50b
ENCODING 1291
SWIDTH 500 0
DWIDTH 8 0
BBX 8 6 0 0
BITMAP
EE
6C
7D
6D
6D
E6
ENDCHAR
STARTCHAR u+50c
ENCODING 1292
SWIDTH 500 0
DWIDTH 8 0
BBX 7 8 1 0
BITMAP
7C
C4
C4
C0
DE
CC
CC
78
ENDCHAR
STARTCHAR u+50d
ENCODING 1293
SWIDTH 500 0
DWIDTH 8 0
BBX 7 6 1 0
BITMAP
7C
CC
C0
DE
CC
78
ENDCHAR
STARTCHAR u+50e
ENCODING 1294
SWIDTH 500 0
DWIDTH 8 0
BBX 7 8 0 0
BITMAP
FC
B4
30
36
36
36
36
1C
ENDCHAR
STARTCHAR u+50f
ENCODING 1295
SWIDTH 500 0
DWIDTH 8 0
BBX 7 6 0 0
BITMAP
FC
B4
30
36
36
1C
ENDCHAR
STARTCHAR u+510
ENCODING 1296
SWIDTH 500 0
DWIDTH 8 0
BBX 7 9 1 0
BITMAP
04
7C
C4
C0
78
C0
C0
C6
7C
ENDCHAR
STARTCHAR u+511
ENCODING 1297
SWIDTH 500 0
DWIDTH 8 0
BBX 7 7 1 0
BITMAP
04
7C
C4
74
C0
C6
7C
ENDCHAR
STARTCHAR u+512
ENCODING 1298
SWIDTH 500 0
DWIDTH 8 0
BBX 9 11 -1 -3
BITMAP
3F80
1B00
1B00
1B00
1B00
1B00
DB00
F300
0300
0300
1E00
ENDCHAR
STARTCHAR u+513
ENCODING 1299
SWIDTH 500 0
DWIDTH 8 0
BBX 9 9 -1 -3
BITMAP
3F80
1B00
1B00
1B00
DB00
F300
0300
0300
1E00
ENDCHAR
STARTCHAR u+51a
ENCODING 1306
SWIDTH 500 0
DWIDTH 8 0
BBX 6 10 1 -2
BITMAP
78
CC
CC
CC
CC
CC
CC
78
34
38
ENDCHAR
STARTCHAR u+51b
ENCODING 1307
SWIDTH 500 0
DWIDTH 8 0
BBX 7 9 1 -3
BITMAP
6E
DC
CC
CC
DC
6C
0C
0C
3E
ENDCHAR
STARTCHAR u+51c
ENCODING 1308
SWIDTH 500 0
DWIDTH 8 0
BBX 9 8 -1 0
BITMAP
F780
6300
6B00
7F00
7700
3600
3600
3600
ENDCHAR
STARTCHAR u+51d
ENCODING 1309
SWIDTH 500 0
DWIDTH 8 0
BBX 9 6 -1 0
BITMAP
E380
6B00
7F00
3600
3600
2200
ENDCHAR
STARTCHAR u+591
ENCODING 1425
SWIDTH 500 0
DWIDTH 8 0
BBX 3 3 3 -4
BITMAP
40
E0
A0
ENDCHAR
STARTCHAR u+592
ENCODING 1426
SWIDTH 500 0
DWIDTH 8 0
BBX 5 2 2 8
BITMAP
20
88
ENDCHAR
STARTCHAR u+593
ENCODING 1427
SWIDTH 500 0
DWIDTH 8 0
BBX 2 5 3 7
BITMAP
80
40
80
40
80
ENDCHAR
STARTCHAR u+594
ENCODING 1428
SWIDTH 500 0
DWIDTH 8 0
BBX 1 3 4 8
BITMAP
80
00
80
ENDCHAR
STARTCHAR u+595
ENCODING 1429
SWIDTH 500 0
DWIDTH 8 0
BBX 3 3 2 8
BITMAP
A0
80
A0
ENDCHAR
STARTCHAR u+596
ENCODING 1430
SWIDTH 500 0
DWIDTH 8 0
BBX 3 3 3 -4
BITMAP
80
80
60
ENDCHAR
STARTCHAR u+597
ENCODING 1431
SWIDTH 500 0
DWIDTH 8 0
BBX 3 3 2 8
BITMAP
40
E0
40
ENDCHAR
STARTCHAR u+598
ENCODING 1432
SWIDTH 500 0
DWIDTH 8 0
BBX 5 3 2 8
BITMAP
C8
A8
98
ENDCHAR
STARTCHAR u+599
ENCODING 1433
SWIDTH 500 0
DWIDTH 8 0
BBX 3 3 3 8
BITMAP
C0
20
20
ENDCHAR
STARTCHAR u+59a
ENCODING 1434
SWIDTH 500 0
DWIDTH 8 0
BBX 2 3 3 -4
BITMAP
40
80
40
ENDCHAR
STARTCHAR u+59b
ENCODING 1435
SWIDTH 500 0
DWIDTH 8 0
BBX 3 3 3 -4
BITMAP
A0
20
C0
ENDCHAR
STARTCHAR u+59c
ENCODING 1436
SWIDTH 500 0
DWIDTH 8 0
BBX 3 3 3 8
BITMAP
60
80
80
ENDCHAR
STARTCHAR u+59d
ENCODING 1437
SWIDTH 500 0
DWIDTH 8 0
BBX 3 3 5 8
BITMAP
60
80
80
ENDCHAR
STARTCHAR u+59e
ENCODING 1438
SWIDTH 500 0
DWIDTH 8 0
BBX 6 3 1 8
BITMAP
6C
90
90
ENDCHAR
STARTCHAR u+59f
ENCODING 1439
SWIDTH 500 0
DWIDTH 8 0
BBX 8 4 0 8
BITMAP
E7
A5
E7
18
ENDCHAR
STARTCHAR u+5a0
ENCODING 1440
SWIDTH 500 0
DWIDTH 8 0
BBX 4 4 2 8
BITMAP
70
50
70
80
ENDCHAR
STARTCHAR u+5a1
ENCODING 1441
SWIDTH 500 0
DWIDTH 8 0
BBX 4 4 2 8
BITMAP
90
90
E0
80
ENDCHAR
STARTCHAR u+5a2
ENCODING 1442
SWIDTH 500 0
DWIDTH 8 0
BBX 3 3 3 -4
BITMAP
A0
E0
40
ENDCHAR
STARTCHAR u+5a3
ENCODING 1443
SWIDTH 500 0
DWIDTH 8 0
BBX 2 2 3 -3
BITMAP
40
C0
ENDCHAR
STARTCHAR u+5a4
ENCODING 1444
SWIDTH 500 0
DWIDTH 8 0
BBX 2 3 3 -4
BITMAP
40
80
40
ENDCHAR
STARTCHAR u+5a5
ENCODING 1445
SWIDTH 500 0
DWIDTH 8 0
BBX 3 3 3 -4
BITMAP
20
20
C0
ENDCHAR
STARTCHAR u+5a6
ENCODING 1446
SWIDTH 500 0
DWIDTH 8 0
BBX 6 3 1 -4
BITMAP
24
24
D8
ENDCHAR
STARTCHAR u+5a7
ENCODING 1447
SWIDTH 500 0
DWIDTH 8 0
BBX 2 3 3 -4
BITMAP
C0
80
C0
ENDCHAR
STARTCHAR u+5a8
ENCODING 1448
SWIDTH 500 0
DWIDTH 8 0
BBX 3 3 3 8
BITMAP
C0
20
20
ENDCHAR
STARTCHAR u+5a9
ENCODING 1449
SWIDTH 500 0
DWIDTH 8 0
BBX 4 4 2 8
BITMAP
E0
A0
E0
10
ENDCHAR
STARTCHAR u+5aa
ENCODING 1450
SWIDTH 500 0
DWIDTH 8 0
BBX 3 3 3 -4
BITMAP
A0
E0
40
ENDCHAR
STARTCHAR u+5ab
ENCODING 1451
SWIDTH 500 0
DWIDTH 8 0
BBX 2 3 3 8
BITMAP
40
80
40
ENDCHAR
STARTCHAR u+5ac
ENCODING 1452
SWIDTH 500 0
DWIDTH 8 0
BBX 2 2 3 8
BITMAP
40
C0
ENDCHAR
STARTCHAR u+5ad
ENCODING 1453
SWIDTH 500 0
DWIDTH 8 0
BBX 3 3 3 -4
BITMAP
80
80
60
ENDCHAR
STARTCHAR u+5ae
ENCODING 1454
SWIDTH 500 0
DWIDTH 8 0
BBX 5 3 0 8
BITMAP
C8
A8
98
ENDCHAR
STARTCHAR u+5af
ENCODING 1455
SWIDTH 500 0
DWIDTH 8 0
BBX 3 3 3 8
BITMAP
40
A0
40
ENDCHAR
STARTCHAR u+5b0
ENCODING 1456
SWIDTH 500 0
DWIDTH 8 0
BBX 1 3 4 -4
BITMAP
80
00
80
ENDCHAR
STARTCHAR u+5b1
ENCODING 1457
SWIDTH 500 0
DWIDTH 8 0
BBX 5 3 1 -4
BITMAP
A8
00
48
ENDCHAR
STARTCHAR u+5b2
ENCODING 1458
SWIDTH 500 0
DWIDTH 8 0
BBX 5 3 1 -4
BITMAP
E8
00
08
ENDCHAR
STARTCHAR u+5b3
ENCODING 1459
SWIDTH 500 0
DWIDTH 8 0
BBX 5 3 1 -4
BITMAP
E8
40
08
ENDCHAR
STARTCHAR u+5b4
ENCODING 1460
SWIDTH 500 0
DWIDTH 8 0
BBX 1 1 4 -2
BITMAP
80
ENDCHAR
STARTCHAR u+5b5
ENCODING 1461
SWIDTH 500 0
DWIDTH 8 0
BBX 3 1 3 -2
BITMAP
A0
ENDCHAR
STARTCHAR u+5b6
ENCODING 1462
SWIDTH 500 0
DWIDTH 8 0
BBX 3 3 3 -4
BITMAP
A0
00
40
ENDCHAR
STARTCHAR u+5b7
ENCODING 1463
SWIDTH 500 0
DWIDTH 8 0
BBX 3 1 3 -2
BITMAP
E0
ENDCHAR
STARTCHAR u+5b8
ENCODING 1464
SWIDTH 500 0
DWIDTH 8 0
BBX 3 2 2 -3
BITMAP
E0
40
ENDCHAR
STARTCHAR u+5b9
ENCODING 1465
SWIDTH 500 0
DWIDTH 8 0
BBX 1 1 3 8
BITMAP
80
ENDCHAR
STARTCHAR u+5ba
ENCODING 1466
SWIDTH 500 0
DWIDTH 8 0
BBX 1 1 1 8
BITMAP
80
ENDCHAR
STARTCHAR u+5bb
ENCODING 1467
SWIDTH 500 0
DWIDTH 8 0
BBX 5 3 1 -4
BITMAP
80
20
08
ENDCHAR
STARTCHAR u+5bc
ENCODING 1468
SWIDTH 500 0
DWIDTH 8 0
BBX 1 1 4 3
BITMAP
80
ENDCHAR
STARTCHAR u+5bd
ENCODING 1469
SWIDTH 500 0
DWIDTH 8 0
BBX 1 3 4 -4
BITMAP
80
80
80
ENDCHAR
STARTCHAR u+5be
ENCODING 1470
SWIDTH 500 0
DWIDTH 8 0
BBX 6 1 1 6
BITMAP
FC
ENDCHAR
STARTCHAR u+5bf
ENCODING 1471
SWIDTH 500 0
DWIDTH 8 0
BBX 3 1 3 8
BITMAP
E0
ENDCHAR
STARTCHAR u+5c0
ENCODING 1472
SWIDTH 500 0
DWIDTH 8 0
BBX 2 7 3 0
BITMAP
C0
C0
C0
C0
C0
C0
C0
ENDCHAR
STARTCHAR u+5c1
ENCODING 1473
SWIDTH 500 0
DWIDTH 8 0
BBX 1 1 6 8
BITMAP
80
ENDCHAR
STARTCHAR u+5c2
ENCODING 1474
SWIDTH 500 0
DWIDTH 8 0
BBX 1 1 1 8
BITMAP
80
ENDCHAR
STARTCHAR u+5c3
ENCODING 1475
SWIDTH 500 0
DWIDTH 8 0
BBX 2 7 3 0
BITMAP
C0
C0
00
00
00
C0
C0
ENDCHAR
STARTCHAR u+5c4
ENCODING 1476
SWIDTH 500 0
DWIDTH 8 0
BBX 1 1 4 8
BITMAP
80
ENDCHAR
STARTCHAR u+5c5
ENCODING 1477
SWIDTH 500 0
DWIDTH 8 0
BBX 1 1 4 -2
BITMAP
80
ENDCHAR
STARTCHAR u+5c6
ENCODING 1478
SWIDTH 500 0
DWIDTH 8 0
BBX 5 7 2 0
BITMAP
F0
C0
C0
C0
C0
C0
F8
ENDCHAR
STARTCHAR u+5c7
ENCODING 1479
SWIDTH 500 0
DWIDTH 8 0
BBX 3 3 2 -4
BITMAP
E0
40
40
ENDCHAR
STARTCHAR u+5d0
ENCODING 1488
SWIDTH 500 0
DWIDTH 8 0
BBX 6 7 1 0
BITMAP
9C
4C
6C
FC
D0
C8
E4
ENDCHAR
STARTCHAR u+5d1
ENCODING 1489
SWIDTH 500 0
DWIDTH 8 0
BBX 7 7 1 0
BITMAP
F8
0C
0C
0C
0C
0C
FE
ENDCHAR
STARTCHAR u+5d2
ENCODING 1490
SWIDTH 500 0
DWIDTH 8 0
BBX 5 7 1 0
BITMAP
F0
30
30
30
30
78
D8
ENDCHAR
STARTCHAR u+5d3
ENCODING 1491
SWIDTH 500 0
DWIDTH 8 0
BBX 7 7 0 0
BITMAP
FE
0C
0C
0C
0C
0C
0C
ENDCHAR
STARTCHAR u+5d4
ENCODING 1492
SWIDTH 500 0
DWIDTH 8 0
BBX 6 7 1 0
BITMAP
F8
0C
CC
CC
CC
CC
CC
ENDCHAR
STARTCHAR u+5d5
ENCODING 1493
SWIDTH 500 0
DWIDTH 8 0
BBX 4 7 2 0
BITMAP
F0
30
30
30
30
30
30
ENDCHAR
STARTCHAR u+5d6
ENCODING 1494
SWIDTH 500 0
DWIDTH 8 0
BBX 6 7 1 0
BITMAP
FC
30
30
30
30
30
30
ENDCHAR
STARTCHAR u+5d7
ENCODING 1495
SWIDTH 500 0
DWIDTH 8 0
BBX 8 7 0 0
BITMAP
FF
66
66
66
66
66
66
ENDCHAR
STARTCHAR u+5d8
ENCODING 1496
SWIDTH 500 0
DWIDTH 8 0
BBX 7 7 0 0
BITMAP
EE
6A
62
62
62
62
3C
ENDCHAR
STARTCHAR u+5d9
ENCODING 1497
SWIDTH 500 0
DWIDTH 8 0
BBX 4 3 2 4
BITMAP
F0
30
30
ENDCHAR
STARTCHAR u+5da
ENCODING 1498
SWIDTH 500 0
DWIDTH 8 0
BBX 7 9 1 -2
BITMAP
FE
18
18
18
18
18
18
18
1E
ENDCHAR
STARTCHAR u+5db
ENCODING 1499
SWIDTH 500 0
DWIDTH 8 0
BBX 6 7 1 0
BITMAP
F8
0C
0C
0C
0C
0C
F8
ENDCHAR
STARTCHAR u+5dc
ENCODING 1500
SWIDTH 500 0
DWIDTH 8 0
BBX 6 9 1 0
BITMAP
C0
C0
FC
0C
0C
18
30
30
38
ENDCHAR
STARTCHAR u+5dd
ENCODING 1501
SWIDTH 500 0
DWIDTH 8 0
BBX 7 7 0 0
BITMAP
FC
66
66
66
66
66
7E
ENDCHAR
STARTCHAR u+5de
ENCODING 1502
SWIDTH 500 0
DWIDTH 8 0
BBX 7 7 0 0
BITMAP
FC
66
66
66
66
66
6E
ENDCHAR
STARTCHAR u+5df
ENCODING 1503
SWIDTH 500 0
DWIDTH 8 0
BBX 5 9 2 -2
BITMAP
F0
30
30
30
30
30
30
30
38
ENDCHAR
STARTCHAR u+5e0
ENCODING 1504
SWIDTH 500 0
DWIDTH 8 0
BBX 5 7 1 0
BITMAP
78
18
18
18
18
18
F8
ENDCHAR
STARTCHAR u+5e1
ENCODING 1505
SWIDTH 500 0
DWIDTH 8 0
BBX 7 7 0 0
BITMAP
FC
66
66
66
66
66
3C
ENDCHAR
STARTCHAR u+5e2
ENCODING 1506
SWIDTH 500 0
DWIDTH 8 0
BBX 7 7 0 0
BITMAP
EE
66
66
66
66
6C
F8
ENDCHAR
STARTCHAR u+5e3
ENCODING 1507
SWIDTH 500 0
DWIDTH 8 0
BBX 7 9 1 -2
BITMAP
F8
CC
CC
CC
EC
0C
0C
0C
0E
ENDCHAR
STARTCHAR u+5e4
ENCODING 1508
SWIDTH 500 0
DWIDTH 8 0
BBX 6 7 1 0
BITMAP
F8
CC
CC
EC
0C
0C
F8
ENDCHAR
STARTCHAR u+5e5
ENCODING 1509
SWIDTH 500 0
DWIDTH 8 0
BBX 6 9 1 -2
BITMAP
EC
6C
6C
68
70
60
60
60
70
ENDCHAR
STARTCHAR u+5e6
ENCODING 1510
SWIDTH 500 0
DWIDTH 8 0
BBX 6 7 1 0
BITMAP
EC
6C
6C
38
38
18
78
ENDCHAR
STARTCHAR u+5e7
ENCODING 1511
SWIDTH 500 0
DWIDTH 8 0
BBX 6 10 1 -3
BITMAP
FC
0C
CC
DC
D8
D8
DC
C0
C0
C0
ENDCHAR
STARTCHAR u+5e8
ENCODING 1512
SWIDTH 500 0
DWIDTH 8 0
BBX 6 7 1 0
BITMAP
F8
0C
0C
0C
0C
0C
0C
ENDCHAR
STARTCHAR u+5e9
ENCODING 1513
SWIDTH 500 0
DWIDTH 8 0
BBX 7 7 1 0
BITMAP
D6
D6
D6
D6
D6
D6
7C
ENDCHAR
STARTCHAR u+5ea
ENCODING 1514
SWIDTH 500 0
DWIDTH 8 0
BBX 7 7 0 0
BITMAP
FC
66
66
66
66
66
E6
ENDCHAR
STARTCHAR u+5f0
ENCODING 1520
SWIDTH 500 0
DWIDTH 8 0
BBX 7 7 0 0
BITMAP
EE
66
66
66
66
66
66
ENDCHAR
STARTCHAR u+5f1
ENCODING 1521
SWIDTH 500 0
DWIDTH 8 0
BBX 7 7 0 0
BITMAP
EE
66
66
06
06
06
06
ENDCHAR
STARTCHAR u+5f2
ENCODING 1522
SWIDTH 500 0
DWIDTH 8 0
BBX 7 3 0 4
BITMAP
EE
66
66
ENDCHAR
STARTCHAR u+5f3
ENCODING 1523
SWIDTH 500 0
DWIDTH 8 0
BBX 3 4 3 3
BITMAP
20
60
C0
80
ENDCHAR
STARTCHAR u+5f4
ENCODING 1524
SWIDTH 500 0
DWIDTH 8 0
BBX 6 4 1 3
BITMAP
24
6C
D8
90
ENDCHAR
STARTCHAR u+600
ENCODING 1536
SWIDTH 500 0
DWIDTH 8 0
BBX 8 4 0 -4
BITMAP
02
04
FF
FF
ENDCHAR
STARTCHAR u+601
ENCODING 1537
SWIDTH 500 0
DWIDTH 8 0
BBX 8 3 0 -4
BITMAP
A9
FF
AD
ENDCHAR
STARTCHAR u+602
ENCODING 1538
SWIDTH 500 0
DWIDTH 8 0
BBX 8 4 0 -4
BITMAP
60
A0
FF
FF
ENDCHAR
STARTCHAR u+603
ENCODING 1539
SWIDTH 500 0
DWIDTH 8 0
BBX 8 4 0 -4
BITMAP
07
29
FF
DE
ENDCHAR
STARTCHAR u+60b
ENCODING 1547
SWIDTH 500 0
DWIDTH 8 0
BBX 5 13 1 -4
BITMAP
30
30
00
10
28
38
08
F8
F0
00
20
20
20
ENDCHAR
STARTCHAR u+60c
ENCODING 1548
SWIDTH 500 0
DWIDTH 8 0
BBX 2 4 3 0
BITMAP
40
80
C0
C0
ENDCHAR
STARTCHAR u+60d
ENCODING 1549
SWIDTH 500 0
DWIDTH 8 0
BBX 4 5 4 -3
BITMAP
30
70
40
C0
80
ENDCHAR
STARTCHAR u+60e
ENCODING 1550
SWIDTH 500 0
DWIDTH 8 0
BBX 8 4 0 0
BITMAP
60
A0
FF
FF
ENDCHAR
STARTCHAR u+60f
ENCODING 1551
SWIDTH 500 0
DWIDTH 8 0
BBX 7 9 1 -4
BITMAP
78
C0
C8
F8
20
5C
E2
FE
BC
ENDCHAR
STARTCHAR u+610
ENCODING 1552
SWIDTH 500 0
DWIDTH 8 0
BBX 5 3 2 9
BITMAP
58
78
80
ENDCHAR
STARTCHAR u+611
ENCODING 1553
SWIDTH 500 0
DWIDTH 8 0
BBX 5 4 1 8
BITMAP
18
50
78
80
ENDCHAR
STARTCHAR u+612
ENCODING 1554
SWIDTH 500 0
DWIDTH 8 0
BBX 4 3 2 9
BITMAP
D0
90
30
ENDCHAR
STARTCHAR u+613
ENCODING 1555
SWIDTH 500 0
DWIDTH 8 0
BBX 5 3 2 9
BITMAP
68
E8
98
ENDCHAR
STARTCHAR u+614
ENCODING 1556
SWIDTH 500 0
DWIDTH 8 0
BBX 5 2 2 9
BITMAP
28
F8
ENDCHAR
STARTCHAR u+615
ENCODING 1557
SWIDTH 500 0
DWIDTH 8 0
BBX 5 5 2 7
BITMAP
40
40
58
68
F8
ENDCHAR
STARTCHAR u+61b
ENCODING 1563
SWIDTH 500 0
DWIDTH 8 0
BBX 2 8 3 0
BITMAP
40
80
C0
C0
00
00
C0
C0
ENDCHAR
STARTCHAR u+61e
ENCODING 1566
SWIDTH 500 0
DWIDTH 8 0
BBX 2 2 3 0
BITMAP
80
C0
ENDCHAR
STARTCHAR u+61f
ENCODING 1567
SWIDTH 500 0
DWIDTH 8 0
BBX 5 8 2 0
BITMAP
70
D8
C0
C0
60
60
00
60
ENDCHAR
STARTCHAR u+621
ENCODING 1569
SWIDTH 500 0
DWIDTH 8 0
BBX 3 4 3 1
BITMAP
60
80
60
C0
ENDCHAR
STARTCHAR u+622
ENCODING 1570
SWIDTH 500 0
DWIDTH 8 0
BBX 4 11 1 0
BITMAP
D0
A0
00
20
20
20
20
20
20
20
20
ENDCHAR
STARTCHAR u+623
ENCODING 1571
SWIDTH 500 0
DWIDTH 8 0
BBX 3 12 2 0
BITMAP
60
40
E0
00
40
40
40
40
40
40
40
40
ENDCHAR
STARTCHAR u+624
ENCODING 1572
SWIDTH 500 0
DWIDTH 8 0
BBX 5 12 2 -3
BITMAP
18
10
38
00
10
28
28
38
38
08
10
E0
ENDCHAR
STARTCHAR u+625
ENCODING 1573
SWIDTH 500 0
DWIDTH 8 0
BBX 3 12 2 -4
BITMAP
40
40
40
40
40
40
40
40
00
60
40
E0
ENDCHAR
STARTCHAR u+626
ENCODING 1574
SWIDTH 500 0
DWIDTH 8 0
BBX 7 11 0 -2
BITMAP
0C
08
1C
00
0E
18
9C
9E
82
FC
78
ENDCHAR
STARTCHAR u+627
ENCODING 1575
SWIDTH 500 0
DWIDTH 8 0
BBX 1 8 3 0
BITMAP
80
80
80
80
80
80
80
80
ENDCHAR
STARTCHAR u+628
ENCODING 1576
SWIDTH 500 0
DWIDTH 8 0
BBX 7 10 0 -4
BITMAP
04
04
86
82
FE
7C
00
00
18
18
ENDCHAR
STARTCHAR u+629
ENCODING 1577
SWIDTH 500 0
DWIDTH 8 0
BBX 4 8 3 0
BITMAP
F0
A0
00
60
70
50
50
60
ENDCHAR
STARTCHAR u+62a
ENCODING 1578
SWIDTH 500 0
DWIDTH 8 0
BBX 7 8 0 0
BITMAP
78
50
04
04
86
82
FE
7C
ENDCHAR
STARTCHAR u+62b
ENCODING 1579
SWIDTH 500 0
DWIDTH 8 0
BBX 7 10 0 0
BITMAP
18
18
3C
3C
04
04
86
82
FE
7C
ENDCHAR
STARTCHAR u+62c
ENCODING 1580
SWIDTH 500 0
DWIDTH 8 0
BBX 7 8 2 -4
BITMAP
70
9C
60
C0
D8
D8
62
3C
ENDCHAR
STARTCHAR u+62d
ENCODING 1581
SWIDTH 500 0
DWIDTH 8 0
BBX 7 8 2 -4
BITMAP
70
9C
60
C0
C0
C0
62
3C
ENDCHAR
STARTCHAR u+62e
ENCODING 1582
SWIDTH 500 0
DWIDTH 8 0
BBX 7 12 2 -4
BITMAP
18
18
00
00
70
9C
60
C0
C0
C0
62
3C
ENDCHAR
STARTCHAR u+62f
ENCODING 1583
SWIDTH 500 0
DWIDTH 8 0
BBX 5 6 2 0
BITMAP
20
30
18
88
F8
70
ENDCHAR
STARTCHAR u+630
ENCODING 1584
SWIDTH 500 0
DWIDTH 8 0
BBX 5 9 2 0
BITMAP
60
60
00
20
30
18
88
F8
70
ENDCHAR
STARTCHAR u+631
ENCODING 1585
SWIDTH 500 0
DWIDTH 8 0
BBX 6 9 1 -3
BITMAP
08
08
0C
04
04
04
0C
18
F0
ENDCHAR
STARTCHAR u+632
ENCODING 1586
SWIDTH 500 0
DWIDTH 8 0
BBX 6 12 1 -3
BITMAP
30
30
00
08
08
0C
04
04
04
0C
18
F0
ENDCHAR
STARTCHAR u+633
ENCODING 1587
SWIDTH 500 0
DWIDTH 8 0
BBX 8 9 0 -3
BITMAP
01
11
95
95
9F
9A
90
F0
60
ENDCHAR
STARTCHAR u+634
ENCODING 1588
SWIDTH 500 0
DWIDTH 8 0
BBX 8 13 0 -3
BITMAP
0C
0C
1E
1E
01
11
95
95
9F
9A
90
F0
60
ENDCHAR
STARTCHAR u+635
ENCODING 1589
SWIDTH 500 0
DWIDTH 8 0
BBX 7 8 0 -3
BITMAP
06
56
9A
9E
9E
90
F0
60
ENDCHAR
STARTCHAR u+636
ENCODING 1590
SWIDTH 500 0
DWIDTH 8 0
BBX 7 11 0 -3
BITMAP
0C
0C
00
06
56
9A
9E
9E
90
F0
60
ENDCHAR
STARTCHAR u+637
ENCODING 1591
SWIDTH 500 0
DWIDTH 8 0
BBX 7 9 0 0
BITMAP
20
70
20
20
20
2E
32
FE
7C
ENDCHAR
STARTCHAR u+638
ENCODING 1592
SWIDTH 500 0
DWIDTH 8 0
BBX 7 9 0 0
BITMAP
20
76
26
20
20
2E
32
FE
7C
ENDCHAR
STARTCHAR u+639
ENCODING 1593
SWIDTH 500 0
DWIDTH 8 0
BBX 7 9 1 -4
BITMAP
78
C0
C8
F8
20
40
C0
FE
7C
ENDCHAR
STARTCHAR u+63a
ENCODING 1594
SWIDTH 500 0
DWIDTH 8 0
BBX 7 13 1 -4
BITMAP
30
30
00
00
78
C0
C8
F8
20
40
C0
FE
7C
ENDCHAR
STARTCHAR u+640
ENCODING 1600
SWIDTH 500 0
DWIDTH 8 0
BBX 8 2 0 0
BITMAP
FF
FF
ENDCHAR
STARTCHAR u+641
ENCODING 1601
SWIDTH 500 0
DWIDTH 8 0
BBX 8 9 0 0
BITMAP
03
03
00
02
05
87
81
FF
7E
ENDCHAR
STARTCHAR u+642
ENCODING 1602
SWIDTH 500 0
DWIDTH 8 0
BBX 7 11 1 -3
BITMAP
1E
1E
00
04
0A
8E
82
82
86
FC
78
ENDCHAR
STARTCHAR u+643
ENCODING 1603
SWIDTH 500 0
DWIDTH 8 0
BBX 8 9 0 0
BITMAP
02
07
02
12
32
B2
82
FE
7C
ENDCHAR
STARTCHAR u+644
ENCODING 1604
SWIDTH 500 0
DWIDTH 8 0
BBX 6 10 1 -1
BITMAP
08
1C
08
08
08
84
84
84
FC
78
ENDCHAR
STARTCHAR u+645
ENCODING 1605
SWIDTH 500 0
DWIDTH 8 0
BBX 6 8 2 -4
BITMAP
30
48
44
7C
C0
C0
60
40
ENDCHAR
STARTCHAR u+646
ENCODING 1606
SWIDTH 500 0
DWIDTH 8 0
BBX 7 11 1 -3
BITMAP
18
18
00
04
44
46
82
82
C6
FC
78
ENDCHAR
STARTCHAR u+647
ENCODING 1607
SWIDTH 500 0
DWIDTH 8 0
BBX 3 5 4 0
BITMAP
C0
E0
A0
A0
C0
ENDCHAR
STARTCHAR u+648
ENCODING 1608
SWIDTH 500 0
DWIDTH 8 0
BBX 5 8 2 -3
BITMAP
10
28
28
38
38
08
10
E0
ENDCHAR
STARTCHAR u+649
ENCODING 1609
SWIDTH 500 0
DWIDTH 8 0
BBX 7 7 0 -2
BITMAP
0E
18
9C
9E
82
FC
78
ENDCHAR
STARTCHAR u+64a
ENCODING 1610
SWIDTH 500 0
DWIDTH 8 0
BBX 7 9 0 -4
BITMAP
0E
18
9C
9E
82
FC
78
00
38
ENDCHAR
STARTCHAR u+64b
ENCODING 1611
SWIDTH 500 0
DWIDTH 8 0
BBX 2 1 3 10
BITMAP
C0
ENDCHAR
STARTCHAR u+64c
ENCODING 1612
SWIDTH 500 0
DWIDTH 8 0
BBX 5 1 1 11
BITMAP
C8
ENDCHAR
STARTCHAR u+64d
ENCODING 1613
SWIDTH 500 0
DWIDTH 8 0
BBX 2 3 3 -4
BITMAP
C0
00
C0
ENDCHAR
STARTCHAR u+64e
ENCODING 1614
SWIDTH 500 0
DWIDTH 8 0
BBX 2 1 3 11
BITMAP
C0
ENDCHAR
STARTCHAR u+64f
ENCODING 1615
SWIDTH 500 0
DWIDTH 8 0
BBX 4 1 2 11
BITMAP
D0
ENDCHAR
STARTCHAR u+650
ENCODING 1616
SWIDTH 500 0
DWIDTH 8 0
BBX 2 1 3 -2
BITMAP
C0
ENDCHAR
STARTCHAR u+651
ENCODING 1617
SWIDTH 500 0
DWIDTH 8 0
BBX 5 1 1 11
BITMAP
D8
ENDCHAR
STARTCHAR u+652
ENCODING 1618
SWIDTH 500 0
DWIDTH 8 0
BBX 2 1 3 11
BITMAP
C0
ENDCHAR
STARTCHAR u+653
ENCODING 1619
SWIDTH 500 0
DWIDTH 8 0
BBX 4 2 2 10
BITMAP
D0
A0
ENDCHAR
STARTCHAR u+654
ENCODING 1620
SWIDTH 500 0
DWIDTH 8 0
BBX 3 1 2 11
BITMAP
E0
ENDCHAR
STARTCHAR u+655
ENCODING 1621
SWIDTH 500 0
DWIDTH 8 0
BBX 3 3 2 -4
BITMAP
60
40
E0
ENDCHAR
STARTCHAR u+656
ENCODING 1622
SWIDTH 500 0
DWIDTH 8 0
BBX 1 3 3 -4
BITMAP
80
80
80
ENDCHAR
STARTCHAR u+657
ENCODING 1623
SWIDTH 500 0
DWIDTH 8 0
BBX 4 3 2 9
BITMAP
B0
40
60
ENDCHAR
STARTCHAR u+658
ENCODING 1624
SWIDTH 500 0
DWIDTH 8 0
BBX 3 2 2 10
BITMAP
A0
C0
ENDCHAR
STARTCHAR u+659
ENCODING 1625
SWIDTH 500 0
DWIDTH 8 0
BBX 2 1 3 9
BITMAP
C0
ENDCHAR
STARTCHAR u+65a
ENCODING 1626
SWIDTH 500 0
DWIDTH 8 0
BBX 3 2 3 9
BITMAP
A0
40
ENDCHAR
STARTCHAR u+65b
ENCODING 1627
SWIDTH 500 0
DWIDTH 8 0
BBX 3 2 3 9
BITMAP
40
A0
ENDCHAR
STARTCHAR u+65c
ENCODING 1628
SWIDTH 500 0
DWIDTH 8 0
BBX 2 2 3 -3
BITMAP
C0
C0
ENDCHAR
STARTCHAR u+65d
ENCODING 1629
SWIDTH 500 0
DWIDTH 8 0
BBX 4 3 2 9
BITMAP
60
40
B0
ENDCHAR
STARTCHAR u+65e
ENCODING 1630
SWIDTH 500 0
DWIDTH 8 0
BBX 2 2 3 8
BITMAP
C0
C0
ENDCHAR
STARTCHAR u+660
ENCODING 1632
SWIDTH 500 0
DWIDTH 8 0
BBX 3 4 3 2
BITMAP
80
C0
E0
40
ENDCHAR
STARTCHAR u+661
ENCODING 1633
SWIDTH 500 0
DWIDTH 8 0
BBX 3 9 2 0
BITMAP
80
C0
C0
60
60
20
20
20
20
ENDCHAR
STARTCHAR u+662
ENCODING 1634
SWIDTH 500 0
DWIDTH 8 0
BBX 4 9 2 0
BITMAP
80
90
F0
70
40
60
20
20
20
ENDCHAR
STARTCHAR u+663
ENCODING 1635
SWIDTH 500 0
DWIDTH 8 0
BBX 6 9 1 0
BITMAP
80
94
94
7C
6C
60
20
20
20
ENDCHAR
STARTCHAR u+664
ENCODING 1636
SWIDTH 500 0
DWIDTH 8 0
BBX 5 9 2 0
BITMAP
20
40
C0
E0
20
40
C0
F0
38
ENDCHAR
STARTCHAR u+665
ENCODING 1637
SWIDTH 500 0
DWIDTH 8 0
BBX 4 6 2 0
BITMAP
60
70
90
90
F0
E0
ENDCHAR
STARTCHAR u+666
ENCODING 1638
SWIDTH 500 0
DWIDTH 8 0
BBX 4 9 2 0
BITMAP
80
E0
E0
20
20
20
30
10
10
ENDCHAR
STARTCHAR u+667
ENCODING 1639
SWIDTH 500 0
DWIDTH 8 0
BBX 6 9 1 0
BITMAP
84
C4
4C
68
28
30
10
10
10
ENDCHAR
STARTCHAR u+668
ENCODING 1640
SWIDTH 500 0
DWIDTH 8 0
BBX 6 9 1 0
BITMAP
20
20
20
50
50
58
CC
8C
84
ENDCHAR
STARTCHAR u+669
ENCODING 1641
SWIDTH 500 0
DWIDTH 8 0
BBX 4 9 2 -1
BITMAP
60
A0
A0
E0
20
20
20
30
10
ENDCHAR
STARTCHAR u+66a
ENCODING 1642
SWIDTH 500 0
DWIDTH 8 0
BBX 7 12 1 -2
BITMAP
06
C4
CC
08
18
10
30
20
60
46
C6
C0
ENDCHAR
STARTCHAR u+66b
ENCODING 1643
SWIDTH 500 0
DWIDTH 8 0
BBX 2 4 3 -2
BITMAP
C0
C0
40
80
ENDCHAR
STARTCHAR u+66c
ENCODING 1644
SWIDTH 500 0
DWIDTH 8 0
BBX 2 4 3 0
BITMAP
40
80
C0
C0
ENDCHAR
STARTCHAR u+66d
ENCODING 1645
SWIDTH 500 0
DWIDTH 8 0
BBX 6 6 1 0
BITMAP
10
10
FC
30
78
48
ENDCHAR
STARTCHAR u+66e
ENCODING 1646
SWIDTH 500 0
DWIDTH 8 0
BBX 7 6 0 0
BITMAP
04
04
86
82
FE
7C
ENDCHAR
STARTCHAR u+66f
ENCODING 1647
SWIDTH 500 0
DWIDTH 8 0
BBX 7 8 1 -3
BITMAP
04
0A
8E
82
82
86
FC
78
ENDCHAR
STARTCHAR u+670
ENCODING 1648
SWIDTH 500 0
DWIDTH 8 0
BBX 1 1 4 11
BITMAP
80
ENDCHAR
STARTCHAR u+671
ENCODING 1649
SWIDTH 500 0
DWIDTH 8 0
BBX 4 12 2 0
BITMAP
30
F0
00
40
40
40
40
40
40
40
40
40
ENDCHAR
STARTCHAR u+672
ENCODING 1650
SWIDTH 500 0
DWIDTH 8 0
BBX 4 12 2 0
BITMAP
20
B0
60
00
40
40
40
40
40
40
40
40
ENDCHAR
STARTCHAR u+673
ENCODING 1651
SWIDTH 500 0
DWIDTH 8 0
BBX 4 12 2 -4
BITMAP
40
40
40
40
40
40
40
40
30
20
B0
60
ENDCHAR
STARTCHAR u+674
ENCODING 1652
SWIDTH 500 0
DWIDTH 8 0
BBX 3 1 2 11
BITMAP
E0
ENDCHAR
STARTCHAR u+675
ENCODING 1653
SWIDTH 500 0
DWIDTH 8 0
BBX 4 10 3 0
BITMAP
30
20
F0
80
80
80
80
80
80
80
ENDCHAR
STARTCHAR u+676
ENCODING 1654
SWIDTH 500 0
DWIDTH 8 0
BBX 6 12 2 -3
BITMAP
0C
08
1C
00
10
28
28
38
38
08
10
E0
ENDCHAR
STARTCHAR u+677
ENCODING 1655
SWIDTH 500 0
DWIDTH 8 0
BBX 6 12 2 -3
BITMAP
6C
28
DC
00
10
28
28
38
38
08
10
E0
ENDCHAR
STARTCHAR u+678
ENCODING 1656
SWIDTH 500 0
DWIDTH 8 0
BBX 8 11 0 -2
BITMAP
03
02
07
00
0E
18
9C
9E
82
FC
78
ENDCHAR
STARTCHAR u+679
ENCODING 1657
SWIDTH 500 0
DWIDTH 8 0
BBX 7 12 0 0
BITMAP
20
20
2C
34
7C
00
04
04
86
82
FE
7C
ENDCHAR
STARTCHAR u+67a
ENCODING 1658
SWIDTH 500 0
DWIDTH 8 0
BBX 7 8 0 0
BITMAP
30
20
34
04
86
82
FE
7C
ENDCHAR
STARTCHAR u+67b
ENCODING 1659
SWIDTH 500 0
DWIDTH 8 0
BBX 7 10 0 -4
BITMAP
04
04
86
82
FE
7C
00
10
18
18
ENDCHAR
STARTCHAR u+67c
ENCODING 1660
SWIDTH 500 0
DWIDTH 8 0
BBX 7 9 0 -1
BITMAP
78
50
04
04
86
82
FE
7C
18
ENDCHAR
STARTCHAR u+67d
ENCODING 1661
SWIDTH 500 0
DWIDTH 8 0
BBX 7 8 0 0
BITMAP
30
10
04
04
86
82
FE
7C
ENDCHAR
STARTCHAR u+67e
ENCODING 1662
SWIDTH 500 0
DWIDTH 8 0
BBX 7 9 0 -3
BITMAP
04
04
86
82
FE
7C
00
18
08
ENDCHAR
STARTCHAR u+67f
ENCODING 1663
SWIDTH 500 0
DWIDTH 8 0
BBX 7 8 0 0
BITMAP
18
18
04
04
86
82
FE
7C
ENDCHAR
STARTCHAR u+680
ENCODING 1664
SWIDTH 500 0
DWIDTH 8 0
BBX 7 10 0 -4
BITMAP
04
04
86
82
FE
7C
00
00
18
18
ENDCHAR
STARTCHAR u+681
ENCODING 1665
SWIDTH 500 0
DWIDTH 8 0
BBX 7 14 2 -4
BITMAP
30
20
70
00
00
00
70
9C
60
C0
C0
C0
62
3C
ENDCHAR
STARTCHAR u+682
ENCODING 1666
SWIDTH 500 0
DWIDTH 8 0
BBX 7 13 2 -4
BITMAP
30
20
30
00
00
70
9C
60
C0
C0
C0
62
3C
ENDCHAR
STARTCHAR u+683
ENCODING 1667
SWIDTH 500 0
DWIDTH 8 0
BBX 7 8 2 -4
BITMAP
70
9C
60
DE
D4
C0
62
3C
ENDCHAR
STARTCHAR u+684
ENCODING 1668
SWIDTH 500 0
DWIDTH 8 0
BBX 7 8 2 -4
BITMAP
70
9C
70
D8
D0
D8
62
3C
ENDCHAR
STARTCHAR u+685
ENCODING 1669
SWIDTH 500 0
DWIDTH 8 0
BBX 7 14 2 -4
BITMAP
30
30
78
78
00
00
70
9C
60
C0
C0
C0
62
3C
ENDCHAR
STARTCHAR u+686
ENCODING 1670
SWIDTH 500 0
DWIDTH 8 0
BBX 6 8 2 -4
BITMAP
60
98
60
80
B0
90
44
38
ENDCHAR
STARTCHAR u+687
ENCODING 1671
SWIDTH 500 0
DWIDTH 8 0
BBX 7 8 2 -4
BITMAP
70
9C
60
C0
D8
D8
62
3C
ENDCHAR
STARTCHAR u+688
ENCODING 1672
SWIDTH 500 0
DWIDTH 8 0
BBX 5 12 2 0
BITMAP
40
40
58
68
F8
00
20
30
18
88
F8
70
ENDCHAR
STARTCHAR u+689
ENCODING 1673
SWIDTH 500 0
DWIDTH 8 0
BBX 5 7 2 -1
BITMAP
20
30
18
88
F8
70
30
ENDCHAR
STARTCHAR u+68a
ENCODING 1674
SWIDTH 500 0
DWIDTH 8 0
BBX 5 9 2 -3
BITMAP
20
30
18
88
F8
70
00
30
30
ENDCHAR
STARTCHAR u+68b
ENCODING 1675
SWIDTH 500 0
DWIDTH 8 0
BBX 5 15 2 -3
BITMAP
40
40
58
68
F8
00
20
30
18
88
F8
70
00
30
30
ENDCHAR
STARTCHAR u+68c
ENCODING 1676
SWIDTH 500 0
DWIDTH 8 0
BBX 5 9 2 0
BITMAP
78
50
00
20
30
18
88
F8
70
ENDCHAR
STARTCHAR u+68d
ENCODING 1677
SWIDTH 500 0
DWIDTH 8 0
BBX 5 10 2 -4
BITMAP
20
30
18
88
F8
70
00
00
78
50
ENDCHAR
STARTCHAR u+68e
ENCODING 1678
SWIDTH 500 0
DWIDTH 8 0
BBX 5 11 2 0
BITMAP
30
30
78
78
00
20
30
18
88
F8
70
ENDCHAR
STARTCHAR u+68f
ENCODING 1679
SWIDTH 500 0
DWIDTH 8 0
BBX 5 10 2 0
BITMAP
60
20
00
00
20
30
18
88
F8
70
ENDCHAR
STARTCHAR u+690
ENCODING 1680
SWIDTH 500 0
DWIDTH 8 0
BBX 5 9 2 0
BITMAP
60
60
00
20
30
18
88
F8
70
ENDCHAR
STARTCHAR u+691
ENCODING 1681
SWIDTH 500 0
DWIDTH 8 0
BBX 6 15 1 -3
BITMAP
20
20
2C
34
7C
00
08
08
0C
04
04
04
0C
18
F0
ENDCHAR
STARTCHAR u+692
ENCODING 1682
SWIDTH 500 0
DWIDTH 8 0
BBX 6 13 1 -3
BITMAP
28
10
00
00
08
08
0C
04
04
04
0C
18
F0
ENDCHAR
STARTCHAR u+693
ENCODING 1683
SWIDTH 500 0
DWIDTH 8 0
BBX 7 9 1 -3
BITMAP
08
08
0C
04
04
04
0C
1E
F6
ENDCHAR
STARTCHAR u+694
ENCODING 1684
SWIDTH 500 0
DWIDTH 8 0
BBX 8 9 1 -3
BITMAP
08
08
0C
04
04
04
0C
1B
F3
ENDCHAR
STARTCHAR u+695
ENCODING 1685
SWIDTH 500 0
DWIDTH 8 0
BBX 8 10 1 -4
BITMAP
08
08
0C
04
04
04
0C
18
F5
02
ENDCHAR
STARTCHAR u+696
ENCODING 1686
SWIDTH 500 0
DWIDTH 8 0
BBX 8 9 1 -3
BITMAP
08
08
0C
04
34
34
0C
1B
F3
ENDCHAR
STARTCHAR u+697
ENCODING 1687
SWIDTH 500 0
DWIDTH 8 0
BBX 6 12 1 -3
BITMAP
3C
28
00
08
08
0C
04
04
04
0C
18
F0
ENDCHAR
STARTCHAR u+698
ENCODING 1688
SWIDTH 500 0
DWIDTH 8 0
BBX 6 14 1 -3
BITMAP
18
18
3C
3C
00
08
08
0C
04
04
04
0C
18
F0
ENDCHAR
STARTCHAR u+699
ENCODING 1689
SWIDTH 500 0
DWIDTH 8 0
BBX 6 12 1 -3
BITMAP
18
18
00
08
08
0C
04
04
04
0C
18
F0
ENDCHAR
STARTCHAR u+69a
ENCODING 1690
SWIDTH 500 0
DWIDTH 8 0
BBX 8 11 0 -3
BITMAP
0C
0C
01
11
95
95
9F
9A
90
F6
66
ENDCHAR
STARTCHAR u+69b
ENCODING 1691
SWIDTH 500 0
DWIDTH 8 0
BBX 8 9 0 -3
BITMAP
01
11
95
95
9F
9A
90
F6
62
ENDCHAR
STARTCHAR u+69c
ENCODING 1692
SWIDTH 500 0
DWIDTH 8 0
BBX 8 14 0 -3
BITMAP
06
06
0F
0F
00
01
11
95
95
9F
9A
90
F6
62
ENDCHAR
STARTCHAR u+69d
ENCODING 1693
SWIDTH 500 0
DWIDTH 8 0
BBX 8 9 0 -4
BITMAP
06
56
9A
9E
9E
90
F0
6F
0A
ENDCHAR
STARTCHAR u+69e
ENCODING 1694
SWIDTH 500 0
DWIDTH 8 0
BBX 8 14 0 -3
BITMAP
06
06
0F
0F
00
00
06
56
9A
9E
9E
90
F0
60
ENDCHAR
STARTCHAR u+69f
ENCODING 1695
SWIDTH 500 0
DWIDTH 8 0
BBX 8 11 0 0
BITMAP
06
06
2F
7F
20
20
20
2E
32
FE
7C
ENDCHAR
STARTCHAR u+6a0
ENCODING 1696
SWIDTH 500 0
DWIDTH 8 0
BBX 7 15 1 -4
BITMAP
30
30
78
78
00
00
78
C0
C8
F8
20
40
C0
FE
7C
ENDCHAR
STARTCHAR u+6a1
ENCODING 1697
SWIDTH 500 0
DWIDTH 8 0
BBX 8 6 0 0
BITMAP
02
05
87
81
FF
7E
ENDCHAR
STARTCHAR u+6a2
ENCODING 1698
SWIDTH 500 0
DWIDTH 8 0
BBX 8 9 0 -3
BITMAP
02
05
87
81
FF
7E
00
03
03
ENDCHAR
STARTCHAR u+6a3
ENCODING 1699
SWIDTH 500 0
DWIDTH 8 0
BBX 8 13 0 -3
BITMAP
03
03
00
00
02
05
87
81
FF
7E
00
18
18
ENDCHAR
STARTCHAR u+6a4
ENCODING 1700
SWIDTH 500 0
DWIDTH 8 0
BBX 8 11 0 0
BITMAP
06
06
0F
0F
00
02
05
87
81
FF
7E
ENDCHAR
STARTCHAR u+6a5
ENCODING 1701
SWIDTH 500 0
DWIDTH 8 0
BBX 8 9 0 -3
BITMAP
02
05
87
81
FF
7E
00
18
08
ENDCHAR
STARTCHAR u+6a6
ENCODING 1702
SWIDTH 500 0
DWIDTH 8 0
BBX 8 9 0 0
BITMAP
03
03
00
02
05
87
81
FF
7E
ENDCHAR
STARTCHAR u+6a7
ENCODING 1703
SWIDTH 500 0
DWIDTH 8 0
BBX 7 12 1 -3
BITMAP
06
06
00
00
04
0A
8E
82
82
86
FC
78
ENDCHAR
STARTCHAR u+6a8
ENCODING 1704
SWIDTH 500 0
DWIDTH 8 0
BBX 8 14 1 -3
BITMAP
06
06
0F
0F
00
00
04
0A
8E
82
82
86
FC
78
ENDCHAR
STARTCHAR u+6a9
ENCODING 1705
SWIDTH 500 0
DWIDTH 8 0
BBX 8 9 0 0
BITMAP
01
07
0E
08
8C
86
82
FE
7C
ENDCHAR
STARTCHAR u+6aa
ENCODING 1706
SWIDTH 500 0
DWIDTH 8 0
BBX 8 8 0 0
BITMAP
20
60
40
7F
7F
01
FF
7E
ENDCHAR
STARTCHAR u+6ab
ENCODING 1707
SWIDTH 500 0
DWIDTH 8 0
BBX 8 9 0 0
BITMAP
01
07
0F
0B
8C
86
82
FE
7C
ENDCHAR
STARTCHAR u+6ac
ENCODING 1708
SWIDTH 500 0
DWIDTH 8 0
BBX 8 12 0 0
BITMAP
06
06
00
02
07
02
12
32
B2
82
FE
7C
ENDCHAR
STARTCHAR u+6ad
ENCODING 1709
SWIDTH 500 0
DWIDTH 8 0
BBX 8 12 0 0
BITMAP
04
06
00
02
07
02
12
32
B2
82
FE
7C
ENDCHAR
STARTCHAR u+6ae
ENCODING 1710
SWIDTH 500 0
DWIDTH 8 0
BBX 8 12 0 -3
BITMAP
02
07
02
12
32
B2
82
FE
7C
00
18
08
ENDCHAR
STARTCHAR u+6af
ENCODING 1711
SWIDTH 500 0
DWIDTH 8 0
BBX 8 10 0 0
BITMAP
01
0E
11
06
18
5C
8E
82
FE
7C
ENDCHAR
STARTCHAR u+6b0
ENCODING 1712
SWIDTH 500 0
DWIDTH 8 0
BBX 8 10 0 0
BITMAP
01
0E
11
07
1B
5C
8E
82
FE
7C
ENDCHAR
STARTCHAR u+6b1
ENCODING 1713
SWIDTH 500 0
DWIDTH 8 0
BBX 8 12 0 0
BITMAP
1E
14
01
0E
11
06
18
5C
8E
82
FE
7C
ENDCHAR
STARTCHAR u+6b2
ENCODING 1714
SWIDTH 500 0
DWIDTH 8 0
BBX 8 14 0 -4
BITMAP
01
0E
11
06
18
5C
8E
82
FE
7C
00
00
3C
28
ENDCHAR
STARTCHAR u+6b3
ENCODING 1715
SWIDTH 500 0
DWIDTH 8 0
BBX 8 14 0 -4
BITMAP
01
0E
11
06
18
5C
8E
82
FE
7C
10
18
10
18
ENDCHAR
STARTCHAR u+6b4
ENCODING 1716
SWIDTH 500 0
DWIDTH 8 0
BBX 8 12 0 0
BITMAP
08
0C
01
0E
11
06
18
5C
8E
82
FE
7C
ENDCHAR
STARTCHAR u+6b5
ENCODING 1717
SWIDTH 500 0
DWIDTH 8 0
BBX 6 13 1 -1
BITMAP
14
08
00
08
1C
08
08
08
84
84
84
FC
78
ENDCHAR
STARTCHAR u+6b6
ENCODING 1718
SWIDTH 500 0
DWIDTH 8 0
BBX 6 13 1 -1
BITMAP
0C
0C
00
08
1C
08
08
08
84
84
84
FC
78
ENDCHAR
STARTCHAR u+6b7
ENCODING 1719
SWIDTH 500 0
DWIDTH 8 0
BBX 6 13 1 -1
BITMAP
08
0C
00
08
1C
08
08
08
84
84
84
FC
78
ENDCHAR
STARTCHAR u+6b8
ENCODING 1720
SWIDTH 500 0
DWIDTH 8 0
BBX 6 13 1 -4
BITMAP
08
1C
08
08
08
84
84
84
FC
78
00
30
10
ENDCHAR
STARTCHAR u+6b9
ENCODING 1721
SWIDTH 500 0
DWIDTH 8 0
BBX 7 13 1 -4
BITMAP
18
18
00
04
44
46
82
82
C6
FC
78
18
18
ENDCHAR
STARTCHAR u+6ba
ENCODING 1722
SWIDTH 500 0
DWIDTH 8 0
BBX 6 8 1 -3
BITMAP
08
48
4C
84
84
84
F8
70
ENDCHAR
STARTCHAR u+6bb
ENCODING 1723
SWIDTH 500 0
DWIDTH 8 0
BBX 6 14 1 -3
BITMAP
20
20
2C
34
7C
00
08
48
4C
84
84
84
F8
70
ENDCHAR
STARTCHAR u+6bc
ENCODING 1724
SWIDTH 500 0
DWIDTH 8 0
BBX 7 12 1 -4
BITMAP
18
18
00
04
44
46
82
82
C6
FC
78
18
ENDCHAR
STARTCHAR u+6bd
ENCODING 1725
SWIDTH 500 0
DWIDTH 8 0
BBX 6 14 1 -3
BITMAP
30
30
78
78
00
00
08
48
4C
84
84
84
F8
70
ENDCHAR
STARTCHAR u+6be
ENCODING 1726
SWIDTH 500 0
DWIDTH 8 0
BBX 6 5 0 0
BITMAP
70
78
54
FC
E8
ENDCHAR
STARTCHAR u+6bf
ENCODING 1727
SWIDTH 500 0
DWIDTH 8 0
BBX 7 13 2 -4
BITMAP
30
30
00
00
00
70
9C
60
D8
C8
C0
62
3C
ENDCHAR
STARTCHAR u+6c0
ENCODING 1728
SWIDTH 500 0
DWIDTH 8 0
BBX 4 11 3 0
BITMAP
60
40
E0
00
00
00
60
70
50
50
60
ENDCHAR
STARTCHAR u+6c1
ENCODING 1729
SWIDTH 500 0
DWIDTH 8 0
BBX 6 5 2 -2
BITMAP
30
7C
5C
40
80
ENDCHAR
STARTCHAR u+6c2
ENCODING 1730
SWIDTH 500 0
DWIDTH 8 0
BBX 6 11 2 -2
BITMAP
30
20
70
00
00
00
30
7C
5C
40
80
ENDCHAR
STARTCHAR u+6c3
ENCODING 1731
SWIDTH 500 0
DWIDTH 8 0
BBX 6 8 2 -2
BITMAP
F0
A0
00
30
7C
5C
40
80
ENDCHAR
STARTCHAR u+6c4
ENCODING 1732
SWIDTH 500 0
DWIDTH 8 0
BBX 5 8 2 -3
BITMAP
10
28
28
38
38
08
70
E0
ENDCHAR
STARTCHAR u+6c5
ENCODING 1733
SWIDTH 500 0
DWIDTH 8 0
BBX 5 8 2 -3
BITMAP
10
28
38
38
08
78
18
F0
ENDCHAR
STARTCHAR u+6c6
ENCODING 1734
SWIDTH 500 0
DWIDTH 8 0
BBX 5 12 2 -3
BITMAP
28
10
00
00
10
28
28
38
38
08
10
E0
ENDCHAR
STARTCHAR u+6c7
ENCODING 1735
SWIDTH 500 0
DWIDTH 8 0
BBX 6 13 2 -3
BITMAP
18
08
34
00
00
10
28
28
38
38
08
10
E0
ENDCHAR
STARTCHAR u+6c8
ENCODING 1736
SWIDTH 500 0
DWIDTH 8 0
BBX 5 13 2 -3
BITMAP
10
10
10
00
00
10
28
28
38
38
08
10
E0
ENDCHAR
STARTCHAR u+6c9
ENCODING 1737
SWIDTH 500 0
DWIDTH 8 0
BBX 5 12 2 -3
BITMAP
10
28
00
00
10
28
28
38
38
08
10
E0
ENDCHAR
STARTCHAR u+6ca
ENCODING 1738
SWIDTH 500 0
DWIDTH 8 0
BBX 6 11 2 -3
BITMAP
3C
28
00
10
28
28
38
38
08
10
E0
ENDCHAR
STARTCHAR u+6cb
ENCODING 1739
SWIDTH 500 0
DWIDTH 8 0
BBX 6 14 2 -3
BITMAP
18
18
3C
3C
00
00
10
28
28
38
38
08
10
E0
ENDCHAR
STARTCHAR u+6cc
ENCODING 1740
SWIDTH 500 0
DWIDTH 8 0
BBX 7 7 0 -2
BITMAP
0E
18
9C
9E
82
FC
78
ENDCHAR
STARTCHAR u+6cd
ENCODING 1741
SWIDTH 500 0
DWIDTH 8 0
BBX 7 7 0 -2
BITMAP
06
08
4E
C6
42
7C
3C
ENDCHAR
STARTCHAR u+6ce
ENCODING 1742
SWIDTH 500 0
DWIDTH 8 0
BBX 7 9 0 -2
BITMAP
50
20
0E
18
9C
9E
82
FC
78
ENDCHAR
STARTCHAR u+6cf
ENCODING 1743
SWIDTH 500 0
DWIDTH 8 0
BBX 5 12 2 -3
BITMAP
18
18
00
00
10
28
28
38
38
08
10
E0
ENDCHAR
STARTCHAR u+6d0
ENCODING 1744
SWIDTH 500 0
DWIDTH 8 0
BBX 7 9 0 -4
BITMAP
0E
18
9C
9E
82
FC
78
10
10
ENDCHAR
STARTCHAR u+6d1
ENCODING 1745
SWIDTH 500 0
DWIDTH 8 0
BBX 7 9 0 -4
BITMAP
0E
18
9C
9E
82
FC
78
18
08
ENDCHAR
STARTCHAR u+6d2
ENCODING 1746
SWIDTH 500 0
DWIDTH 8 0
BBX 7 6 1 -3
BITMAP
10
38
E0
80
FE
FE
ENDCHAR
STARTCHAR u+6d3
ENCODING 1747
SWIDTH 500 0
DWIDTH 8 0
BBX 7 10 1 -3
BITMAP
60
40
E0
00
10
38
E0
80
FE
FE
ENDCHAR
STARTCHAR u+6d4
ENCODING 1748
SWIDTH 500 0
DWIDTH 8 0
BBX 3 2 3 0
BITMAP
E0
E0
ENDCHAR
STARTCHAR u+6d5
ENCODING 1749
SWIDTH 500 0
DWIDTH 8 0
BBX 3 5 4 0
BITMAP
C0
E0
A0
A0
C0
ENDCHAR
STARTCHAR u+6d6
ENCODING 1750
SWIDTH 500 0
DWIDTH 8 0
BBX 9 7 0 5
BITMAP
2000
2000
2180
2A80
FF80
8000
F000
ENDCHAR
STARTCHAR u+6d7
ENCODING 1751
SWIDTH 500 0
DWIDTH 8 0
BBX 7 7 1 5
BITMAP
20
24
2A
2E
FE
80
F0
ENDCHAR
STARTCHAR u+6d8
ENCODING 1752
SWIDTH 500 0
DWIDTH 8 0
BBX 5 3 2 7
BITMAP
18
28
D8
ENDCHAR
STARTCHAR u+6d9
ENCODING 1753
SWIDTH 500 0
DWIDTH 8 0
BBX 4 5 2 7
BITMAP
90
E0
20
50
70
ENDCHAR
STARTCHAR u+6da
ENCODING 1754
SWIDTH 500 0
DWIDTH 8 0
BBX 4 5 2 5
BITMAP
F0
40
A0
90
60
ENDCHAR
STARTCHAR u+6db
ENCODING 1755
SWIDTH 500 0
DWIDTH 8 0
BBX 2 2 3 10
BITMAP
80
C0
ENDCHAR
STARTCHAR u+6dc
ENCODING 1756
SWIDTH 500 0
DWIDTH 8 0
BBX 7 4 1 6
BITMAP
02
AA
BE
E0
ENDCHAR
STARTCHAR u+6dd
ENCODING 1757
SWIDTH 500 0
DWIDTH 8 0
BBX 8 12 0 -2
BITMAP
7E
7E
42
81
81
81
81
81
81
42
7E
7E
ENDCHAR
STARTCHAR u+6de
ENCODING 1758
SWIDTH 500 0
DWIDTH 8 0
BBX 11 11 -1 -2
BITMAP
0400
0A00
3F80
3280
6FC0
AAA0
6EC0
3380
3F80
0A00
0400
ENDCHAR
STARTCHAR u+6df
ENCODING 1759
SWIDTH 500 0
DWIDTH 8 0
BBX 1 1 4 7
BITMAP
80
ENDCHAR
STARTCHAR u+6e0
ENCODING 1760
SWIDTH 500 0
DWIDTH 8 0
BBX 1 1 4 7
BITMAP
80
ENDCHAR
STARTCHAR u+6e1
ENCODING 1761
SWIDTH 500 0
DWIDTH 8 0
BBX 4 3 2 7
BITMAP
60
10
E0
ENDCHAR
STARTCHAR u+6e2
ENCODING 1762
SWIDTH 500 0
DWIDTH 8 0
BBX 4 5 2 5
BITMAP
E0
90
F0
80
80
ENDCHAR
STARTCHAR u+6e3
ENCODING 1763
SWIDTH 500 0
DWIDTH 8 0
BBX 7 4 1 -4
BITMAP
02
AA
BE
E0
ENDCHAR
STARTCHAR u+6e4
ENCODING 1764
SWIDTH 500 0
DWIDTH 8 0
BBX 3 1 2 11
BITMAP
A0
ENDCHAR
STARTCHAR u+6e5
ENCODING 1765
SWIDTH 500 0
DWIDTH 8 0
BBX 4 5 3 5
BITMAP
30
50
70
10
E0
ENDCHAR
STARTCHAR u+6e6
ENCODING 1766
SWIDTH 500 0
DWIDTH 8 0
BBX 4 4 2 3
BITMAP
20
C0
80
F0
ENDCHAR
STARTCHAR u+6e7
ENCODING 1767
SWIDTH 500 0
DWIDTH 8 0
BBX 4 4 2 5
BITMAP
20
C0
80
F0
ENDCHAR
STARTCHAR u+6e8
ENCODING 1768
SWIDTH 500 0
DWIDTH 8 0
BBX 4 5 2 6
BITMAP
40
10
90
90
E0
ENDCHAR
STARTCHAR u+6e9
ENCODING 1769
SWIDTH 500 0
DWIDTH 8 0
BBX 11 12 -1 0
BITMAP
0400
1B00
64C0
9B20
66C0
1B00
1B00
1F00
3980
2E80
4040
FFE0
ENDCHAR
STARTCHAR u+6ea
ENCODING 1770
SWIDTH 500 0
DWIDTH 8 0
BBX 3 3 3 -2
BITMAP
40
A0
40
ENDCHAR
STARTCHAR u+6eb
ENCODING 1771
SWIDTH 500 0
DWIDTH 8 0
BBX 3 3 3 8
BITMAP
40
A0
40
ENDCHAR
STARTCHAR u+6ec
ENCODING 1772
SWIDTH 500 0
DWIDTH 8 0
BBX 1 1 4 7
BITMAP
80
ENDCHAR
STARTCHAR u+6ed
ENCODING 1773
SWIDTH 500 0
DWIDTH 8 0
BBX 4 5 2 -4
BITMAP
E0
90
F0
80
80
ENDCHAR
STARTCHAR u+6ee
ENCODING 1774
SWIDTH 500 0
DWIDTH 8 0
BBX 5 10 2 0
BITMAP
20
50
00
00
20
30
18
88
F8
70
ENDCHAR
STARTCHAR u+6ef
ENCODING 1775
SWIDTH 500 0
DWIDTH 8 0
BBX 6 12 1 -3
BITMAP
10
28
00
08
08
0C
04
04
04
0C
18
F0
ENDCHAR
STARTCHAR u+6f0
ENCODING 1776
SWIDTH 500 0
DWIDTH 8 0
BBX 3 4 3 2
BITMAP
80
C0
E0
40
ENDCHAR
STARTCHAR u+6f1
ENCODING 1777
SWIDTH 500 0
DWIDTH 8 0
BBX 3 9 2 0
BITMAP
80
C0
C0
60
60
20
20
20
20
ENDCHAR
STARTCHAR u+6f2
ENCODING 1778
SWIDTH 500 0
DWIDTH 8 0
BBX 4 9 2 0
BITMAP
80
90
F0
70
40
60
20
20
20
ENDCHAR
STARTCHAR u+6f3
ENCODING 1779
SWIDTH 500 0
DWIDTH 8 0
BBX 6 9 1 0
BITMAP
80
94
94
7C
6C
60
20
20
20
ENDCHAR
STARTCHAR u+6f4
ENCODING 1780
SWIDTH 500 0
DWIDTH 8 0
BBX 5 9 2 0
BITMAP
80
B8
E0
48
78
20
20
20
20
ENDCHAR
STARTCHAR u+6f5
ENCODING 1781
SWIDTH 500 0
DWIDTH 8 0
BBX 6 9 1 0
BITMAP
10
10
18
28
6C
44
D4
F4
78
ENDCHAR
STARTCHAR u+6f6
ENCODING 1782
SWIDTH 500 0
DWIDTH 8 0
BBX 5 8 2 0
BITMAP
38
40
88
F8
30
60
40
40
ENDCHAR
STARTCHAR u+6f7
ENCODING 1783
SWIDTH 500 0
DWIDTH 8 0
BBX 6 9 1 0
BITMAP
84
C4
4C
68
28
30
10
10
10
ENDCHAR
STARTCHAR u+6f8
ENCODING 1784
SWIDTH 500 0
DWIDTH 8 0
BBX 6 9 1 0
BITMAP
20
20
20
50
50
58
CC
8C
84
ENDCHAR
STARTCHAR u+6f9
ENCODING 1785
SWIDTH 500 0
DWIDTH 8 0
BBX 4 9 2 -1
BITMAP
60
A0
A0
E0
20
20
20
30
10
ENDCHAR
STARTCHAR u+6fa
ENCODING 1786
SWIDTH 500 0
DWIDTH 8 0
BBX 8 14 0 -3
BITMAP
0C
0C
1E
1E
00
01
11
95
95
9F
9A
90
F6
66
ENDCHAR
STARTCHAR u+6fb
ENCODING 1787
SWIDTH 500 0
DWIDTH 8 0
BBX 7 11 0 -3
BITMAP
06
06
00
06
56
9A
9E
9E
90
F6
66
ENDCHAR
STARTCHAR u+6fc
ENCODING 1788
SWIDTH 500 0
DWIDTH 8 0
BBX 7 13 1 -4
BITMAP
30
30
00
00
78
C0
C8
F8
2C
4C
C0
FE
7C
ENDCHAR
STARTCHAR u+6fd
ENCODING 1789
SWIDTH 500 0
DWIDTH 8 0
BBX 4 7 3 -2
BITMAP
60
80
70
C0
00
50
50
ENDCHAR
STARTCHAR u+6fe
ENCODING 1790
SWIDTH 500 0
DWIDTH 8 0
BBX 6 8 2 -4
BITMAP
60
90
88
F8
C0
D4
D4
80
ENDCHAR
STARTCHAR u+6ff
ENCODING 1791
SWIDTH 500 0
DWIDTH 8 0
BBX 6 9 0 0
BITMAP
20
50
00
00
70
78
54
FC
E8
ENDCHAR
STARTCHAR u+750
ENCODING 1872
SWIDTH 500 0
DWIDTH 8 0
BBX 7 9 0 -3
BITMAP
04
04
86
82
FE
7C
00
7E
7E
ENDCHAR
STARTCHAR u+751
ENCODING 1873
SWIDTH 500 0
DWIDTH 8 0
BBX 7 14 0 -4
BITMAP
30
30
78
78
04
04
86
82
FE
7C
00
00
18
18
ENDCHAR
STARTCHAR u+752
ENCODING 1874
SWIDTH 500 0
DWIDTH 8 0
BBX 7 10 0 -4
BITMAP
04
04
86
82
FE
7C
00
00
10
18
ENDCHAR
STARTCHAR u+753
ENCODING 1875
SWIDTH 500 0
DWIDTH 8 0
BBX 7 12 0 -4
BITMAP
78
50
04
04
86
82
FE
7C
00
00
10
18
ENDCHAR
STARTCHAR u+754
ENCODING 1876
SWIDTH 500 0
DWIDTH 8 0
BBX 7 12 0 -4
BITMAP
30
30
04
04
86
82
FE
7C
00
00
3C
28
ENDCHAR
STARTCHAR u+755
ENCODING 1877
SWIDTH 500 0
DWIDTH 8 0
BBX 7 9 0 -3
BITMAP
04
04
86
82
FE
7C
00
10
28
ENDCHAR
STARTCHAR u+756
ENCODING 1878
SWIDTH 500 0
DWIDTH 8 0
BBX 7 8 0 0
BITMAP
28
10
04
04
86
82
FE
7C
ENDCHAR
STARTCHAR u+757
ENCODING 1879
SWIDTH 500 0
DWIDTH 8 0
BBX 7 12 2 -4
BITMAP
78
50
00
00
70
9C
60
C0
C0
C0
62
3C
ENDCHAR
STARTCHAR u+758
ENCODING 1880
SWIDTH 500 0
DWIDTH 8 0
BBX 7 8 2 -4
BITMAP
70
9C
60
C0
D0
D8
62
3C
ENDCHAR
STARTCHAR u+759
ENCODING 1881
SWIDTH 500 0
DWIDTH 8 0
BBX 5 16 2 -4
BITMAP
40
40
58
68
F8
00
20
30
18
88
F8
70
20
30
20
30
ENDCHAR
STARTCHAR u+75a
ENCODING 1882
SWIDTH 500 0
DWIDTH 8 0
BBX 5 9 2 -3
BITMAP
20
30
18
88
F8
70
00
20
50
ENDCHAR
STARTCHAR u+75b
ENCODING 1883
SWIDTH 500 0
DWIDTH 8 0
BBX 7 9 1 -3
BITMAP
08
08
0C
04
04
04
7E
18
F0
ENDCHAR
STARTCHAR u+75c
ENCODING 1884
SWIDTH 500 0
DWIDTH 8 0
BBX 8 11 0 -3
BITMAP
0C
0C
01
11
95
95
9F
9A
90
F0
60
ENDCHAR
STARTCHAR u+75d
ENCODING 1885
SWIDTH 500 0
DWIDTH 8 0
BBX 7 13 1 -4
BITMAP
78
50
00
00
78
C0
C8
F8
20
40
C0
FE
7C
ENDCHAR
STARTCHAR u+75e
ENCODING 1886
SWIDTH 500 0
DWIDTH 8 0
BBX 7 13 1 -4
BITMAP
60
20
00
00
78
C0
C8
F8
20
40
C0
FE
7C
ENDCHAR
STARTCHAR u+75f
ENCODING 1887
SWIDTH 500 0
DWIDTH 8 0
BBX 7 13 1 -4
BITMAP
30
20
30
00
78
C0
C8
F8
20
40
C0
FE
7C
ENDCHAR
STARTCHAR u+760
ENCODING 1888
SWIDTH 500 0
DWIDTH 8 0
BBX 8 10 0 -4
BITMAP
02
05
87
81
FF
7E
00
00
0F
0A
ENDCHAR
STARTCHAR u+761
ENCODING 1889
SWIDTH 500 0
DWIDTH 8 0
BBX 8 10 0 -4
BITMAP
02
05
87
81
FF
7E
00
00
02
03
ENDCHAR
STARTCHAR u+762
ENCODING 1890
SWIDTH 500 0
DWIDTH 8 0
BBX 8 11 0 0
BITMAP
06
06
01
07
0E
08
8C
86
82
FE
7C
ENDCHAR
STARTCHAR u+763
ENCODING 1891
SWIDTH 500 0
DWIDTH 8 0
BBX 8 11 0 0
BITMAP
08
0C
01
07
0E
08
8C
86
82
FE
7C
ENDCHAR
STARTCHAR u+764
ENCODING 1892
SWIDTH 500 0
DWIDTH 8 0
BBX 8 13 0 -4
BITMAP
01
07
0E
08
8C
86
82
FE
7C
00
00
10
18
ENDCHAR
STARTCHAR u+765
ENCODING 1893
SWIDTH 500 0
DWIDTH 8 0
BBX 6 12 2 -4
BITMAP
30
30
00
00
30
48
44
7C
C0
C0
60
40
ENDCHAR
STARTCHAR u+766
ENCODING 1894
SWIDTH 500 0
DWIDTH 8 0
BBX 6 8 2 -4
BITMAP
30
48
44
7C
C0
CC
6C
40
ENDCHAR
STARTCHAR u+767
ENCODING 1895
SWIDTH 500 0
DWIDTH 8 0
BBX 7 14 1 -4
BITMAP
18
18
00
04
44
46
82
82
C6
FC
78
00
78
50
ENDCHAR
STARTCHAR u+768
ENCODING 1896
SWIDTH 500 0
DWIDTH 8 0
BBX 6 15 1 -3
BITMAP
20
2C
34
7C
00
30
30
00
48
4C
84
84
84
F8
70
ENDCHAR
STARTCHAR u+769
ENCODING 1897
SWIDTH 500 0
DWIDTH 8 0
BBX 7 14 1 -3
BITMAP
28
10
00
18
18
00
04
44
46
82
82
C6
FC
78
ENDCHAR
STARTCHAR u+76a
ENCODING 1898
SWIDTH 500 0
DWIDTH 8 0
BBX 6 10 1 -1
BITMAP
08
1C
08
3C
08
84
84
84
FC
78
ENDCHAR
STARTCHAR u+76b
ENCODING 1899
SWIDTH 500 0
DWIDTH 8 0
BBX 6 13 1 -3
BITMAP
18
10
18
00
08
08
0C
04
04
04
0C
18
F0
ENDCHAR
STARTCHAR u+76c
ENCODING 1900
SWIDTH 500 0
DWIDTH 8 0
BBX 6 13 1 -3
BITMAP
0C
08
1C
00
08
08
0C
04
04
04
0C
18
F0
ENDCHAR
STARTCHAR u+76d
ENCODING 1901
SWIDTH 500 0
DWIDTH 8 0
BBX 8 12 0 -3
BITMAP
0C
08
0C
01
11
95
95
9F
9A
90
F0
60
ENDCHAR
STARTCHAR u+1d00
ENCODING 7424
SWIDTH 500 0
DWIDTH 8 0
BBX 8 6 0 0
BITMAP
78
3C
24
7E
42
E7
ENDCHAR
STARTCHAR u+1d01
ENCODING 7425
SWIDTH 500 0
DWIDTH 8 0
BBX 8 6 0 0
BITMAP
7F
3C
6E
7C
6C
FF
ENDCHAR
STARTCHAR u+1d02
ENCODING 7426
SWIDTH 500 0
DWIDTH 8 0
BBX 8 6 0 0
BITMAP
7E
9B
1B
FE
D8
6E
ENDCHAR
STARTCHAR u+1d03
ENCODING 7427
SWIDTH 500 0
DWIDTH 8 0
BBX 8 6 0 0
BITMAP
F8
6C
FF
66
66
FC
ENDCHAR
STARTCHAR u+1d04
ENCODING 7428
SWIDTH 500 0
DWIDTH 8 0
BBX 6 6 1 0
BITMAP
7C
C4
C4
C0
C4
78
ENDCHAR
STARTCHAR u+1d05
ENCODING 7429
SWIDTH 500 0
DWIDTH 8 0
BBX 7 6 0 0
BITMAP
FC
66
66
66
66
FC
ENDCHAR
STARTCHAR u+1d06
ENCODING 7430
SWIDTH 500 0
DWIDTH 8 0
BBX 7 6 0 0
BITMAP
FC
66
F6
66
66
FC
ENDCHAR
STARTCHAR u+1d07
ENCODING 7431
SWIDTH 500 0
DWIDTH 8 0
BBX 6 6 1 0
BITMAP
FC
64
70
60
64
FC
ENDCHAR
STARTCHAR u+1d08
ENCODING 7432
SWIDTH 500 0
DWIDTH 8 0
BBX 7 7 0 0
BITMAP
60
7C
66
6C
06
C6
7C
ENDCHAR
STARTCHAR u+1d09
ENCODING 7433
SWIDTH 500 0
DWIDTH 8 0
BBX 6 9 1 -3
BITMAP
FC
30
30
30
30
3C
00
30
30
ENDCHAR
STARTCHAR u+1d0a
ENCODING 7434
SWIDTH 500 0
DWIDTH 8 0
BBX 5 6 2 0
BITMAP
78
30
30
30
B0
E0
ENDCHAR
STARTCHAR u+1d0b
ENCODING 7435
SWIDTH 500 0
DWIDTH 8 0
BBX 7 6 0 0
BITMAP
EE
6C
78
78
6C
EE
ENDCHAR
STARTCHAR u+1d0c
ENCODING 7436
SWIDTH 500 0
DWIDTH 8 0
BBX 7 6 0 0
BITMAP
F8
60
78
E2
62
FE
ENDCHAR
STARTCHAR u+1d0d
ENCODING 7437
SWIDTH 500 0
DWIDTH 8 0
BBX 8 6 0 0
BITMAP
E3
76
76
6A
62
F7
ENDCHAR
STARTCHAR u+1d0e
ENCODING 7438
SWIDTH 500 0
DWIDTH 8 0
BBX 8 6 0 0
BITMAP
F7
6E
6E
76
76
EF
ENDCHAR
STARTCHAR u+1d0f
ENCODING 7439
SWIDTH 500 0
DWIDTH 8 0
BBX 6 6 1 0
BITMAP
78
CC
CC
CC
CC
78
ENDCHAR
STARTCHAR u+1d10
ENCODING 7440
SWIDTH 500 0
DWIDTH 8 0
BBX 6 6 1 0
BITMAP
F8
8C
0C
0C
8C
78
ENDCHAR
STARTCHAR u+1d11
ENCODING 7441
SWIDTH 500 0
DWIDTH 8 0
BBX 6 6 1 0
BITMAP
78
CC
CC
CC
CC
78
ENDCHAR
STARTCHAR u+1d12
ENCODING 7442
SWIDTH 500 0
DWIDTH 8 0
BBX 6 6 1 0
BITMAP
78
FC
84
84
84
4C
ENDCHAR
STARTCHAR u+1d13
ENCODING 7443
SWIDTH 500 0
DWIDTH 8 0
BBX 6 8 1 -1
BITMAP
80
78
CC
EC
DC
CC
78
04
ENDCHAR
STARTCHAR u+1d14
ENCODING 7444
SWIDTH 500 0
DWIDTH 8 0
BBX 8 6 0 0
BITMAP
76
9B
1B
FB
DB
76
ENDCHAR
STARTCHAR u+1d15
ENCODING 7445
SWIDTH 500 0
DWIDTH 8 0
BBX 6 6 1 0
BITMAP
CC
78
CC
CC
CC
78
ENDCHAR
STARTCHAR u+1d16
ENCODING 7446
SWIDTH 500 0
DWIDTH 8 0
BBX 6 3 1 3
BITMAP
78
CC
CC
ENDCHAR
STARTCHAR u+1d17
ENCODING 7447
SWIDTH 500 0
DWIDTH 8 0
BBX 6 3 1 0
BITMAP
CC
CC
78
ENDCHAR
STARTCHAR u+1d18
ENCODING 7448
SWIDTH 500 0
DWIDTH 8 0
BBX 7 6 0 0
BITMAP
FC
66
66
7C
60
F0
ENDCHAR
STARTCHAR u+1d19
ENCODING 7449
SWIDTH 500 0
DWIDTH 8 0
BBX 7 6 1 0
BITMAP
7E
CC
CC
7C
6C
DE
ENDCHAR
STARTCHAR u+1d1a
ENCODING 7450
SWIDTH 500 0
DWIDTH 8 0
BBX 7 6 1 0
BITMAP
DE
6C
7C
CC
CC
7E
ENDCHAR
STARTCHAR u+1d1b
ENCODING 7451
SWIDTH 500 0
DWIDTH 8 0
BBX 6 6 1 0
BITMAP
FC
B4
B4
30
30
78
ENDCHAR
STARTCHAR u+1d1c
ENCODING 7452
SWIDTH 500 0
DWIDTH 8 0
BBX 8 6 0 0
BITMAP
E7
66
66
66
66
3C
ENDCHAR
STARTCHAR u+1d1d
ENCODING 7453
SWIDTH 500 0
DWIDTH 8 0
BBX 6 8 1 -1
BITMAP
04
FC
FC
84
04
FC
F8
80
ENDCHAR
STARTCHAR u+1d1e
ENCODING 7454
SWIDTH 500 0
DWIDTH 8 0
BBX 8 8 0 -1
BITMAP
01
3F
BF
21
01
BF
3E
20
ENDCHAR
STARTCHAR u+1d1f
ENCODING 7455
SWIDTH 500 0
DWIDTH 8 0
BBX 6 10 1 -2
BITMAP
84
FC
FC
04
FC
F8
04
FC
F8
80
ENDCHAR
STARTCHAR u+1d20
ENCODING 7456
SWIDTH 500 0
DWIDTH 8 0
BBX 7 6 0 0
BITMAP
EE
6C
6C
28
38
38
ENDCHAR
STARTCHAR u+1d21
ENCODING 7457
SWIDTH 500 0
DWIDTH 8 0
BBX 9 6 -1 0
BITMAP
E380
6B00
7F00
3600
3600
2200
ENDCHAR
STARTCHAR u+1d22
ENCODING 7458
SWIDTH 500 0
DWIDTH 8 0
BBX 6 6 1 0
BITMAP
FC
98
30
60
C4
FC
ENDCHAR
STARTCHAR u+1d23
ENCODING 7459
SWIDTH 500 0
DWIDTH 8 0
BBX 6 6 1 0
BITMAP
FC
98
38
0C
8C
78
ENDCHAR
STARTCHAR u+1d24
ENCODING 7460
SWIDTH 500 0
DWIDTH 8 0
BBX 6 6 1 0
BITMAP
78
8C
38
70
C4
78
ENDCHAR
STARTCHAR u+1d25
ENCODING 7461
SWIDTH 500 0
DWIDTH 8 0
BBX 8 6 0 0
BITMAP
18
3C
3C
3C
18
E7
ENDCHAR
STARTCHAR u+1d26
ENCODING 7462
SWIDTH 500 0
DWIDTH 8 0
BBX 7 6 0 0
BITMAP
FE
62
62
60
60
F0
ENDCHAR
STARTCHAR u+1d27
ENCODING 7463
SWIDTH 500 0
DWIDTH 8 0
BBX 8 6 0 0
BITMAP
18
3C
3C
66
66
F7
ENDCHAR
STARTCHAR u+1d28
ENCODING 7464
SWIDTH 500 0
DWIDTH 8 0
BBX 8 6 0 0
BITMAP
FF
66
66
66
66
F7
ENDCHAR
STARTCHAR u+1d29
ENCODING 7465
SWIDTH 500 0
DWIDTH 8 0
BBX 7 6 0 0
BITMAP
FC
66
66
7C
60
F0
ENDCHAR
STARTCHAR u+1d2a
ENCODING 7466
SWIDTH 500 0
DWIDTH 8 0
BBX 8 6 0 0
BITMAP
DB
5A
5A
3C
18
3C
ENDCHAR
STARTCHAR u+1d2b
ENCODING 7467
SWIDTH 500 0
DWIDTH 8 0
BBX 8 6 0 0
BITMAP
7F
36
36
36
B6
EF
ENDCHAR
STARTCHAR u+1d2c
ENCODING 7468
SWIDTH 500 0
DWIDTH 8 0
BBX 6 6 1 3
BITMAP
70
30
50
78
48
CC
ENDCHAR
STARTCHAR u+1d2d
ENCODING 7469
SWIDTH 500 0
DWIDTH 8 0
BBX 6 6 1 3
BITMAP
7C
34
58
70
54
FC
ENDCHAR
STARTCHAR u+1d2e
ENCODING 7470
SWIDTH 500 0
DWIDTH 8 0
BBX 5 6 1 3
BITMAP
F0
48
70
48
48
F0
ENDCHAR
STARTCHAR u+1d2f
ENCODING 7471
SWIDTH 500 0
DWIDTH 8 0
BBX 6 6 1 3
BITMAP
F0
48
FC
48
48
F0
ENDCHAR
STARTCHAR u+1d30
ENCODING 7472
SWIDTH 500 0
DWIDTH 8 0
BBX 5 6 1 3
BITMAP
F0
48
48
48
48
F0
ENDCHAR
STARTCHAR u+1d31
ENCODING 7473
SWIDTH 500 0
DWIDTH 8 0
BBX 5 6 1 3
BITMAP
F8
48
70
50
48
F8
ENDCHAR
STARTCHAR u+1d32
ENCODING 7474
SWIDTH 500 0
DWIDTH 8 0
BBX 5 6 2 3
BITMAP
F8
90
70
50
90
F8
ENDCHAR
STARTCHAR u+1d33
ENCODING 7475
SWIDTH 500 0
DWIDTH 8 0
BBX 6 6 1 3
BITMAP
78
88
80
BC
88
78
ENDCHAR
STARTCHAR u+1d34
ENCODING 7476
SWIDTH 500 0
DWIDTH 8 0
BBX 6 6 1 3
BITMAP
DC
48
78
48
48
EC
ENDCHAR
STARTCHAR u+1d35
ENCODING 7477
SWIDTH 500 0
DWIDTH 8 0
BBX 3 6 2 3
BITMAP
E0
40
40
40
40
E0
ENDCHAR
STARTCHAR u+1d36
ENCODING 7478
SWIDTH 500 0
DWIDTH 8 0
BBX 5 6 2 3
BITMAP
78
10
10
90
90
E0
ENDCHAR
STARTCHAR u+1d37
ENCODING 7479
SWIDTH 500 0
DWIDTH 8 0
BBX 6 6 1 3
BITMAP
EC
50
60
50
48
EC
ENDCHAR
STARTCHAR u+1d38
ENCODING 7480
SWIDTH 500 0
DWIDTH 8 0
BBX 5 6 1 3
BITMAP
E0
40
40
40
48
F8
ENDCHAR
STARTCHAR u+1d39
ENCODING 7481
SWIDTH 500 0
DWIDTH 8 0
BBX 7 6 0 3
BITMAP
C6
6C
6C
54
44
EE
ENDCHAR
STARTCHAR u+1d3a
ENCODING 7482
SWIDTH 500 0
DWIDTH 8 0
BBX 7 6 0 3
BITMAP
CE
64
54
54
4C
E4
ENDCHAR
STARTCHAR u+1d3b
ENCODING 7483
SWIDTH 500 0
DWIDTH 8 0
BBX 7 6 0 3
BITMAP
E6
4C
54
54
64
CE
ENDCHAR
STARTCHAR u+1d3c
ENCODING 7484
SWIDTH 500 0
DWIDTH 8 0
BBX 5 6 1 3
BITMAP
70
88
88
88
88
70
ENDCHAR
STARTCHAR u+1d3d
ENCODING 7485
SWIDTH 500 0
DWIDTH 8 0
BBX 5 6 1 3
BITMAP
88
70
88
88
88
70
ENDCHAR
STARTCHAR u+1d3e
ENCODING 7486
SWIDTH 500 0
DWIDTH 8 0
BBX 5 6 1 3
BITMAP
F0
48
48
70
40
F0
ENDCHAR
STARTCHAR u+1d3f
ENCODING 7487
SWIDTH 500 0
DWIDTH 8 0
BBX 6 6 1 3
BITMAP
F0
48
48
70
48
E4
ENDCHAR
STARTCHAR u+1d40
ENCODING 7488
SWIDTH 500 0
DWIDTH 8 0
BBX 5 6 1 3
BITMAP
F8
A8
20
20
20
70
ENDCHAR
STARTCHAR u+1d41
ENCODING 7489
SWIDTH 500 0
DWIDTH 8 0
BBX 7 6 0 3
BITMAP
EE
44
44
44
44
38
ENDCHAR
STARTCHAR u+1d42
ENCODING 7490
SWIDTH 500 0
DWIDTH 8 0
BBX 7 6 0 3
BITMAP
EE
44
54
54
28
28
ENDCHAR
STARTCHAR u+1d43
ENCODING 7491
SWIDTH 500 0
DWIDTH 8 0
BBX 5 4 2 3
BITMAP
E0
70
90
78
ENDCHAR
STARTCHAR u+1d44
ENCODING 7492
SWIDTH 500 0
DWIDTH 8 0
BBX 5 4 1 3
BITMAP
F0
48
70
38
ENDCHAR
STARTCHAR u+1d45
ENCODING 7493
SWIDTH 500 0
DWIDTH 8 0
BBX 5 4 2 3
BITMAP
78
90
90
78
ENDCHAR
STARTCHAR u+1d46
ENCODING 7494
SWIDTH 500 0
DWIDTH 8 0
BBX 5 4 1 3
BITMAP
F8
38
E0
F8
ENDCHAR
STARTCHAR u+1d47
ENCODING 7495
SWIDTH 500 0
DWIDTH 8 0
BBX 5 6 1 3
BITMAP
C0
40
70
48
48
F0
ENDCHAR
STARTCHAR u+1d48
ENCODING 7496
SWIDTH 500 0
DWIDTH 8 0
BBX 5 6 2 3
BITMAP
30
10
70
90
90
78
ENDCHAR
STARTCHAR u+1d49
ENCODING 7497
SWIDTH 500 0
DWIDTH 8 0
BBX 4 4 2 3
BITMAP
60
F0
80
70
ENDCHAR
STARTCHAR u+1d4a
ENCODING 7498
SWIDTH 500 0
DWIDTH 8 0
BBX 4 4 2 3
BITMAP
E0
10
F0
60
ENDCHAR
STARTCHAR u+1d4b
ENCODING 7499
SWIDTH 500 0
DWIDTH 8 0
BBX 5 4 1 3
BITMAP
70
60
88
70
ENDCHAR
STARTCHAR u+1d4c
ENCODING 7500
SWIDTH 500 0
DWIDTH 8 0
BBX 5 4 1 3
BITMAP
70
30
88
70
ENDCHAR
STARTCHAR u+1d4d
ENCODING 7501
SWIDTH 500 0
DWIDTH 8 0
BBX 5 6 2 1
BITMAP
78
90
90
70
10
60
ENDCHAR
STARTCHAR u+1d4e
ENCODING 7502
SWIDTH 500 0
DWIDTH 8 0
BBX 5 6 2 1
BITMAP
F8
20
20
38
00
20
ENDCHAR
STARTCHAR u+1d4f
ENCODING 7503
SWIDTH 500 0
DWIDTH 8 0
BBX 4 6 2 3
BITMAP
C0
40
50
60
60
D0
ENDCHAR
STARTCHAR u+1d50
ENCODING 7504
SWIDTH 500 0
DWIDTH 8 0
BBX 7 4 1 3
BITMAP
F8
54
54
D6
ENDCHAR
STARTCHAR u+1d51
ENCODING 7505
SWIDTH 500 0
DWIDTH 8 0
BBX 5 6 1 1
BITMAP
F0
48
48
E8
08
30
ENDCHAR
STARTCHAR u+1d52
ENCODING 7506
SWIDTH 500 0
DWIDTH 8 0
BBX 4 4 2 3
BITMAP
60
90
90
60
ENDCHAR
STARTCHAR u+1d53
ENCODING 7507
SWIDTH 500 0
DWIDTH 8 0
BBX 4 4 2 3
BITMAP
E0
10
90
E0
ENDCHAR
STARTCHAR u+1d54
ENCODING 7508
SWIDTH 500 0
DWIDTH 8 0
BBX 4 2 2 5
BITMAP
60
90
ENDCHAR
STARTCHAR u+1d55
ENCODING 7509
SWIDTH 500 0
DWIDTH 8 0
BBX 4 2 2 3
BITMAP
90
60
ENDCHAR
STARTCHAR u+1d56
ENCODING 7510
SWIDTH 500 0
DWIDTH 8 0
BBX 5 6 1 1
BITMAP
F0
48
48
70
40
E0
ENDCHAR
STARTCHAR u+1d57
ENCODING 7511
SWIDTH 500 0
DWIDTH 8 0
BBX 5 5 2 3
BITMAP
40
F0
40
40
38
ENDCHAR
STARTCHAR u+1d58
ENCODING 7512
SWIDTH 500 0
DWIDTH 8 0
BBX 6 4 1 3
BITMAP
D8
48
48
3C
ENDCHAR
STARTCHAR u+1d59
ENCODING 7513
SWIDTH 500 0
DWIDTH 8 0
BBX 4 6 2 2
BITMAP
10
F0
90
10
E0
80
ENDCHAR
STARTCHAR u+1d5a
ENCODING 7514
SWIDTH 500 0
DWIDTH 8 0
BBX 7 4 0 3
BITMAP
D6
54
54
3E
ENDCHAR
STARTCHAR u+1d5b
ENCODING 7515
SWIDTH 500 0
DWIDTH 8 0
BBX 5 4 1 3
BITMAP
D8
50
50
20
ENDCHAR
STARTCHAR u+1d5c
ENCODING 7516
SWIDTH 500 0
DWIDTH 8 0
BBX 5 4 1 3
BITMAP
70
70
20
D8
ENDCHAR
STARTCHAR u+1d5d
ENCODING 7517
SWIDTH 500 0
DWIDTH 8 0
BBX 4 8 2 1
BITMAP
60
90
E0
90
90
E0
80
80
ENDCHAR
STARTCHAR u+1d5e
ENCODING 7518
SWIDTH 500 0
DWIDTH 8 0
BBX 5 6 1 1
BITMAP
88
50
50
20
20
20
ENDCHAR
STARTCHAR u+1d5f
ENCODING 7519
SWIDTH 500 0
DWIDTH 8 0
BBX 4 6 2 3
BITMAP
F0
40
60
90
90
60
ENDCHAR
STARTCHAR u+1d60
ENCODING 7520
SWIDTH 500 0
DWIDTH 8 0
BBX 5 6 1 1
BITMAP
70
A8
A8
70
20
20
ENDCHAR
STARTCHAR u+1d61
ENCODING 7521
SWIDTH 500 0
DWIDTH 8 0
BBX 5 6 2 1
BITMAP
90
60
20
60
50
88
ENDCHAR
STARTCHAR u+1d62
ENCODING 7522
SWIDTH 500 0
DWIDTH 8 0
BBX 5 6 2 -1
BITMAP
20
00
E0
20
20
F8
ENDCHAR
STARTCHAR u+1d63
ENCODING 7523
SWIDTH 500 0
DWIDTH 8 0
BBX 4 4 2 -1
BITMAP
F0
40
40
E0
ENDCHAR
STARTCHAR u+1d64
ENCODING 7524
SWIDTH 500 0
DWIDTH 8 0
BBX 6 4 1 -1
BITMAP
D8
48
48
3C
ENDCHAR
STARTCHAR u+1d65
ENCODING 7525
SWIDTH 500 0
DWIDTH 8 0
BBX 5 4 1 -1
BITMAP
D8
50
50
20
ENDCHAR
STARTCHAR u+1d66
ENCODING 7526
SWIDTH 500 0
DWIDTH 8 0
BBX 4 8 2 -3
BITMAP
60
90
E0
90
90
E0
80
80
ENDCHAR
STARTCHAR u+1d67
ENCODING 7527
SWIDTH 500 0
DWIDTH 8 0
BBX 5 6 1 -3
BITMAP
88
50
50
20
20
20
ENDCHAR
STARTCHAR u+1d68
ENCODING 7528
SWIDTH 500 0
DWIDTH 8 0
BBX 4 6 2 -3
BITMAP
60
90
E0
80
70
10
ENDCHAR
STARTCHAR u+1d69
ENCODING 7529
SWIDTH 500 0
DWIDTH 8 0
BBX 5 6 1 -3
BITMAP
70
A8
A8
70
20
20
ENDCHAR
STARTCHAR u+1d6a
ENCODING 7530
SWIDTH 500 0
DWIDTH 8 0
BBX 5 6 2 -3
BITMAP
90
60
20
60
50
88
ENDCHAR
STARTCHAR u+1d6b
ENCODING 7531
SWIDTH 500 0
DWIDTH 8 0
BBX 9 6 -1 0
BITMAP
EF00
6D80
6F80
6C00
6C80
3700
ENDCHAR
STARTCHAR u+1d6c
ENCODING 7532
SWIDTH 500 0
DWIDTH 8 0
BBX 7 9 0 0
BITMAP
E0
60
F0
6C
76
66
66
76
EC
ENDCHAR
STARTCHAR u+1d6d
ENCODING 7533
SWIDTH 500 0
DWIDTH 8 0
BBX 7 9 1 0
BITMAP
1C
0C
3E
6C
DC
CC
CC
DC
6E
ENDCHAR
STARTCHAR u+1d6e
ENCODING 7534
SWIDTH 500 0
DWIDTH 8 0
BBX 8 9 0 0
BITMAP
1F
30
30
FE
30
74
B8
30
FE
ENDCHAR
STARTCHAR u+1d6f
ENCODING 7535
SWIDTH 500 0
DWIDTH 8 0
BBX 10 6 -1 0
BITMAP
FF00
6D80
7DC0
EF80
6D80
EDC0
ENDCHAR
STARTCHAR u+1d70
ENCODING 7536
SWIDTH 500 0
DWIDTH 8 0
BBX 8 6 0 0
BITMAP
FC
66
77
EE
66
EF
ENDCHAR
STARTCHAR u+1d71
ENCODING 7537
SWIDTH 500 0
DWIDTH 8 0
BBX 7 9 0 -3
BITMAP
EC
76
66
66
76
EC
78
60
F8
ENDCHAR
STARTCHAR u+1d72
ENCODING 7538
SWIDTH 500 0
DWIDTH 8 0
BBX 7 6 0 0
BITMAP
76
38
74
B8
30
7C
ENDCHAR
STARTCHAR u+1d73
ENCODING 7539
SWIDTH 500 0
DWIDTH 8 0
BBX 7 6 0 0
BITMAP
1E
30
74
B8
30
FC
ENDCHAR
STARTCHAR u+1d74
ENCODING 7540
SWIDTH 500 0
DWIDTH 8 0
BBX 8 6 0 0
BITMAP
3E
62
79
9E
46
7C
ENDCHAR
STARTCHAR u+1d75
ENCODING 7541
SWIDTH 500 0
DWIDTH 8 0
BBX 7 8 0 0
BITMAP
30
30
7C
30
74
B8
32
1C
ENDCHAR
STARTCHAR u+1d76
ENCODING 7542
SWIDTH 500 0
DWIDTH 8 0
BBX 6 6 1 0
BITMAP
FC
18
F0
3C
60
FC
ENDCHAR
STARTCHAR u+1d77
ENCODING 7543
SWIDTH 500 0
DWIDTH 8 0
BBX 7 9 0 -3
BITMAP
3C
60
60
7C
66
66
66
66
FC
ENDCHAR
STARTCHAR u+1d78
ENCODING 7544
SWIDTH 500 0
DWIDTH 8 0
BBX 5 4 1 3
BITMAP
D8
70
50
D8
ENDCHAR
STARTCHAR u+1d79
ENCODING 7545
SWIDTH 500 0
DWIDTH 8 0
BBX 6 9 1 -3
BITMAP
78
30
30
78
CC
CC
CC
CC
78
ENDCHAR
STARTCHAR u+1d7a
ENCODING 7546
SWIDTH 500 0
DWIDTH 8 0
BBX 10 10 -1 -1
BITMAP
1C80
6D00
6D00
FF00
6D80
6D80
7D80
6D80
7DC0
4000
ENDCHAR
STARTCHAR u+1d7b
ENCODING 7547
SWIDTH 500 0
DWIDTH 8 0
BBX 6 6 1 0
BITMAP
FC
30
FC
30
30
FC
ENDCHAR
STARTCHAR u+1d7c
ENCODING 7548
SWIDTH 500 0
DWIDTH 8 0
BBX 6 6 0 0
BITMAP
30
30
FC
30
30
1C
ENDCHAR
STARTCHAR u+1d7d
ENCODING 7549
SWIDTH 500 0
DWIDTH 8 0
BBX 8 9 0 -3
BITMAP
EC
76
66
FF
66
7C
60
60
F8
ENDCHAR
STARTCHAR u+1d7e
ENCODING 7550
SWIDTH 500 0
DWIDTH 8 0
BBX 8 6 0 0
BITMAP
E7
66
FF
66
66
3C
ENDCHAR
STARTCHAR u+1d7f
ENCODING 7551
SWIDTH 500 0
DWIDTH 8 0
BBX 8 6 0 0
BITMAP
66
24
66
FF
66
3C
ENDCHAR
STARTCHAR u+1d80
ENCODING 7552
SWIDTH 500 0
DWIDTH 8 0
BBX 7 12 0 -3
BITMAP
E0
60
60
7C
66
66
66
66
FC
0C
0C
38
ENDCHAR
STARTCHAR u+1d81
ENCODING 7553
SWIDTH 500 0
DWIDTH 8 0
BBX 7 12 1 -3
BITMAP
1C
0C
0C
6C
DC
CC
CC
DC
6E
06
06
3C
ENDCHAR
STARTCHAR u+1d82
ENCODING 7554
SWIDTH 500 0
DWIDTH 8 0
BBX 8 12 0 -3
BITMAP
1F
30
30
FE
30
30
30
30
FE
06
06
3C
ENDCHAR
STARTCHAR u+1d83
ENCODING 7555
SWIDTH 500 0
DWIDTH 8 0
BBX 8 9 0 -3
BITMAP
7E
CC
CC
CC
CF
7D
0D
0D
78
ENDCHAR
STARTCHAR u+1d84
ENCODING 7556
SWIDTH 500 0
DWIDTH 8 0
BBX 8 12 0 -3
BITMAP
E0
60
60
6F
6C
78
78
6C
E7
03
03
1E
ENDCHAR
STARTCHAR u+1d85
ENCODING 7557
SWIDTH 500 0
DWIDTH 8 0
BBX 6 12 1 -3
BITMAP
F0
30
30
30
30
30
30
30
FC
0C
0C
78
ENDCHAR
STARTCHAR u+1d86
ENCODING 7558
SWIDTH 500 0
DWIDTH 8 0
BBX 10 9 -1 -3
BITMAP
FB00
6D80
6D80
6D80
6D80
EDC0
00C0
00C0
0780
ENDCHAR
STARTCHAR u+1d87
ENCODING 7559
SWIDTH 500 0
DWIDTH 8 0
BBX 8 9 0 -3
BITMAP
FC
66
66
66
66
EF
03
03
1E
ENDCHAR
STARTCHAR u+1d88
ENCODING 7560
SWIDTH 500 0
DWIDTH 8 0
BBX 7 9 0 -3
BITMAP
FC
66
66
66
66
7C
64
64
EC
ENDCHAR
STARTCHAR u+1d89
ENCODING 7561
SWIDTH 500 0
DWIDTH 8 0
BBX 6 9 1 -3
BITMAP
EC
74
60
60
60
F8
18
18
F0
ENDCHAR
STARTCHAR u+1d8a
ENCODING 7562
SWIDTH 500 0
DWIDTH 8 0
BBX 6 9 1 -3
BITMAP
7C
C4
F0
3C
8C
FC
0C
0C
78
ENDCHAR
STARTCHAR u+1d8b
ENCODING 7563
SWIDTH 500 0
DWIDTH 8 0
BBX 8 12 0 -3
BITMAP
1C
30
30
30
30
30
30
3F
33
33
36
E0
ENDCHAR
STARTCHAR u+1d8c
ENCODING 7564
SWIDTH 500 0
DWIDTH 8 0
BBX 8 9 0 -3
BITMAP
F7
66
66
3C
3C
1E
06
06
3C
ENDCHAR
STARTCHAR u+1d8d
ENCODING 7565
SWIDTH 500 0
DWIDTH 8 0
BBX 8 9 0 -3
BITMAP
E7
66
3C
3C
66
E7
03
03
1E
ENDCHAR
STARTCHAR u+1d8e
ENCODING 7566
SWIDTH 500 0
DWIDTH 8 0
BBX 6 9 1 -3
BITMAP
FC
98
30
30
64
FC
04
04
38
ENDCHAR
STARTCHAR u+1d8f
ENCODING 7567
SWIDTH 500 0
DWIDTH 8 0
BBX 8 9 0 -3
BITMAP
78
0C
7C
CC
CC
7E
06
06
03
ENDCHAR
STARTCHAR u+1d90
ENCODING 7568
SWIDTH 500 0
DWIDTH 8 0
BBX 8 9 0 -3
BITMAP
7E
CC
CC
CC
CC
7E
06
06
03
ENDCHAR
STARTCHAR u+1d91
ENCODING 7569
SWIDTH 500 0
DWIDTH 8 0
BBX 7 12 1 -3
BITMAP
06
0C
0C
7C
CC
CC
CC
CC
7C
0C
0C
06
ENDCHAR
STARTCHAR u+1d92
ENCODING 7570
SWIDTH 500 0
DWIDTH 8 0
BBX 7 9 1 -3
BITMAP
78
CC
FC
C0
C4
7C
0C
0C
06
ENDCHAR
STARTCHAR u+1d93
ENCODING 7571
SWIDTH 500 0
DWIDTH 8 0
BBX 8 10 0 -3
BITMAP
04
7C
C4
74
C0
C6
7E
06
06
03
ENDCHAR
STARTCHAR u+1d94
ENCODING 7572
SWIDTH 500 0
DWIDTH 8 0
BBX 7 10 0 -3
BITMAP
40
7C
46
5C
06
C6
FC
C0
C0
78
ENDCHAR
STARTCHAR u+1d95
ENCODING 7573
SWIDTH 500 0
DWIDTH 8 0
BBX 8 9 0 -3
BITMAP
F8
0C
FE
CE
CE
76
06
06
03
ENDCHAR
STARTCHAR u+1d96
ENCODING 7574
SWIDTH 500 0
DWIDTH 8 0
BBX 7 12 1 -3
BITMAP
30
30
00
F0
30
30
30
30
FC
0C
0C
06
ENDCHAR
STARTCHAR u+1d97
ENCODING 7575
SWIDTH 500 0
DWIDTH 8 0
BBX 6 9 1 -3
BITMAP
78
8C
0C
0C
8C
F8
C0
C0
70
ENDCHAR
STARTCHAR u+1d98
ENCODING 7576
SWIDTH 500 0
DWIDTH 8 0
BBX 6 12 1 -3
BITMAP
1C
30
30
30
30
30
30
30
30
E0
C0
70
ENDCHAR
STARTCHAR u+1d99
ENCODING 7577
SWIDTH 500 0
DWIDTH 8 0
BBX 8 9 0 -3
BITMAP
EC
6C
6C
6C
6C
3E
06
06
03
ENDCHAR
STARTCHAR u+1d9a
ENCODING 7578
SWIDTH 500 0
DWIDTH 8 0
BBX 6 9 1 -3
BITMAP
F8
98
30
38
0C
8C
F8
C0
78
ENDCHAR
STARTCHAR u+1d9b
ENCODING 7579
SWIDTH 500 0
DWIDTH 8 0
BBX 5 4 2 3
BITMAP
F0
48
48
F0
ENDCHAR
STARTCHAR u+1d9c
ENCODING 7580
SWIDTH 500 0
DWIDTH 8 0
BBX 4 4 2 3
BITMAP
70
90
80
70
ENDCHAR
STARTCHAR u+1d9d
ENCODING 7581
SWIDTH 500 0
DWIDTH 8 0
BBX 5 4 1 3
BITMAP
38
40
78
B8
ENDCHAR
STARTCHAR u+1d9e
ENCODING 7582
SWIDTH 500 0
DWIDTH 8 0
BBX 4 6 2 3
BITMAP
60
70
10
70
90
60
ENDCHAR
STARTCHAR u+1d9f
ENCODING 7583
SWIDTH 500 0
DWIDTH 8 0
BBX 5 4 1 3
BITMAP
70
30
88
70
ENDCHAR
STARTCHAR u+1da0
ENCODING 7584
SWIDTH 500 0
DWIDTH 8 0
BBX 4 6 2 3
BITMAP
30
40
F0
40
40
F0
ENDCHAR
STARTCHAR u+1da1
ENCODING 7585
SWIDTH 500 0
DWIDTH 8 0
BBX 4 6 2 1
BITMAP
F0
20
20
F0
20
C0
ENDCHAR
STARTCHAR u+1da2
ENCODING 7586
SWIDTH 500 0
DWIDTH 8 0
BBX 5 6 2 1
BITMAP
78
90
90
70
10
60
ENDCHAR
STARTCHAR u+1da3
ENCODING 7587
SWIDTH 500 0
DWIDTH 8 0
BBX 6 6 2 3
BITMAP
DC
48
48
38
08
0C
ENDCHAR
STARTCHAR u+1da4
ENCODING 7588
SWIDTH 500 0
DWIDTH 8 0
BBX 5 6 2 3
BITMAP
20
00
E0
70
20
F8
ENDCHAR
STARTCHAR u+1da5
ENCODING 7589
SWIDTH 500 0
DWIDTH 8 0
BBX 2 4 4 3
BITMAP
80
80
80
C0
ENDCHAR
STARTCHAR u+1da6
ENCODING 7590
SWIDTH 500 0
DWIDTH 8 0
BBX 3 4 3 3
BITMAP
E0
40
40
E0
ENDCHAR
STARTCHAR u+1da7
ENCODING 7591
SWIDTH 500 0
DWIDTH 8 0
BBX 3 4 3 3
BITMAP
E0
E0
40
E0
ENDCHAR
STARTCHAR u+1da8
ENCODING 7592
SWIDTH 500 0
DWIDTH 8 0
BBX 4 8 2 1
BITMAP
20
00
E0
20
20
70
A0
C0
ENDCHAR
STARTCHAR u+1da9
ENCODING 7593
SWIDTH 500 0
DWIDTH 8 0
BBX 4 8 3 1
BITMAP
C0
40
40
40
40
40
40
30
ENDCHAR
STARTCHAR u+1daa
ENCODING 7594
SWIDTH 500 0
DWIDTH 8 0
BBX 5 8 2 1
BITMAP
E0
20
20
20
20
F8
08
30
ENDCHAR
STARTCHAR u+1dab
ENCODING 7595
SWIDTH 500 0
DWIDTH 8 0
BBX 5 4 2 3
BITMAP
E0
40
48
F8
ENDCHAR
STARTCHAR u+1dac
ENCODING 7596
SWIDTH 500 0
DWIDTH 8 0
BBX 6 6 1 1
BITMAP
F8
54
54
D4
04
38
ENDCHAR
STARTCHAR u+1dad
ENCODING 7597
SWIDTH 500 0
DWIDTH 8 0
BBX 7 6 0 1
BITMAP
D6
54
54
3C
04
06
ENDCHAR
STARTCHAR u+1dae
ENCODING 7598
SWIDTH 500 0
DWIDTH 8 0
BBX 6 6 1 1
BITMAP
F0
48
48
5C
40
C0
ENDCHAR
STARTCHAR u+1daf
ENCODING 7599
SWIDTH 500 0
DWIDTH 8 0
BBX 6 6 1 1
BITMAP
F0
48
48
E8
08
0C
ENDCHAR
STARTCHAR u+1db0
ENCODING 7600
SWIDTH 500 0
DWIDTH 8 0
BBX 6 4 1 3
BITMAP
CC
68
58
C8
ENDCHAR
STARTCHAR u+1db1
ENCODING 7601
SWIDTH 500 0
DWIDTH 8 0
BBX 4 4 2 3
BITMAP
60
F0
90
60
ENDCHAR
STARTCHAR u+1db2
ENCODING 7602
SWIDTH 500 0
DWIDTH 8 0
BBX 5 8 2 1
BITMAP
70
20
70
A8
A8
70
20
70
ENDCHAR
STARTCHAR u+1db3
ENCODING 7603
SWIDTH 500 0
DWIDTH 8 0
BBX 4 6 2 1
BITMAP
70
C0
30
E0
80
60
ENDCHAR
STARTCHAR u+1db4
ENCODING 7604
SWIDTH 500 0
DWIDTH 8 0
BBX 5 8 2 1
BITMAP
18
20
20
20
20
20
20
C0
ENDCHAR
STARTCHAR u+1db5
ENCODING 7605
SWIDTH 500 0
DWIDTH 8 0
BBX 5 7 2 1
BITMAP
40
F0
40
40
38
08
18
ENDCHAR
STARTCHAR u+1db6
ENCODING 7606
SWIDTH 500 0
DWIDTH 8 0
BBX 6 4 1 3
BITMAP
D8
FC
48
3C
ENDCHAR
STARTCHAR u+1db7
ENCODING 7607
SWIDTH 500 0
DWIDTH 8 0
BBX 5 4 2 3
BITMAP
D8
50
88
70
ENDCHAR
STARTCHAR u+1db8
ENCODING 7608
SWIDTH 500 0
DWIDTH 8 0
BBX 6 4 1 3
BITMAP
EC
48
48
30
ENDCHAR
STARTCHAR u+1db9
ENCODING 7609
SWIDTH 500 0
DWIDTH 8 0
BBX 5 4 1 3
BITMAP
D0
48
48
70
ENDCHAR
STARTCHAR u+1dba
ENCODING 7610
SWIDTH 500 0
DWIDTH 8 0
BBX 5 4 1 3
BITMAP
20
50
50
D8
ENDCHAR
STARTCHAR u+1dbb
ENCODING 7611
SWIDTH 500 0
DWIDTH 8 0
BBX 4 4 2 3
BITMAP
F0
A0
50
F0
ENDCHAR
STARTCHAR u+1dbc
ENCODING 7612
SWIDTH 500 0
DWIDTH 8 0
BBX 5 6 2 1
BITMAP
F0
A0
50
F0
10
18
ENDCHAR
STARTCHAR u+1dbd
ENCODING 7613
SWIDTH 500 0
DWIDTH 8 0
BBX 5 5 2 2
BITMAP
F0
A0
58
F8
20
ENDCHAR
STARTCHAR u+1dbe
ENCODING 7614
SWIDTH 500 0
DWIDTH 8 0
BBX 4 6 2 1
BITMAP
F0
A0
60
10
10
E0
ENDCHAR
STARTCHAR u+1dbf
ENCODING 7615
SWIDTH 500 0
DWIDTH 8 0
BBX 4 6 2 3
BITMAP
60
90
F0
90
90
60
ENDCHAR
STARTCHAR u+1dc0
ENCODING 7616
SWIDTH 500 0
DWIDTH 8 0
BBX 5 3 2 7
BITMAP
48
20
A0
ENDCHAR
STARTCHAR u+1dc1
ENCODING 7617
SWIDTH 500 0
DWIDTH 8 0
BBX 5 3 1 7
BITMAP
90
20
28
ENDCHAR
STARTCHAR u+1dc2
ENCODING 7618
SWIDTH 500 0
DWIDTH 8 0
BBX 2 2 3 -3
BITMAP
C0
40
ENDCHAR
STARTCHAR u+1dc3
ENCODING 7619
SWIDTH 500 0
DWIDTH 8 0
BBX 5 2 2 7
BITMAP
B8
40
ENDCHAR
STARTCHAR u+1dc4
ENCODING 7620
SWIDTH 500 0
DWIDTH 8 0
BBX 4 2 2 7
BITMAP
10
E0
ENDCHAR
STARTCHAR u+1dc5
ENCODING 7621
SWIDTH 500 0
DWIDTH 8 0
BBX 4 2 2 7
BITMAP
80
70
ENDCHAR
STARTCHAR u+1dc6
ENCODING 7622
SWIDTH 500 0
DWIDTH 8 0
BBX 4 2 2 7
BITMAP
E0
10
ENDCHAR
STARTCHAR u+1dc7
ENCODING 7623
SWIDTH 500 0
DWIDTH 8 0
BBX 4 2 2 7
BITMAP
70
80
ENDCHAR
STARTCHAR u+1dc8
ENCODING 7624
SWIDTH 500 0
DWIDTH 8 0
BBX 6 2 1 7
BITMAP
98
64
ENDCHAR
STARTCHAR u+1dc9
ENCODING 7625
SWIDTH 500 0
DWIDTH 8 0
BBX 6 2 1 7
BITMAP
64
98
ENDCHAR
STARTCHAR u+1dca
ENCODING 7626
SWIDTH 500 0
DWIDTH 8 0
BBX 4 3 2 -3
BITMAP
F0
40
E0
ENDCHAR
STARTCHAR u+1dfe
ENCODING 7678
SWIDTH 500 0
DWIDTH 8 0
BBX 2 3 3 5
BITMAP
40
80
40
ENDCHAR
STARTCHAR u+1dff
ENCODING 7679
SWIDTH 500 0
DWIDTH 8 0
BBX 5 3 2 -4
BITMAP
A8
50
80
ENDCHAR
STARTCHAR u+1e00
ENCODING 7680
SWIDTH 500 0
DWIDTH 8 0
BBX 9 12 0 -4
BITMAP
7C00
1C00
3600
3600
3600
7F00
6300
F780
0000
1C00
1400
1C00
ENDCHAR
STARTCHAR u+1e01
ENCODING 7681
SWIDTH 500 0
DWIDTH 8 0
BBX 7 10 1 -4
BITMAP
78
0C
7C
CC
CC
7E
00
38
28
38
ENDCHAR
STARTCHAR u+1e02
ENCODING 7682
SWIDTH 500 0
DWIDTH 8 0
BBX 7 11 0 0
BITMAP
18
18
00
FC
66
66
7C
66
66
66
FC
ENDCHAR
STARTCHAR u+1e03
ENCODING 7683
SWIDTH 500 0
DWIDTH 8 0
BBX 7 9 0 0
BITMAP
EC
6C
60
6C
76
66
66
76
EC
ENDCHAR
STARTCHAR u+1e04
ENCODING 7684
SWIDTH 500 0
DWIDTH 8 0
BBX 7 11 0 -3
BITMAP
FC
66
66
7C
66
66
66
FC
00
18
18
ENDCHAR
STARTCHAR u+1e05
ENCODING 7685
SWIDTH 500 0
DWIDTH 8 0
BBX 7 12 0 -3
BITMAP
E0
60
60
6C
76
66
66
76
EC
00
18
18
ENDCHAR
STARTCHAR u+1e06
ENCODING 7686
SWIDTH 500 0
DWIDTH 8 0
BBX 7 11 0 -3
BITMAP
FC
66
66
7C
66
66
66
FC
00
00
3C
ENDCHAR
STARTCHAR u+1e07
ENCODING 7687
SWIDTH 500 0
DWIDTH 8 0
BBX 7 12 0 -3
BITMAP
E0
60
60
6C
76
66
66
76
EC
00
00
3C
ENDCHAR
STARTCHAR u+1e08
ENCODING 7688
SWIDTH 500 0
DWIDTH 8 0
BBX 6 15 1 -4
BITMAP
08
10
00
3C
64
C4
C0
C0
C0
64
38
10
18
08
38
ENDCHAR
STARTCHAR u+1e09
ENCODING 7689
SWIDTH 500 0
DWIDTH 8 0
BBX 6 13 1 -4
BITMAP
08
10
00
7C
C4
C4
C0
C4
78
10
18
08
38
ENDCHAR
STARTCHAR u+1e0a
ENCODING 7690
SWIDTH 500 0
DWIDTH 8 0
BBX 7 11 0 0
BITMAP
30
30
00
F8
6C
66
66
66
66
6C
F8
ENDCHAR
STARTCHAR u+1e0b
ENCODING 7691
SWIDTH 500 0
DWIDTH 8 0
BBX 7 9 1 0
BITMAP
DC
CC
0C
6C
DC
CC
CC
DC
6E
ENDCHAR
STARTCHAR u+1e0c
ENCODING 7692
SWIDTH 500 0
DWIDTH 8 0
BBX 7 11 0 -3
BITMAP
F8
6C
66
66
66
66
6C
F8
00
30
30
ENDCHAR
STARTCHAR u+1e0d
ENCODING 7693
SWIDTH 500 0
DWIDTH 8 0
BBX 7 12 1 -3
BITMAP
1C
0C
0C
6C
DC
CC
CC
DC
6E
00
30
30
ENDCHAR
STARTCHAR u+1e0e
ENCODING 7694
SWIDTH 500 0
DWIDTH 8 0
BBX 7 11 0 -3
BITMAP
F8
6C
66
66
66
66
6C
F8
00
00
78
ENDCHAR
STARTCHAR u+1e0f
ENCODING 7695
SWIDTH 500 0
DWIDTH 8 0
BBX 7 12 1 -3
BITMAP
1C
0C
0C
6C
DC
CC
CC
DC
6E
00
00
78
ENDCHAR
STARTCHAR u+1e10
ENCODING 7696
SWIDTH 500 0
DWIDTH 8 0
BBX 7 12 0 -4
BITMAP
F8
6C
66
66
66
66
6C
F8
00
30
10
20
ENDCHAR
STARTCHAR u+1e11
ENCODING 7697
SWIDTH 500 0
DWIDTH 8 0
BBX 7 13 1 -4
BITMAP
1C
0C
0C
6C
DC
CC
CC
DC
6E
00
30
10
20
ENDCHAR
STARTCHAR u+1e12
ENCODING 7698
SWIDTH 500 0
DWIDTH 8 0
BBX 7 11 0 -3
BITMAP
F8
6C
66
66
66
66
6C
F8
00
30
48
ENDCHAR
STARTCHAR u+1e13
ENCODING 7699
SWIDTH 500 0
DWIDTH 8 0
BBX 7 12 1 -3
BITMAP
1C
0C
0C
6C
DC
CC
CC
DC
6E
00
30
48
ENDCHAR
STARTCHAR u+1e14
ENCODING 7700
SWIDTH 500 0
DWIDTH 8 0
BBX 7 12 0 0
BITMAP
20
10
7C
00
FE
62
6A
78
68
62
62
FE
ENDCHAR
STARTCHAR u+1e15
ENCODING 7701
SWIDTH 500 0
DWIDTH 8 0
BBX 6 10 1 0
BITMAP
20
10
7C
00
78
CC
FC
C0
C4
78
ENDCHAR
STARTCHAR u+1e16
ENCODING 7702
SWIDTH 500 0
DWIDTH 8 0
BBX 7 12 0 0
BITMAP
08
10
7C
00
FE
62
6A
78
68
62
62
FE
ENDCHAR
STARTCHAR u+1e17
ENCODING 7703
SWIDTH 500 0
DWIDTH 8 0
BBX 6 10 1 0
BITMAP
08
10
7C
00
78
CC
FC
C0
C4
78
ENDCHAR
STARTCHAR u+1e18
ENCODING 7704
SWIDTH 500 0
DWIDTH 8 0
BBX 7 11 0 -3
BITMAP
FE
62
6A
78
68
62
62
FE
00
18
24
ENDCHAR
STARTCHAR u+1e19
ENCODING 7705
SWIDTH 500 0
DWIDTH 8 0
BBX 6 9 1 -3
BITMAP
78
CC
FC
C0
C4
78
00
30
48
ENDCHAR
STARTCHAR u+1e1a
ENCODING 7706
SWIDTH 500 0
DWIDTH 8 0
BBX 7 11 0 -3
BITMAP
FE
62
6A
78
68
62
62
FE
00
34
58
ENDCHAR
STARTCHAR u+1e1b
ENCODING 7707
SWIDTH 500 0
DWIDTH 8 0
BBX 6 9 1 -3
BITMAP
78
CC
FC
C0
C4
78
00
34
58
ENDCHAR
STARTCHAR u+1e1c
ENCODING 7708
SWIDTH 500 0
DWIDTH 8 0
BBX 7 15 0 -4
BITMAP
24
18
00
FE
62
6A
78
68
62
62
FE
10
18
08
38
ENDCHAR
STARTCHAR u+1e1d
ENCODING 7709
SWIDTH 500 0
DWIDTH 8 0
BBX 6 13 1 -4
BITMAP
48
30
00
78
CC
FC
C0
C4
78
10
18
08
38
ENDCHAR
STARTCHAR u+1e1e
ENCODING 7710
SWIDTH 500 0
DWIDTH 8 0
BBX 7 11 0 0
BITMAP
18
18
00
FE
62
6A
78
68
60
60
F8
ENDCHAR
STARTCHAR u+1e1f
ENCODING 7711
SWIDTH 500 0
DWIDTH 8 0
BBX 8 12 0 0
BITMAP
0C
0C
00
1F
30
30
FE
30
30
30
30
FE
ENDCHAR
STARTCHAR u+1e20
ENCODING 7712
SWIDTH 500 0
DWIDTH 8 0
BBX 7 10 1 0
BITMAP
78
00
7C
C4
C4
C0
DE
CC
CC
78
ENDCHAR
STARTCHAR u+1e21
ENCODING 7713
SWIDTH 500 0
DWIDTH 8 0
BBX 7 11 1 -3
BITMAP
78
00
6E
DC
CC
CC
DC
6C
0C
0C
78
ENDCHAR
STARTCHAR u+1e22
ENCODING 7714
SWIDTH 500 0
DWIDTH 8 0
BBX 8 11 0 0
BITMAP
18
18
00
E7
66
66
7E
66
66
66
E7
ENDCHAR
STARTCHAR u+1e23
ENCODING 7715
SWIDTH 500 0
DWIDTH 8 0
BBX 8 12 0 0
BITMAP
0C
0C
00
E0
60
60
7C
66
66
66
66
E7
ENDCHAR
STARTCHAR u+1e24
ENCODING 7716
SWIDTH 500 0
DWIDTH 8 0
BBX 8 11 0 -3
BITMAP
E7
66
66
7E
66
66
66
E7
00
18
18
ENDCHAR
STARTCHAR u+1e25
ENCODING 7717
SWIDTH 500 0
DWIDTH 8 0
BBX 8 12 0 -3
BITMAP
E0
60
60
7C
66
66
66
66
E7
00
18
18
ENDCHAR
STARTCHAR u+1e26
ENCODING 7718
SWIDTH 500 0
DWIDTH 8 0
BBX 8 10 0 0
BITMAP
24
00
E7
66
66
7E
66
66
66
E7
ENDCHAR
STARTCHAR u+1e27
ENCODING 7719
SWIDTH 500 0
DWIDTH 8 0
BBX 8 11 0 0
BITMAP
24
00
E0
60
60
7C
66
66
66
66
E7
ENDCHAR
STARTCHAR u+1e28
ENCODING 7720
SWIDTH 500 0
DWIDTH 8 0
BBX 8 12 0 -4
BITMAP
E7
66
66
7E
66
66
66
E7
20
30
10
70
ENDCHAR
STARTCHAR u+1e29
ENCODING 7721
SWIDTH 500 0
DWIDTH 8 0
BBX 8 13 0 -4
BITMAP
E0
60
60
7C
66
66
66
66
E7
20
30
10
70
ENDCHAR
STARTCHAR u+1e2a
ENCODING 7722
SWIDTH 500 0
DWIDTH 8 0
BBX 8 11 0 -3
BITMAP
E7
66
66
7E
66
66
66
E7
00
24
18
ENDCHAR
STARTCHAR u+1e2b
ENCODING 7723
SWIDTH 500 0
DWIDTH 8 0
BBX 8 12 0 -3
BITMAP
E0
60
60
7C
66
66
66
66
E7
00
24
18
ENDCHAR
STARTCHAR u+1e2c
ENCODING 7724
SWIDTH 500 0
DWIDTH 8 0
BBX 6 11 1 -3
BITMAP
FC
30
30
30
30
30
30
FC
00
34
58
ENDCHAR
STARTCHAR u+1e2d
ENCODING 7725
SWIDTH 500 0
DWIDTH 8 0
BBX 6 12 1 -3
BITMAP
30
30
00
F0
30
30
30
30
FC
00
34
58
ENDCHAR
STARTCHAR u+1e2e
ENCODING 7726
SWIDTH 500 0
DWIDTH 8 0
BBX 6 12 1 0
BITMAP
08
10
44
00
FC
30
30
30
30
30
30
FC
ENDCHAR
STARTCHAR u+1e2f
ENCODING 7727
SWIDTH 500 0
DWIDTH 8 0
BBX 8 11 0 0
BITMAP
08
10
00
24
00
78
18
18
18
18
FF
ENDCHAR
STARTCHAR u+1e30
ENCODING 7728
SWIDTH 500 0
DWIDTH 8 0
BBX 8 11 0 0
BITMAP
04
08
00
F7
66
6C
78
7C
66
66
F3
ENDCHAR
STARTCHAR u+1e31
ENCODING 7729
SWIDTH 500 0
DWIDTH 8 0
BBX 8 12 0 0
BITMAP
08
10
00
E0
60
60
6E
6C
78
7C
66
EF
ENDCHAR
STARTCHAR u+1e32
ENCODING 7730
SWIDTH 500 0
DWIDTH 8 0
BBX 8 11 0 -3
BITMAP
F7
66
6C
78
7C
66
66
F3
00
18
18
ENDCHAR
STARTCHAR u+1e33
ENCODING 7731
SWIDTH 500 0
DWIDTH 8 0
BBX 8 12 0 -3
BITMAP
E0
60
60
6E
6C
78
7C
66
EF
00
18
18
ENDCHAR
STARTCHAR u+1e34
ENCODING 7732
SWIDTH 500 0
DWIDTH 8 0
BBX 8 11 0 -3
BITMAP
F7
66
6C
78
7C
66
66
F3
00
00
3C
ENDCHAR
STARTCHAR u+1e35
ENCODING 7733
SWIDTH 500 0
DWIDTH 8 0
BBX 8 12 0 -3
BITMAP
E0
60
60
6E
6C
78
7C
66
EF
00
00
3C
ENDCHAR
STARTCHAR u+1e36
ENCODING 7734
SWIDTH 500 0
DWIDTH 8 0
BBX 7 11 0 -3
BITMAP
F0
60
60
60
60
62
62
FE
00
18
18
ENDCHAR
STARTCHAR u+1e37
ENCODING 7735
SWIDTH 500 0
DWIDTH 8 0
BBX 8 12 0 -3
BITMAP
78
18
18
18
18
18
18
18
FF
00
18
18
ENDCHAR
STARTCHAR u+1e38
ENCODING 7736
SWIDTH 500 0
DWIDTH 8 0
BBX 7 13 0 -3
BITMAP
3C
00
F0
60
60
60
60
62
62
FE
00
18
18
ENDCHAR
STARTCHAR u+1e39
ENCODING 7737
SWIDTH 500 0
DWIDTH 8 0
BBX 8 14 0 -3
BITMAP
3C
00
78
18
18
18
18
18
18
18
FF
00
18
18
ENDCHAR
STARTCHAR u+1e3a
ENCODING 7738
SWIDTH 500 0
DWIDTH 8 0
BBX 7 11 0 -3
BITMAP
F0
60
60
60
60
62
62
FE
00
00
3C
ENDCHAR
STARTCHAR u+1e3b
ENCODING 7739
SWIDTH 500 0
DWIDTH 8 0
BBX 8 12 0 -3
BITMAP
78
18
18
18
18
18
18
18
FF
00
00
3C
ENDCHAR
STARTCHAR u+1e3c
ENCODING 7740
SWIDTH 500 0
DWIDTH 8 0
BBX 7 11 0 -3
BITMAP
F0
60
60
60
60
62
62
FE
00
18
24
ENDCHAR
STARTCHAR u+1e3d
ENCODING 7741
SWIDTH 500 0
DWIDTH 8 0
BBX 8 12 0 -3
BITMAP
78
18
18
18
18
18
18
18
FF
00
18
24
ENDCHAR
STARTCHAR u+1e3e
ENCODING 7742
SWIDTH 500 0
DWIDTH 8 0
BBX 9 11 -1 0
BITMAP
0400
0800
0000
E380
7700
7700
7700
6B00
6B00
6300
F780
ENDCHAR
STARTCHAR u+1e3f
ENCODING 7743
SWIDTH 500 0
DWIDTH 8 0
BBX 10 9 -1 0
BITMAP
0200
0400
0000
FF00
6D80
6D80
6D80
6D80
EDC0
ENDCHAR
STARTCHAR u+1e40
ENCODING 7744
SWIDTH 500 0
DWIDTH 8 0
BBX 9 11 -1 0
BITMAP
0C00
0C00
0000
E380
7700
7700
7700
6B00
6B00
6300
F780
ENDCHAR
STARTCHAR u+1e41
ENCODING 7745
SWIDTH 500 0
DWIDTH 8 0
BBX 10 9 -1 0
BITMAP
0C00
0C00
0000
FF00
6D80
6D80
6D80
6D80
EDC0
ENDCHAR
STARTCHAR u+1e42
ENCODING 7746
SWIDTH 500 0
DWIDTH 8 0
BBX 9 11 -1 -3
BITMAP
E380
7700
7700
7700
6B00
6B00
6300
F780
0000
0C00
0C00
ENDCHAR
STARTCHAR u+1e43
ENCODING 7747
SWIDTH 500 0
DWIDTH 8 0
BBX 10 9 -1 -3
BITMAP
FF00
6D80
6D80
6D80
6D80
EDC0
0000
0C00
0C00
ENDCHAR
STARTCHAR u+1e44
ENCODING 7748
SWIDTH 500 0
DWIDTH 8 0
BBX 8 11 0 0
BITMAP
18
18
00
EF
66
76
76
6E
6E
66
F6
ENDCHAR
STARTCHAR u+1e45
ENCODING 7749
SWIDTH 500 0
DWIDTH 8 0
BBX 8 9 0 0
BITMAP
18
18
00
FC
66
66
66
66
E7
ENDCHAR
STARTCHAR u+1e46
ENCODING 7750
SWIDTH 500 0
DWIDTH 8 0
BBX 8 11 0 -3
BITMAP
EF
66
76
76
6E
6E
66
F6
00
18
18
ENDCHAR
STARTCHAR u+1e47
ENCODING 7751
SWIDTH 500 0
DWIDTH 8 0
BBX 8 9 0 -3
BITMAP
FC
66
66
66
66
E7
00
18
18
ENDCHAR
STARTCHAR u+1e48
ENCODING 7752
SWIDTH 500 0
DWIDTH 8 0
BBX 8 11 0 -3
BITMAP
EF
66
76
76
6E
6E
66
F6
00
00
3C
ENDCHAR
STARTCHAR u+1e49
ENCODING 7753
SWIDTH 500 0
DWIDTH 8 0
BBX 8 9 0 -3
BITMAP
FC
66
66
66
66
E7
00
00
3C
ENDCHAR
STARTCHAR u+1e4a
ENCODING 7754
SWIDTH 500 0
DWIDTH 8 0
BBX 8 11 0 -3
BITMAP
EF
66
76
76
6E
6E
66
F6
00
18
24
ENDCHAR
STARTCHAR u+1e4b
ENCODING 7755
SWIDTH 500 0
DWIDTH 8 0
BBX 8 9 0 -3
BITMAP
FC
66
66
66
66
E7
00
18
24
ENDCHAR
STARTCHAR u+1e4c
ENCODING 7756
SWIDTH 500 0
DWIDTH 8 0
BBX 6 12 1 0
BITMAP
10
28
50
00
78
CC
CC
CC
CC
CC
CC
78
ENDCHAR
STARTCHAR u+1e4d
ENCODING 7757
SWIDTH 500 0
DWIDTH 8 0
BBX 6 10 1 0
BITMAP
10
28
50
00
78
CC
CC
CC
CC
78
ENDCHAR
STARTCHAR u+1e4e
ENCODING 7758
SWIDTH 500 0
DWIDTH 8 0
BBX 6 12 1 0
BITMAP
48
28
50
00
78
CC
CC
CC
CC
CC
CC
78
ENDCHAR
STARTCHAR u+1e4f
ENCODING 7759
SWIDTH 500 0
DWIDTH 8 0
BBX 6 10 1 0
BITMAP
48
28
50
00
78
CC
CC
CC
CC
78
ENDCHAR
STARTCHAR u+1e50
ENCODING 7760
SWIDTH 500 0
DWIDTH 8 0
BBX 6 12 1 0
BITMAP
20
10
7C
00
78
CC
CC
CC
CC
CC
CC
78
ENDCHAR
STARTCHAR u+1e51
ENCODING 7761
SWIDTH 500 0
DWIDTH 8 0
BBX 6 10 1 0
BITMAP
20
10
7C
00
78
CC
CC
CC
CC
78
ENDCHAR
STARTCHAR u+1e52
ENCODING 7762
SWIDTH 500 0
DWIDTH 8 0
BBX 6 12 1 0
BITMAP
08
10
7C
00
78
CC
CC
CC
CC
CC
CC
78
ENDCHAR
STARTCHAR u+1e53
ENCODING 7763
SWIDTH 500 0
DWIDTH 8 0
BBX 6 10 1 0
BITMAP
08
10
7C
00
78
CC
CC
CC
CC
78
ENDCHAR
STARTCHAR u+1e54
ENCODING 7764
SWIDTH 500 0
DWIDTH 8 0
BBX 7 11 0 0
BITMAP
08
10
00
FC
66
66
66
7C
60
60
F8
ENDCHAR
STARTCHAR u+1e55
ENCODING 7765
SWIDTH 500 0
DWIDTH 8 0
BBX 7 12 0 -3
BITMAP
04
08
00
EC
76
66
66
76
6C
60
60
F8
ENDCHAR
STARTCHAR u+1e56
ENCODING 7766
SWIDTH 500 0
DWIDTH 8 0
BBX 7 11 0 0
BITMAP
18
18
00
FC
66
66
66
7C
60
60
F8
ENDCHAR
STARTCHAR u+1e57
ENCODING 7767
SWIDTH 500 0
DWIDTH 8 0
BBX 7 12 0 -3
BITMAP
18
18
00
EC
76
66
66
76
6C
60
60
F8
ENDCHAR
STARTCHAR u+1e58
ENCODING 7768
SWIDTH 500 0
DWIDTH 8 0
BBX 8 11 0 0
BITMAP
18
18
00
FC
66
66
66
7C
6C
66
F3
ENDCHAR
STARTCHAR u+1e59
ENCODING 7769
SWIDTH 500 0
DWIDTH 8 0
BBX 7 9 0 0
BITMAP
0C
0C
00
F6
3A
30
30
30
FE
ENDCHAR
STARTCHAR u+1e5a
ENCODING 7770
SWIDTH 500 0
DWIDTH 8 0
BBX 8 11 0 -3
BITMAP
FC
66
66
66
7C
6C
66
F3
00
18
18
ENDCHAR
STARTCHAR u+1e5b
ENCODING 7771
SWIDTH 500 0
DWIDTH 8 0
BBX 7 9 0 -3
BITMAP
F6
3A
30
30
30
FE
00
18
18
ENDCHAR
STARTCHAR u+1e5c
ENCODING 7772
SWIDTH 500 0
DWIDTH 8 0
BBX 8 13 0 -3
BITMAP
78
00
FC
66
66
66
7C
6C
66
F3
00
18
18
ENDCHAR
STARTCHAR u+1e5d
ENCODING 7773
SWIDTH 500 0
DWIDTH 8 0
BBX 7 11 0 -3
BITMAP
3C
00
F6
3A
30
30
30
FE
00
18
18
ENDCHAR
STARTCHAR u+1e5e
ENCODING 7774
SWIDTH 500 0
DWIDTH 8 0
BBX 8 11 0 -3
BITMAP
FC
66
66
66
7C
6C
66
F3
00
00
3C
ENDCHAR
STARTCHAR u+1e5f
ENCODING 7775
SWIDTH 500 0
DWIDTH 8 0
BBX 7 9 0 -3
BITMAP
F6
3A
30
30
30
FE
00
00
3C
ENDCHAR
STARTCHAR u+1e60
ENCODING 7776
SWIDTH 500 0
DWIDTH 8 0
BBX 6 11 1 0
BITMAP
30
30
00
7C
CC
C0
70
38
0C
CC
F8
ENDCHAR
STARTCHAR u+1e61
ENCODING 7777
SWIDTH 500 0
DWIDTH 8 0
BBX 6 9 1 0
BITMAP
30
30
00
7C
CC
F0
3C
CC
F8
ENDCHAR
STARTCHAR u+1e62
ENCODING 7778
SWIDTH 500 0
DWIDTH 8 0
BBX 6 11 1 -3
BITMAP
7C
CC
C0
70
38
0C
CC
F8
00
30
30
ENDCHAR
STARTCHAR u+1e63
ENCODING 7779
SWIDTH 500 0
DWIDTH 8 0
BBX 6 9 1 -3
BITMAP
7C
CC
F0
3C
CC
F8
00
30
30
ENDCHAR
STARTCHAR u+1e64
ENCODING 7780
SWIDTH 500 0
DWIDTH 8 0
BBX 6 12 1 0
BITMAP
20
10
20
00
7C
CC
C0
70
38
0C
CC
F8
ENDCHAR
STARTCHAR u+1e65
ENCODING 7781
SWIDTH 500 0
DWIDTH 8 0
BBX 6 10 1 0
BITMAP
10
08
10
00
7C
CC
F0
3C
CC
F8
ENDCHAR
STARTCHAR u+1e66
ENCODING 7782
SWIDTH 500 0
DWIDTH 8 0
BBX 6 12 1 0
BITMAP
10
28
10
00
7C
CC
C0
70
38
0C
CC
F8
ENDCHAR
STARTCHAR u+1e67
ENCODING 7783
SWIDTH 500 0
DWIDTH 8 0
BBX 6 10 1 0
BITMAP
10
28
10
00
7C
CC
F0
3C
CC
F8
ENDCHAR
STARTCHAR u+1e68
ENCODING 7784
SWIDTH 500 0
DWIDTH 8 0
BBX 6 14 1 -3
BITMAP
30
30
00
7C
CC
C0
70
38
0C
CC
F8
00
30
30
ENDCHAR
STARTCHAR u+1e69
ENCODING 7785
SWIDTH 500 0
DWIDTH 8 0
BBX 6 12 1 -3
BITMAP
30
30
00
7C
CC
F0
3C
CC
F8
00
30
30
ENDCHAR
STARTCHAR u+1e6a
ENCODING 7786
SWIDTH 500 0
DWIDTH 8 0
BBX 6 11 1 0
BITMAP
30
30
00
FC
B4
B4
30
30
30
30
78
ENDCHAR
STARTCHAR u+1e6b
ENCODING 7787
SWIDTH 500 0
DWIDTH 8 0
BBX 6 12 1 0
BITMAP
18
18
00
00
60
60
F8
60
60
60
64
38
ENDCHAR
STARTCHAR u+1e6c
ENCODING 7788
SWIDTH 500 0
DWIDTH 8 0
BBX 6 11 1 -3
BITMAP
FC
B4
B4
30
30
30
30
78
00
30
30
ENDCHAR
STARTCHAR u+1e6d
ENCODING 7789
SWIDTH 500 0
DWIDTH 8 0
BBX 6 11 1 -3
BITMAP
60
60
F8
60
60
60
64
38
00
30
30
ENDCHAR
STARTCHAR u+1e6e
ENCODING 7790
SWIDTH 500 0
DWIDTH 8 0
BBX 6 11 1 -3
BITMAP
FC
B4
B4
30
30
30
30
78
00
00
78
ENDCHAR
STARTCHAR u+1e6f
ENCODING 7791
SWIDTH 500 0
DWIDTH 8 0
BBX 6 11 1 -3
BITMAP
60
60
F8
60
60
60
64
38
00
00
78
ENDCHAR
STARTCHAR u+1e70
ENCODING 7792
SWIDTH 500 0
DWIDTH 8 0
BBX 6 11 1 -3
BITMAP
FC
B4
B4
30
30
30
30
78
00
30
48
ENDCHAR
STARTCHAR u+1e71
ENCODING 7793
SWIDTH 500 0
DWIDTH 8 0
BBX 6 11 1 -3
BITMAP
60
60
F8
60
60
60
64
38
00
30
48
ENDCHAR
STARTCHAR u+1e72
ENCODING 7794
SWIDTH 500 0
DWIDTH 8 0
BBX 8 10 0 -2
BITMAP
E7
66
66
66
66
66
66
3C
00
24
ENDCHAR
STARTCHAR u+1e73
ENCODING 7795
SWIDTH 500 0
DWIDTH 8 0
BBX 8 8 0 -2
BITMAP
EE
66
66
66
66
3F
00
24
ENDCHAR
ENDFONT
